<svg xmlns="http://www.w3.org/2000/svg" width="375" height="248" viewBox="0 0 375 248">
  <g id="Group_139424" data-name="Group 139424" transform="translate(11274 -4945)">
    <path id="Path_153749" data-name="Path 153749" d="M0,0H375V248H0Z" transform="translate(-11274 4945)" fill="#edf0f5"/>
    <g id="Group_139425" data-name="Group 139425" transform="translate(-11186 5035)">
      <g id="Group_139396" data-name="Group 139396" transform="translate(46.133 60.483)">
        <path id="Path_153911" data-name="Path 153911" d="M175.8,186.668h3.134l-.679,6.918h1.982l.679-6.918h3.134l.181-1.842h-8.249Z" transform="translate(-175.8 -184.826)" fill="#ccd3df"/>
        <path id="Path_153912" data-name="Path 153912" d="M190.589,184.969a2.532,2.532,0,0,0-.538.4,4.08,4.08,0,0,0-.507.583,2.562,2.562,0,0,0-.356.7l-.681,6.939h1.982l.22-2.252h5.3l-.221,2.252h1.982l.86-8.761h-7.575A1.021,1.021,0,0,0,190.589,184.969Zm.817,2.118a1.6,1.6,0,0,1,.714-.4h4.342l-.273,2.784h-5.3l.165-1.678A1.942,1.942,0,0,1,191.406,187.087Z" transform="translate(-163.319 -184.826)" fill="#ccd3df"/>
        <path id="Path_153913" data-name="Path 153913" d="M205.718,190.9l.6-6.079h-1.982l-.629,6.406a1.766,1.766,0,0,0,.12.788,3.287,3.287,0,0,0,.4.767,2.529,2.529,0,0,0,.548.573.947.947,0,0,0,.554.226h5.565l.183-1.863h-4.568A1,1,0,0,1,205.718,190.9Z" transform="translate(-151.632 -184.826)" fill="#ccd3df"/>
        <path id="Path_153914" data-name="Path 153914" d="M222.978,184.826l-4.582,3.541.348-3.541h-1.982l-.86,8.761h1.982l.348-3.541,4.627,3.541h3.218l-5.6-4.38,5.724-4.38Z" transform="translate(-138.955 -184.826)" fill="#ccd3df"/>
        <path id="Path_153915" data-name="Path 153915" d="M234.019,184.969a2.532,2.532,0,0,0-.538.4,4.08,4.08,0,0,0-.507.583,2.541,2.541,0,0,0-.356.7l-.681,6.939h1.981l.221-2.252h5.3l-.22,2.252H241.2l.86-8.761h-7.575A1.021,1.021,0,0,0,234.019,184.969Zm.817,2.118a1.6,1.6,0,0,1,.714-.4h4.343l-.273,2.784h-5.3l.164-1.678A1.954,1.954,0,0,1,234.836,187.087Z" transform="translate(-127.967 -184.826)" fill="#ccd3df"/>
      </g>
      <g id="Group_139397" data-name="Group 139397" transform="translate(17 23)">
        <path id="Path_153920" data-name="Path 153920" d="M280.942,145.866h-.019c-.039,0-.078-.013-.117-.013h-4.57v.013H254.173l1.407-11.2h-1.441l.005,0H247.3l.926,2.281-1.444,11.51-.013.09v.013l-.019.168-2.13,14.665h-6.687l3.8-28.724h-1.488l.005,0h-6.843l.949,2.337-3.493,26.39h-6.222l.774-5.138v-.039c.013-.065.013-.142.026-.207l1.019-7.042a.047.047,0,0,1,.013-.039,5.045,5.045,0,0,0-1.013-3.176l-.007-.013v-.013a8.706,8.706,0,0,0-.923-.755,6.245,6.245,0,0,0-1.4-.794,4.507,4.507,0,0,0-1.317-.31c-.413-.039-.846-.052-1.258-.052H202.277l-1.536,10.424-.678,4.693h.013l-.375,2.46h-6.287l.936-6.365v-.142l1.137-7.739c.013-.078,0-.142.013-.22l.491-3.265H175.225v.052h-1.7c-.046,0-.09.01-.136.012-8.68-.006-11.437-.006-20.436,0-.206,0-.419,0-.632.013a2.913,2.913,0,0,0-.33.039,1.169,1.169,0,0,0-1.039,1.278,1.189,1.189,0,0,0,1.1,1.227,6.062,6.062,0,0,0,.968.032c3.183.006,2.73.006,5.919.006a7.659,7.659,0,0,1,.859.019c.575.071,1.046.278,1.072.968.019.646-.329,1.013-1.058,1.091a7.662,7.662,0,0,1-.859.013c-5.474,0-7.313,0-12.788.007A4.985,4.985,0,0,0,145,150.5a1.1,1.1,0,0,0-.884,1.285,1.083,1.083,0,0,0,1.039,1.091h23.534a.189.189,0,0,1,.064.007.777.777,0,0,1,.263.048c.018.005.034.013.052.019a1.085,1.085,0,0,1,.265.136h0a1.11,1.11,0,0,1,.227.223,1.079,1.079,0,0,1,.231.663v.039a1.1,1.1,0,0,1-1.1,1.1h-.239v.015c-.154,0-.308-.008-.463-.008h-29.1a8.059,8.059,0,0,0-.968.019,1.193,1.193,0,0,0-1.1,1.226,1.222,1.222,0,0,0,1.116,1.227c.323.032.646.013.968.013h23.2a5.954,5.954,0,0,1,1.072.032,1.082,1.082,0,0,1,1.027,1.052,1.062,1.062,0,0,1-.91,1.052,4.516,4.516,0,0,1-1.065.071c-5.474.007-7.313.007-12.788.007-.394,0-.787,0-1.181.019a1.124,1.124,0,0,0-1.117,1.09,1.177,1.177,0,0,0,.749,1.24h19.486l-.179,1.22-.7,4.892h50.038v.013h7.416v-.013h56.829v-2.995l2.433-16.653A2.421,2.421,0,0,0,280.942,145.866Zm-93.4,8.081h-.039l-1.382,9.418v.026H174.579l.684-4.641h.007l.271-1.827h.025l.587-3.963a2.833,2.833,0,0,1,2.8-2.408h9.095Zm30.738,2.291-.639,4.46-.039.232-.013.026-.362,2.434H207.105l.684-4.687h-.013l.362-2.466.458-3.137.374-2.523h6.816a4.42,4.42,0,0,1,2.227,1.026,2.947,2.947,0,0,1,.613,1.5,1.317,1.317,0,0,1,.064.31Zm55.389,7.153H254.406a4.223,4.223,0,0,1-.742-.31,1.914,1.914,0,0,1-.755-.6,2,2,0,0,1-.387-.755,6.174,6.174,0,0,1-.168-1l1.472-9.96H275.52Z" transform="translate(-136.812 -134.664)" fill="#ccd3df"/>
        <path id="Path_153921" data-name="Path 153921" d="M225.374,140.645h6.874l.855-5.877.052-.01h-7.905l.856.856Z" transform="translate(-159.165 -134.688)" fill="#ccd3df"/>
        <path id="Path_153922" data-name="Path 153922" d="M238.031,140.645h6.874l.856-5.887H237.7l1.036,1.036Z" transform="translate(-162.312 -134.688)" fill="#ccd3df"/>
        <path id="Path_153923" data-name="Path 153923" d="M195.645,140.645h6.874l.857-5.887h-7.905l.9.9Z" transform="translate(-151.638 -134.688)" fill="#ccd3df"/>
        <path id="Path_153924" data-name="Path 153924" d="M207.912,140.646h6.875l.853-5.87.018,0v-.013h-7.831l.823.823Z" transform="translate(-154.761 -134.688)" fill="#ccd3df"/>
      </g>
      <g id="Group_139400" data-name="Group 139400" transform="translate(44.536 74.77)">
        <path id="Path_153925" data-name="Path 153925" d="M177.635,207.884l-.079,1.066H175.13a2.783,2.783,0,0,1-.978-.129.7.7,0,0,1-.421-.459,2.862,2.862,0,0,1-.053-1,3.017,3.017,0,0,1,.2-1,.854.854,0,0,1,.489-.458,2.937,2.937,0,0,1,1-.129h1.772l-.157,2.1Zm-2.78-2.978a.872.872,0,0,1-.2-.216.364.364,0,0,1-.074-.219.439.439,0,0,1,.1-.226.978.978,0,0,1,.228-.212.436.436,0,0,1,.232-.087.38.38,0,0,1,.22.087.791.791,0,0,1,.2.212.381.381,0,0,1,.071.226.419.419,0,0,1-.108.219,1.06,1.06,0,0,1-.232.216.422.422,0,0,1-.226.091A.364.364,0,0,1,174.855,204.906Zm1.26,1.939h-1.1c-.193,0-.3.083-.308.25l-.041.54q-.018.25.271.25h1.1Zm-.047-1.939a.872.872,0,0,1-.2-.216.364.364,0,0,1-.074-.219.445.445,0,0,1,.1-.226.993.993,0,0,1,.228-.212.436.436,0,0,1,.232-.087.38.38,0,0,1,.22.087.791.791,0,0,1,.2.212.381.381,0,0,1,.071.226.419.419,0,0,1-.108.219,1.06,1.06,0,0,1-.232.216.422.422,0,0,1-.226.091A.364.364,0,0,1,176.068,204.906Z" transform="translate(-173.662 -203.945)" fill="#ccd3df"/>
        <path id="Path_153926" data-name="Path 153926" d="M181.219,208.5l-.08,1.066h-2.627l.079-1.066h1.024l.157-2.1h.95l-.157,2.1Zm-2.148,2.56a.884.884,0,0,1-.2-.216.369.369,0,0,1-.075-.22.438.438,0,0,1,.1-.226.962.962,0,0,1,.228-.212.432.432,0,0,1,.232-.088.373.373,0,0,1,.219.088.771.771,0,0,1,.2.212.379.379,0,0,1,.071.226.424.424,0,0,1-.108.22,1.116,1.116,0,0,1-.232.216.422.422,0,0,1-.226.091A.364.364,0,0,1,179.071,211.064Zm1.213,0a.884.884,0,0,1-.2-.216.369.369,0,0,1-.075-.22.438.438,0,0,1,.1-.226.961.961,0,0,1,.228-.212.432.432,0,0,1,.232-.088.377.377,0,0,1,.22.088.779.779,0,0,1,.2.212.379.379,0,0,1,.071.226.423.423,0,0,1-.108.22,1.116,1.116,0,0,1-.232.216.422.422,0,0,1-.226.091A.364.364,0,0,1,180.284,211.064Z" transform="translate(-174.888 -204.566)" fill="#ccd3df"/>
        <path id="Path_153927" data-name="Path 153927" d="M184.375,207.884l-.079,1.066h-2.628l.08-1.066h1.024l.157-2.1h.951l-.157,2.1Zm-1.722-2.978a.858.858,0,0,1-.2-.216.365.365,0,0,1-.075-.219.441.441,0,0,1,.1-.226.978.978,0,0,1,.228-.212.436.436,0,0,1,.232-.087.376.376,0,0,1,.219.087.782.782,0,0,1,.2.212.381.381,0,0,1,.071.226.419.419,0,0,1-.108.219,1.077,1.077,0,0,1-.232.216.422.422,0,0,1-.226.091A.364.364,0,0,1,182.654,204.906Zm1.213,0a.872.872,0,0,1-.2-.216.365.365,0,0,1-.075-.219.441.441,0,0,1,.1-.226.978.978,0,0,1,.228-.212.436.436,0,0,1,.232-.087.376.376,0,0,1,.219.087.782.782,0,0,1,.2.212.381.381,0,0,1,.071.226.419.419,0,0,1-.108.219,1.077,1.077,0,0,1-.232.216.422.422,0,0,1-.226.091A.364.364,0,0,1,183.866,204.906Z" transform="translate(-175.686 -203.945)" fill="#ccd3df"/>
        <path id="Path_153928" data-name="Path 153928" d="M192.14,208.5l-.08,1.066H189.7a3.7,3.7,0,0,1-.657-.048,1.168,1.168,0,0,1-.426-.155,1.62,1.62,0,0,1-.507.155,5,5,0,0,1-.762.048h-2.526l.079-1.066h1.024l.111-1.5h.951l-.112,1.5h.849a.8.8,0,0,0,.39-.074.332.332,0,0,0,.143-.283l.084-1.14h.95l-.084,1.14a.284.284,0,0,0,.1.283.729.729,0,0,0,.378.074h.782a2.648,2.648,0,0,0,.117-.675,5.233,5.233,0,0,0-.1-1.281l.954-.149a4.2,4.2,0,0,1,.1,1.376,3.4,3.4,0,0,1-.122.729Z" transform="translate(-176.483 -204.566)" fill="#ccd3df"/>
        <path id="Path_153929" data-name="Path 153929" d="M198.362,207.413l-.08,1.072H197.5a.556.556,0,0,1-.1-.006,2.361,2.361,0,0,1-.936.8,2.862,2.862,0,0,1-1.219.256h-1.1l.079-1.066h1.193a1.457,1.457,0,0,0,1.37-.755.829.829,0,0,0-.394-.283,1.934,1.934,0,0,0-.637-.088,6.31,6.31,0,0,0-.812.048l-.063-1.052a8.843,8.843,0,0,1,.948-.068,2.444,2.444,0,0,1,1.264.27,1.594,1.594,0,0,1,.652.871Zm-2.5,3.619a.869.869,0,0,1-.2-.216.369.369,0,0,1-.075-.22.439.439,0,0,1,.1-.226.962.962,0,0,1,.228-.212.43.43,0,0,1,.232-.088.373.373,0,0,1,.22.088.771.771,0,0,1,.2.212.384.384,0,0,1,.071.226.436.436,0,0,1-.108.22,1.134,1.134,0,0,1-.232.216.422.422,0,0,1-.226.091A.362.362,0,0,1,195.859,211.032Z" transform="translate(-178.84 -204.533)" fill="#ccd3df"/>
        <path id="Path_153930" data-name="Path 153930" d="M204.574,209.538h-.924a4.762,4.762,0,0,1-.59,1.008,5.2,5.2,0,0,1-.836.874l-.581-.7a4,4,0,0,0,.991-1.18h-.667a1.52,1.52,0,0,1-.776-.169.89.89,0,0,1-.395-.533,2.723,2.723,0,0,1-.067-.971,2.245,2.245,0,0,1,.238-.927,1.138,1.138,0,0,1,.573-.506,2.555,2.555,0,0,1,.979-.159,5.384,5.384,0,0,1,.855.058,3.083,3.083,0,0,1,.7.2l-.145,1.943h.728Zm-1.875-1.066a.321.321,0,0,0,.22-.061A.326.326,0,0,0,203,208.2l.064-.85h-.9a.558.558,0,0,0-.3.058.282.282,0,0,0-.1.226l-.063.843Z" transform="translate(-180.5 -204.533)" fill="#ccd3df"/>
        <path id="Path_153931" data-name="Path 153931" d="M205.589,209.216H207.5l-.079,1.066h-1.914Z" transform="translate(-181.711 -205.277)" fill="#ccd3df"/>
        <path id="Path_153932" data-name="Path 153932" d="M210.417,208.139l-.08,1.066H207.71l.079-1.066h1.024l.238-3.183H210l-.238,3.183Z" transform="translate(-182.268 -204.201)" fill="#ccd3df"/>
        <path id="Path_153933" data-name="Path 153933" d="M210.865,209.206l.08-1.066h1.024l.238-3.183h.951l-.318,4.25Z" transform="translate(-183.065 -204.201)" fill="#ccd3df"/>
        <path id="Path_153934" data-name="Path 153934" d="M215.213,204.956h.95l-.317,4.25h-.95Z" transform="translate(-184.084 -204.201)" fill="#ccd3df"/>
        <path id="Path_153935" data-name="Path 153935" d="M218.52,208.827a1.757,1.757,0,0,1-.189-1.127,4.14,4.14,0,0,1,.306-1.314l.9.141a2.927,2.927,0,0,0-.235.9,1.922,1.922,0,0,0,.043.688h3.282l.157-2.1h.943l-.237,3.171h-4.123A.961.961,0,0,1,218.52,208.827Zm1.822-3.018a.889.889,0,0,1-.2-.216.364.364,0,0,1-.074-.219.442.442,0,0,1,.1-.226.979.979,0,0,1,.229-.212.434.434,0,0,1,.232-.087.376.376,0,0,1,.219.087.771.771,0,0,1,.2.212.385.385,0,0,1,.071.226.431.431,0,0,1-.108.219,1.1,1.1,0,0,1-.232.216.424.424,0,0,1-.226.091A.362.362,0,0,1,220.342,205.809Zm1.213,0a.886.886,0,0,1-.2-.216.365.365,0,0,1-.075-.219.442.442,0,0,1,.1-.226.979.979,0,0,1,.229-.212.434.434,0,0,1,.232-.087.376.376,0,0,1,.219.087.771.771,0,0,1,.2.212.385.385,0,0,1,.071.226.431.431,0,0,1-.108.219,1.1,1.1,0,0,1-.232.216.424.424,0,0,1-.226.091A.362.362,0,0,1,221.555,205.809Z" transform="translate(-184.95 -204.173)" fill="#ccd3df"/>
        <path id="Path_153936" data-name="Path 153936" d="M226.944,204.956h.951l-.238,3.183h.654l-.08,1.066h-1.6Z" transform="translate(-187.049 -204.201)" fill="#ccd3df"/>
        <path id="Path_153937" data-name="Path 153937" d="M228.492,209.216h1.914l-.08,1.066h-1.913Z" transform="translate(-187.501 -205.277)" fill="#ccd3df"/>
        <path id="Path_153938" data-name="Path 153938" d="M230.692,209.216h1.914l-.08,1.066h-1.913Z" transform="translate(-188.057 -205.277)" fill="#ccd3df"/>
        <path id="Path_153939" data-name="Path 153939" d="M236.962,206.536a.953.953,0,0,1,.264.844l-.161,2.159h-4.252l.079-1.066h.909a4.263,4.263,0,0,1,0-.6,3.6,3.6,0,0,1,.1-.628,5.974,5.974,0,0,1,.217-.661,5.205,5.205,0,0,1,1.809-.311A1.587,1.587,0,0,1,236.962,206.536Zm-.687.844a3.01,3.01,0,0,0-.53-.034,5.268,5.268,0,0,0-.9.081,2.022,2.022,0,0,0-.087.445,3.525,3.525,0,0,0,0,.6h1.442Z" transform="translate(-188.613 -204.533)" fill="#ccd3df"/>
        <path id="Path_153940" data-name="Path 153940" d="M242.985,208.456l-.08,1.066h-3.564l.079-1.066h1.988a3.6,3.6,0,0,0-.167-.739.683.683,0,0,0-.25-.343.8.8,0,0,0-.431-.1,3.2,3.2,0,0,0-.735.087l-.178-1.039a3.891,3.891,0,0,1,.992-.115,2.1,2.1,0,0,1,.954.176,1.244,1.244,0,0,1,.535.641,6.638,6.638,0,0,1,.365,1.429Z" transform="translate(-190.263 -204.518)" fill="#ccd3df"/>
        <path id="Path_153941" data-name="Path 153941" d="M243.83,209.216h1.914l-.08,1.066h-1.913Z" transform="translate(-191.377 -205.277)" fill="#ccd3df"/>
        <path id="Path_153942" data-name="Path 153942" d="M250.41,207.884l-.079,1.066h-.7a.561.561,0,0,1-.34-.092.532.532,0,0,1-.184-.286l-.114-.371a2.24,2.24,0,0,1-1.754.749h-1.287l.079-1.066h1.394a1.24,1.24,0,0,0,1.175-.742.87.87,0,0,0-.4-.29,1.829,1.829,0,0,0-.639-.095,6.293,6.293,0,0,0-.812.048l-.064-1.052a8.842,8.842,0,0,1,.949-.068,2.272,2.272,0,0,1,1.345.341,1.92,1.92,0,0,1,.676,1.1l.22.755Zm-2.376-2.978a.887.887,0,0,1-.2-.216.364.364,0,0,1-.074-.219.445.445,0,0,1,.1-.226.993.993,0,0,1,.228-.212.436.436,0,0,1,.232-.087.376.376,0,0,1,.219.087.785.785,0,0,1,.2.212.38.38,0,0,1,.07.226.423.423,0,0,1-.107.219,1.113,1.113,0,0,1-.232.216.424.424,0,0,1-.226.091A.366.366,0,0,1,248.034,204.906Z" transform="translate(-191.933 -203.945)" fill="#ccd3df"/>
        <path id="Path_153943" data-name="Path 153943" d="M251.433,209.206l.08-1.066h1.024l.238-3.183h.951l-.318,4.25Z" transform="translate(-193.319 -204.201)" fill="#ccd3df"/>
        <path id="Path_153944" data-name="Path 153944" d="M255.781,204.956h.95l-.317,4.25h-.95Z" transform="translate(-194.338 -204.201)" fill="#ccd3df"/>
        <path id="Path_153945" data-name="Path 153945" d="M260.76,206.331a3.082,3.082,0,0,1,.7.2l-.145,1.943a3.619,3.619,0,0,1-.524,1.555,5.257,5.257,0,0,1-1.178,1.393l-.581-.7a4,4,0,0,0,.992-1.18h-.667a1.52,1.52,0,0,1-.776-.169.89.89,0,0,1-.395-.533,2.723,2.723,0,0,1-.066-.971,2.245,2.245,0,0,1,.238-.927,1.135,1.135,0,0,1,.573-.506,2.555,2.555,0,0,1,.979-.159A5.384,5.384,0,0,1,260.76,206.331Zm-.676,2.141a.247.247,0,0,0,.3-.276l.064-.85h-.9a.556.556,0,0,0-.3.058.28.28,0,0,0-.1.226l-.063.843Z" transform="translate(-195.005 -204.533)" fill="#ccd3df"/>
        <path id="Path_153946" data-name="Path 153946" d="M268.733,208.125l-.079,1.066H268v.013a2.763,2.763,0,0,1-.217,1,.94.94,0,0,1-.563.468,3.816,3.816,0,0,1-1.186.139,3.29,3.29,0,0,1-1.1-.139.778.778,0,0,1-.489-.485,2.607,2.607,0,0,1-.072-1.016,6.011,6.011,0,0,1,.345-1.645l.885.148a6.049,6.049,0,0,0-.267,1.316,3,3,0,0,0,.011.748h.963a1.452,1.452,0,0,0,.545-.074.31.31,0,0,0,.183-.283l.334-4.479h.95l-.241,3.224Z" transform="translate(-196.585 -204.187)" fill="#ccd3df"/>
        <path id="Path_153947" data-name="Path 153947" d="M269.826,209.216h1.914l-.08,1.066h-1.913Z" transform="translate(-197.948 -205.277)" fill="#ccd3df"/>
        <path id="Path_153948" data-name="Path 153948" d="M274.654,208.5l-.08,1.066h-2.627l.079-1.066h1.024l.157-2.1h.95L274,208.5Zm-2.148,2.56a.884.884,0,0,1-.2-.216.369.369,0,0,1-.075-.22.439.439,0,0,1,.1-.226.951.951,0,0,1,.229-.212.428.428,0,0,1,.232-.088.373.373,0,0,1,.219.088.771.771,0,0,1,.2.212.379.379,0,0,1,.071.226.423.423,0,0,1-.108.22,1.115,1.115,0,0,1-.232.216.422.422,0,0,1-.226.091A.364.364,0,0,1,272.506,211.064Zm1.213,0a.9.9,0,0,1-.2-.216.369.369,0,0,1-.075-.22.445.445,0,0,1,.1-.226.951.951,0,0,1,.229-.212.428.428,0,0,1,.232-.088.373.373,0,0,1,.219.088.771.771,0,0,1,.2.212.379.379,0,0,1,.071.226.423.423,0,0,1-.108.22,1.115,1.115,0,0,1-.232.216.422.422,0,0,1-.226.091A.364.364,0,0,1,273.719,211.064Z" transform="translate(-198.504 -204.566)" fill="#ccd3df"/>
        <path id="Path_153949" data-name="Path 153949" d="M280.094,206.414a.628.628,0,0,1,.384.355,1.6,1.6,0,0,1,.069.708l-.155,2.071H275.1l.08-1.066h1.024l.157-2.1h.951l-.071.945a1.7,1.7,0,0,1,.8-.735,2.781,2.781,0,0,1,1.246-.277A2.433,2.433,0,0,1,280.094,206.414Zm-.572,2.068.077-1.032a2.944,2.944,0,0,0-.8-.074,1.439,1.439,0,0,0-1.619,1.106Z" transform="translate(-199.302 -204.543)" fill="#ccd3df"/>
        <path id="Path_153950" data-name="Path 153950" d="M287.4,209.538h-.924a4.76,4.76,0,0,1-.59,1.008,5.2,5.2,0,0,1-.836.874l-.581-.7a4,4,0,0,0,.991-1.18h-.667a1.523,1.523,0,0,1-.776-.169.893.893,0,0,1-.395-.533,2.742,2.742,0,0,1-.066-.971,2.234,2.234,0,0,1,.238-.927,1.138,1.138,0,0,1,.573-.506,2.557,2.557,0,0,1,.979-.159,5.384,5.384,0,0,1,.855.058,3.061,3.061,0,0,1,.7.2l-.144,1.943h.727Zm-1.875-1.066a.248.248,0,0,0,.3-.276l.064-.85h-.9a.561.561,0,0,0-.3.058.28.28,0,0,0-.1.226l-.063.843Z" transform="translate(-201.434 -204.533)" fill="#ccd3df"/>
        <path id="Path_153951" data-name="Path 153951" d="M291.038,207.884l-.079,1.066h-2.628l.08-1.066h1.024l.157-2.1h.951l-.157,2.1Zm-1.722-2.978a.871.871,0,0,1-.2-.216.366.366,0,0,1-.075-.219.447.447,0,0,1,.1-.226.978.978,0,0,1,.228-.212.436.436,0,0,1,.232-.087.376.376,0,0,1,.219.087.771.771,0,0,1,.2.212.381.381,0,0,1,.071.226.419.419,0,0,1-.108.219,1.077,1.077,0,0,1-.232.216.422.422,0,0,1-.226.091A.364.364,0,0,1,289.317,204.906Zm1.213,0a.872.872,0,0,1-.2-.216.365.365,0,0,1-.075-.219.446.446,0,0,1,.1-.226.977.977,0,0,1,.228-.212.436.436,0,0,1,.232-.087.376.376,0,0,1,.219.087.771.771,0,0,1,.2.212.381.381,0,0,1,.071.226.423.423,0,0,1-.107.219,1.1,1.1,0,0,1-.232.216.422.422,0,0,1-.226.091A.364.364,0,0,1,290.529,204.906Z" transform="translate(-202.645 -203.945)" fill="#ccd3df"/>
        <path id="Path_153952" data-name="Path 153952" d="M291.487,209.206l.079-1.066h1.024l.238-3.183h.95l-.317,4.25Z" transform="translate(-203.443 -204.201)" fill="#ccd3df"/>
        <path id="Path_153953" data-name="Path 153953" d="M295.835,204.956h.95l-.317,4.25h-.95Z" transform="translate(-204.462 -204.201)" fill="#ccd3df"/>
        <path id="Path_153954" data-name="Path 153954" d="M300.814,206.331a3.083,3.083,0,0,1,.7.2l-.145,1.943a3.628,3.628,0,0,1-.523,1.555,5.259,5.259,0,0,1-1.179,1.393l-.581-.7a4.009,4.009,0,0,0,.991-1.18h-.667a1.52,1.52,0,0,1-.776-.169.89.89,0,0,1-.395-.533,2.723,2.723,0,0,1-.066-.971,2.245,2.245,0,0,1,.238-.927,1.138,1.138,0,0,1,.573-.506,2.554,2.554,0,0,1,.979-.159A5.384,5.384,0,0,1,300.814,206.331Zm-.676,2.141a.321.321,0,0,0,.22-.061.326.326,0,0,0,.077-.216l.063-.85h-.9a.561.561,0,0,0-.3.058.28.28,0,0,0-.1.226l-.064.843Z" transform="translate(-205.128 -204.533)" fill="#ccd3df"/>
        <path id="Path_153955" data-name="Path 153955" d="M308.787,208.125l-.08,1.066h-.653v.013a2.78,2.78,0,0,1-.217,1,.941.941,0,0,1-.563.468,3.818,3.818,0,0,1-1.187.139,3.288,3.288,0,0,1-1.1-.139.778.778,0,0,1-.489-.485,2.608,2.608,0,0,1-.073-1.016,6.04,6.04,0,0,1,.345-1.645l.885.148a6.1,6.1,0,0,0-.267,1.316,3.026,3.026,0,0,0,.012.748h.963a1.451,1.451,0,0,0,.545-.074.31.31,0,0,0,.183-.283l.333-4.479h.951l-.241,3.224Z" transform="translate(-206.709 -204.187)" fill="#ccd3df"/>
        <path id="Path_153956" data-name="Path 153956" d="M309.88,209.216h1.914l-.08,1.066H309.8Z" transform="translate(-208.072 -205.277)" fill="#ccd3df"/>
        <path id="Path_153957" data-name="Path 153957" d="M316.845,207.877l-.08,1.066h-.653v.007H312l.08-1.066h.99a2.8,2.8,0,0,1-.063-.421,3.51,3.51,0,0,1,.007-.469,1.3,1.3,0,0,1,.466-1,2.187,2.187,0,0,1,1.3-.311,5.19,5.19,0,0,1,.828.058,3.6,3.6,0,0,1,.723.2l-.144,1.936Zm-2.821-2.971a.845.845,0,0,1-.2-.216.366.366,0,0,1-.075-.219.44.44,0,0,1,.1-.226.979.979,0,0,1,.228-.212.432.432,0,0,1,.232-.087.378.378,0,0,1,.22.087.793.793,0,0,1,.2.212.392.392,0,0,1,.071.226.431.431,0,0,1-.108.219,1.1,1.1,0,0,1-.232.216.424.424,0,0,1-.226.091A.362.362,0,0,1,314.025,204.906Zm1.3,1.851h-1a.319.319,0,0,0-.224.061.349.349,0,0,0-.074.223l-.063.843h1a.323.323,0,0,0,.22-.061.326.326,0,0,0,.076-.216Zm-.087-1.851a.844.844,0,0,1-.2-.216.366.366,0,0,1-.075-.219.44.44,0,0,1,.1-.226.978.978,0,0,1,.228-.212.432.432,0,0,1,.232-.087.378.378,0,0,1,.22.087.794.794,0,0,1,.2.212.381.381,0,0,1,.071.226.431.431,0,0,1-.108.219,1.1,1.1,0,0,1-.232.216.422.422,0,0,1-.226.091A.362.362,0,0,1,315.237,204.906Z" transform="translate(-208.628 -203.945)" fill="#ccd3df"/>
        <path id="Path_153958" data-name="Path 153958" d="M320.723,207.884l-.08,1.066h-2.627l.079-1.066h1.024l.157-2.1h.95l-.157,2.1Zm-1.122-2.978a.872.872,0,0,1-.2-.216.366.366,0,0,1-.075-.219.441.441,0,0,1,.1-.226.978.978,0,0,1,.228-.212.436.436,0,0,1,.232-.087.376.376,0,0,1,.219.087.782.782,0,0,1,.2.212.381.381,0,0,1,.071.226.419.419,0,0,1-.108.219,1.077,1.077,0,0,1-.232.216.422.422,0,0,1-.226.091A.364.364,0,0,1,319.6,204.906Z" transform="translate(-210.148 -203.945)" fill="#ccd3df"/>
        <path id="Path_153959" data-name="Path 153959" d="M323.879,208.139l-.08,1.066h-2.628l.08-1.066h1.024l.237-3.183h.951l-.238,3.183Z" transform="translate(-210.946 -204.201)" fill="#ccd3df"/>
        <path id="Path_153960" data-name="Path 153960" d="M324.327,209.206l.08-1.066h1.024l.238-3.183h.951l-.318,4.25Z" transform="translate(-211.743 -204.201)" fill="#ccd3df"/>
      </g>
    </g>
  </g>
</svg>
