<svg xmlns="http://www.w3.org/2000/svg" width="18" height="18" viewBox="0 0 18 18">
  <g id="vuesax_twotone_3square" data-name="vuesax/twotone/3square" transform="translate(-172 -316)">
    <g id="_3square" data-name="3square" transform="translate(172 316)">
      <path id="Vector" d="M1.777-.75H3.563a.563.563,0,0,1,.563.563V1.59c0,1.094.315,1.41,1.4,1.41H7.313a.563.563,0,0,1,.563.563V5.347a2.536,2.536,0,0,1-.623,1.907,2.553,2.553,0,0,1-1.912.621H1.777A2.54,2.54,0,0,1-.129,7.254,2.54,2.54,0,0,1-.75,5.347V1.785A2.553,2.553,0,0,1-.129-.127,2.536,2.536,0,0,1,1.777-.75ZM3,.375H1.777C.69.375.375.691.375,1.785V5.347c0,1.088.315,1.4,1.4,1.4H5.34c1.094,0,1.41-.315,1.41-1.4V4.125H5.528A2.536,2.536,0,0,1,3.621,3.5,2.553,2.553,0,0,1,3,1.59Z" transform="translate(1.688 9.188)" fill="#697485" opacity="0.4"/>
      <path id="Vector-2" data-name="Vector" d="M1.777-.75H3.563a.563.563,0,0,1,.563.563V1.59c0,1.094.315,1.41,1.4,1.41H7.313a.563.563,0,0,1,.563.563V5.34a2.549,2.549,0,0,1-.622,1.913,2.549,2.549,0,0,1-1.913.622H1.777A2.536,2.536,0,0,1-.129,7.252,2.553,2.553,0,0,1-.75,5.34V1.777A2.54,2.54,0,0,1-.129-.129,2.54,2.54,0,0,1,1.777-.75ZM3,.375H1.777C.69.375.375.69.375,1.777V5.34c0,1.094.315,1.41,1.4,1.41H5.34c1.094,0,1.41-.316,1.41-1.41V4.125H5.528A2.536,2.536,0,0,1,3.621,3.5,2.553,2.553,0,0,1,3,1.59Z" transform="translate(5.438 5.438)" fill="#697485"/>
      <path id="Vector-3" data-name="Vector" d="M1.777-.75H5.34a2.553,2.553,0,0,1,1.912.621,2.536,2.536,0,0,1,.623,1.907V5.34a2.549,2.549,0,0,1-.622,1.913,2.549,2.549,0,0,1-1.913.622H1.777A2.536,2.536,0,0,1-.129,7.252,2.553,2.553,0,0,1-.75,5.34V1.777A2.54,2.54,0,0,1-.129-.129,2.54,2.54,0,0,1,1.777-.75ZM5.34,6.75c1.094,0,1.41-.316,1.41-1.41V1.777c0-1.088-.316-1.4-1.41-1.4H1.777C.69.375.375.69.375,1.777V5.34c0,1.094.315,1.41,1.4,1.41Z" transform="translate(9.188 1.688)" fill="#697485"/>
      <path id="Vector-4" data-name="Vector" d="M0,0H18V18H0Z" fill="none" opacity="0"/>
    </g>
  </g>
</svg>
