<svg xmlns="http://www.w3.org/2000/svg" width="30" height="30" viewBox="0 0 30 30">
  <g id="_4_-_off" data-name="4 - off" transform="translate(-12879 -7358)" opacity="0.6">
    <rect id="Rectangle_111618" data-name="Rectangle 111618" width="30" height="30" transform="translate(12879 7358)" fill="#fff" opacity="0"/>
    <g id="Beaming_Face_with_Smiling_Eyes" data-name="Beaming Face with Smiling Eyes" transform="translate(12880.229 7359.126)">
      <g id="circle" transform="translate(0 0)">
        <ellipse id="Ellipse_6573" data-name="Ellipse 6573" cx="14.02" cy="14.02" rx="14.02" ry="14.02" fill="#e0e4ec"/>
      </g>
      <g id="mouth" transform="translate(6.832 16.993)">
        <path id="Path_154733" data-name="Path 154733" d="M1515.021,327.5a1.306,1.306,0,0,0-1.519,1.647,7.432,7.432,0,0,0,14.268,0,1.306,1.306,0,0,0-1.519-1.647A27.618,27.618,0,0,1,1515.021,327.5Z" transform="translate(-1513.449 -327.472)" fill="#8d98aa"/>
      </g>
      <g id="eyes" transform="translate(7.227 10.292)">
        <g id="Group_139897" data-name="Group 139897" transform="translate(7.697)">
          <path id="Path_154736" data-name="Path 154736" d="M1610.833,270.429a.705.705,0,0,1-.684-.875c.419-1.688,1.594-2.823,2.923-2.823s2.5,1.134,2.924,2.823a.7.7,0,1,1-1.368.34c-.256-1.032-.9-1.752-1.556-1.752s-1.3.721-1.555,1.753A.705.705,0,0,1,1610.833,270.429Z" transform="translate(-1610.128 -266.732)" fill="#8d98aa"/>
        </g>
        <g id="Group_139898" data-name="Group 139898">
          <path id="Path_154737" data-name="Path 154737" d="M1532.828,270.429a.705.705,0,0,1-.684-.875c.419-1.688,1.594-2.823,2.923-2.823s2.5,1.134,2.924,2.823a.7.7,0,0,1-1.368.34c-.256-1.032-.9-1.752-1.556-1.752s-1.3.721-1.555,1.753A.705.705,0,0,1,1532.828,270.429Z" transform="translate(-1532.123 -266.732)" fill="#8d98aa"/>
        </g>
      </g>
    </g>
  </g>
</svg>
