<svg xmlns="http://www.w3.org/2000/svg" width="30" height="30" viewBox="0 0 30 30">
  <g id="_5_-_on" data-name="5 - on" transform="translate(-12815.448 -7358.448)">
    <rect id="Rectangle_111619" data-name="Rectangle 111619" width="30" height="30" transform="translate(12815.448 7358.448)" fill="none" opacity="0"/>
    <g id="Smiling_Face_with_Heart-Eyes" data-name="Smiling Face with Heart-Eyes" transform="translate(12815.674 7359.16)">
      <g id="circle" transform="translate(0 0)">
        <ellipse id="Ellipse_6555" data-name="Ellipse 6555" cx="14.439" cy="14.439" rx="14.439" ry="14.439" fill="#fdca47"/>
        <path id="Path_154669" data-name="Path 154669" d="M1047.607,611a7.854,7.854,0,0,1,1.04-3.018,9.942,9.942,0,0,1,4.809-4.186,7.8,7.8,0,0,1,3.135-.608c-.928.53-1.8,1.022-2.631,1.574a21.9,21.9,0,0,0-4.429,3.851C1048.869,609.359,1048.26,610.158,1047.607,611Z" transform="translate(-1045.283 -601.427)" fill="#ffe8bb"/>
      </g>
      <path id="mouth" d="M1097.3,754.4a1.313,1.313,0,0,0-1.526,1.656,7.47,7.47,0,0,0,14.341,0,1.313,1.313,0,0,0-1.526-1.656A27.755,27.755,0,0,1,1097.3,754.4Z" transform="translate(-1088.508 -737.244)" fill="#664100"/>
      <path id="Path_154768" data-name="Path 154768" d="M1187.744,596.142a3.643,3.643,0,0,0-2.491-3.642,3.428,3.428,0,0,0-3.327.462,3.561,3.561,0,0,0-2.463-2.383,3.642,3.642,0,0,0-4.174,1.431,3.776,3.776,0,0,0-.55,1.433c-.581,3.206.895,6.281,3.344,9.295a.987.987,0,0,0,1.007.334c3.765-.952,6.786-2.536,8.237-5.453A3.775,3.775,0,0,0,1187.744,596.142Z" transform="translate(-1159.382 -589.932)" fill="#df2540"/>
      <path id="Path_154769" data-name="Path 154769" d="M1029.766,596.142a3.643,3.643,0,0,1,2.491-3.642,3.551,3.551,0,0,1,3.389.483,3.5,3.5,0,0,1,2.4-2.4,3.643,3.643,0,0,1,4.174,1.431,3.776,3.776,0,0,1,.549,1.433c.581,3.206-.895,6.281-3.344,9.295a.987.987,0,0,1-1.007.334c-3.765-.952-6.786-2.536-8.237-5.453A3.777,3.777,0,0,1,1029.766,596.142Z" transform="translate(-1029.251 -589.932)" fill="#df2540"/>
    </g>
  </g>
</svg>
