<svg xmlns="http://www.w3.org/2000/svg" width="136" height="61" viewBox="0 0 136 61">
  <g id="talka_logo" data-name="talka logo" transform="translate(-10769 -14992)">
    <rect id="Rectangle_111891" data-name="Rectangle 111891" width="136" height="61" transform="translate(10769 14992)" fill="#fff" opacity="0"/>
    <g id="Group_154664" data-name="Group 154664" transform="translate(10770 14993)">
      <g id="Group_140095" data-name="Group 140095" transform="translate(0 0)">
        <g id="Group_140094" data-name="Group 140094" transform="translate(15.93 39.813)">
          <g id="Group_140093" data-name="Group 140093">
            <path id="Path_154819" data-name="Path 154819" d="M781,235.839l-.414,4.12h-7l-1.527,15.461H767.63l1.515-15.461h-7.009l.414-4.12Z" transform="translate(-762.136 -235.839)" fill="#f29030"/>
            <path id="Path_154820" data-name="Path 154820" d="M798.218,235.839a2.3,2.3,0,0,0-1.03.32,5.588,5.588,0,0,0-1.208.888,8.618,8.618,0,0,0-1.125,1.3,5.452,5.452,0,0,0-.8,1.563l-1.528,15.509h4.44l.5-5.031h10.466l-.5,5.031h4.428l1.918-19.581Zm10.11,10.383H797.863l.367-3.753a4.224,4.224,0,0,1,.782-1.575,3.562,3.562,0,0,1,1.6-.9h8.335Z" transform="translate(-771.296 -235.839)" fill="#f29030"/>
            <path id="Path_154821" data-name="Path 154821" d="M844.379,251.253l-.414,4.167H831.522a2.155,2.155,0,0,1-1.243-.5,6.08,6.08,0,0,1-1.219-1.291,7.361,7.361,0,0,1-.9-1.716,3.921,3.921,0,0,1-.272-1.752l1.409-14.325h4.427L832.4,249.43a2.227,2.227,0,0,0,1.764,1.823Z" transform="translate(-781.953 -235.839)" fill="#f29030"/>
            <path id="Path_154822" data-name="Path 154822" d="M867.3,245.63l12.513,9.791h-7.2l-10.347-7.92-.77,7.92h-4.428l1.918-19.581h4.428l-.77,7.908,10.241-7.908h7.21Z" transform="translate(-790.756 -235.839)" fill="#f29030"/>
            <path id="Path_154823" data-name="Path 154823" d="M901.106,235.839a2.219,2.219,0,0,0-1.03.32,5.621,5.621,0,0,0-1.208.888,9.466,9.466,0,0,0-1.137,1.3,5.42,5.42,0,0,0-.793,1.563l-1.527,15.509h4.439l.485-5.031H910.8l-.485,5.031h4.427l1.918-19.581Zm10.111,10.383H900.751l.367-3.753a4.224,4.224,0,0,1,.782-1.575,3.566,3.566,0,0,1,1.6-.9h8.334Z" transform="translate(-802.312 -235.839)" fill="#f29030"/>
          </g>
        </g>
        <path id="Path_154824" data-name="Path 154824" d="M870.506,190.015h-.024c-.043,0-.079-.013-.116-.013,0,0-4.567,0-4.567.013h-22.01l1.413-11.169h-8.276l.926,2.277-1.425,11.486s-.025.085-.025.1l-.012.165-2.131,14.634h-6.675l3.795-28.659h-8.3l.938,2.332-3.477,26.327h-6.212l.78-5.134v-.036c.012-.061.012-.14.024-.2l1.011-7.022c0-.024,0-.024.013-.036a4.977,4.977,0,0,0-1.011-3.174v-.024a9.8,9.8,0,0,0-.926-.761,6.026,6.026,0,0,0-1.389-.792,4.392,4.392,0,0,0-1.315-.31c-.414-.036-.84-.049-1.266-.049H792.017l-1.541,10.4s-.664,4.6-.664,4.683l-.378,2.454h-6.26l.932-6.346v-.14l1.127-7.722c.024-.079,0-.14.024-.213l.475-3.271H750.41a1.334,1.334,0,0,0,0,2.668h4.323a1.035,1.035,0,0,1,1.035,1.041,1.047,1.047,0,0,1-1.053,1.023c-1.632.036-3.264.006-4.9.006-1.608,0-3.222,0-4.83.006a3.084,3.084,0,0,0-.816.073,1.192,1.192,0,0,0-.859,1.158,1.211,1.211,0,0,0,1.035,1.188.73.73,0,0,0,.164.036h14.05a.834.834,0,0,1,.262.049.106.106,0,0,0,.049.03.989.989,0,0,1,.262.134.852.852,0,0,1,.225.213,1.069,1.069,0,0,1,.238.664v.048a1.07,1.07,0,0,1-.962,1.066H740.6a1.262,1.262,0,0,0-1.267,1.266,1.24,1.24,0,0,0,1.115,1.225c.025,0,.036.012.061.012h.036c.013,0,.024.013.055.013h15.523a2.387,2.387,0,0,1,.414.024c.572.116,1.023.427,1.035,1.066a1.09,1.09,0,0,1-.914,1.053,5.074,5.074,0,0,1-1.065.061c-2.729,0,.328.013-1.486.013h-7.686a1.164,1.164,0,0,0-1.169,1.163,1.178,1.178,0,0,0,.719,1.09.989.989,0,0,0,.372.091.188.188,0,0,0,.079.013h10.768l-.177,1.2-.694,4.83H869.884l2.175-14.836.688-4.719A2.4,2.4,0,0,0,870.506,190.015Zm-93.19,8.075h-.036l-1.376,9.391v.024H764.374l.688-4.634h.013l.262-1.815h.024l.591-3.965a2.81,2.81,0,0,1,2.789-2.393h9.08Zm30.664,2.278-.627,4.446-.036.238-.025.024-.365,2.43H796.835l.676-4.671H797.5l.365-2.467.451-3.13.378-2.515h6.8a4.539,4.539,0,0,1,2.229,1.017,2.826,2.826,0,0,1,.6,1.5,1.111,1.111,0,0,1,.08.316Zm55.273,7.137H844.026a3.814,3.814,0,0,1-.743-.31,2.043,2.043,0,0,1-.761-.591,2.135,2.135,0,0,1-.378-.761,5.673,5.673,0,0,1-.176-1l1.468-9.927H865.08Z" transform="translate(-739.332 -178.846)" fill="#245389"/>
        <path id="Path_154825" data-name="Path 154825" d="M780.581,239.959h-7l-1.528,15.461h-4.427l1.515-15.461h-7.009l.415-4.12H781ZM802.7,255.42h-4.428l.5-5.031H788.3l-.5,5.031h-4.44l1.528-15.509a5.454,5.454,0,0,1,.8-1.563,8.611,8.611,0,0,1,1.125-1.3,5.586,5.586,0,0,1,1.208-.888,2.3,2.3,0,0,1,1.03-.32h15.556Zm21.452,0H811.705a2.155,2.155,0,0,1-1.244-.5,6.08,6.08,0,0,1-1.219-1.291,7.354,7.354,0,0,1-.9-1.716,3.921,3.921,0,0,1-.272-1.752l1.409-14.325h4.428l-1.326,13.591a2.227,2.227,0,0,0,1.764,1.823h10.217Zm27.051,0H844l-10.347-7.92-.769,7.92h-4.428l1.918-19.581H834.8l-.769,7.908,10.24-7.908h7.21l-12.8,9.791Zm23.369,0h-4.427l.485-5.031H860.161l-.486,5.031h-4.439l1.527-15.509a5.417,5.417,0,0,1,.793-1.563,9.458,9.458,0,0,1,1.137-1.3,5.622,5.622,0,0,1,1.208-.888,2.219,2.219,0,0,1,1.03-.32h15.556Z" transform="translate(-746.206 -196.026)" fill="none"/>
      </g>
      <path id="Path_154826" data-name="Path 154826" d="M762.551,235.839H781l-.414,4.12h-7l-1.527,15.461H767.63l1.515-15.461h-7.009Z" transform="translate(-746.206 -196.026)" fill="none"/>
      <path id="Path_154827" data-name="Path 154827" d="M798.218,235.839h15.556l-1.918,19.581h-4.428l.5-5.031H797.46l-.5,5.031h-4.44l1.528-15.509a5.452,5.452,0,0,1,.8-1.563,8.618,8.618,0,0,1,1.125-1.3,5.588,5.588,0,0,1,1.208-.888A2.3,2.3,0,0,1,798.218,235.839Z" transform="translate(-755.366 -196.026)" fill="none"/>
      <path id="Path_154828" data-name="Path 154828" d="M834.162,251.253h10.217l-.414,4.167H831.522a2.155,2.155,0,0,1-1.243-.5,6.08,6.08,0,0,1-1.219-1.291,7.361,7.361,0,0,1-.9-1.716,3.921,3.921,0,0,1-.272-1.752l1.409-14.325h4.427L832.4,249.43A2.227,2.227,0,0,0,834.162,251.253Z" transform="translate(-766.023 -196.026)" fill="none"/>
      <path id="Path_154829" data-name="Path 154829" d="M880.1,235.839l-12.8,9.791,12.513,9.791h-7.2l-10.347-7.92-.77,7.92h-4.428l1.918-19.581h4.428l-.77,7.908,10.241-7.908Z" transform="translate(-774.826 -196.026)" fill="none"/>
      <path id="Path_154830" data-name="Path 154830" d="M916.662,235.839l-1.918,19.581h-4.427l.485-5.031H900.337l-.485,5.031h-4.439l1.527-15.509a5.42,5.42,0,0,1,.793-1.563,9.466,9.466,0,0,1,1.137-1.3,5.621,5.621,0,0,1,1.208-.888,2.219,2.219,0,0,1,1.03-.32Z" transform="translate(-786.382 -196.026)" fill="none"/>
      <g id="Group_140096" data-name="Group 140096" transform="translate(30.808)">
        <path id="Path_154831" data-name="Path 154831" d="M817.08,185.039h7.233l.9-6.183.055-.01H816.95l.9.9Z" transform="translate(-793.538 -178.846)" fill="#245389"/>
        <path id="Path_154832" data-name="Path 154832" d="M831.309,185.039h7.233l.9-6.193h-8.481l1.09,1.09Z" transform="translate(-797.762 -178.846)" fill="#245389"/>
        <path id="Path_154833" data-name="Path 154833" d="M783.619,185.039h7.233l.9-6.193h-8.318l.947.947Z" transform="translate(-783.435 -178.846)" fill="#245389"/>
        <path id="Path_154834" data-name="Path 154834" d="M797.431,185.039h7.233l.9-6.175.018,0v-.015H797.34l.866.866Z" transform="translate(-787.627 -178.846)" fill="#245389"/>
      </g>
    </g>
  </g>
</svg>
