<svg id="Group_140097" data-name="Group 140097" xmlns="http://www.w3.org/2000/svg" width="115.256" height="51.298" viewBox="0 0 115.256 51.298">
  <g id="Group_140095" data-name="Group 140095" transform="translate(0 0)">
    <g id="Group_140094" data-name="Group 140094" transform="translate(13.759 34.386)">
      <g id="Group_140093" data-name="Group 140093">
        <path id="Path_154819" data-name="Path 154819" d="M778.425,235.839l-.358,3.558h-6.043l-1.319,13.354h-3.824L768.19,239.4h-6.053l.358-3.558Z" transform="translate(-762.136 -235.839)" fill="#f29030"/>
        <path id="Path_154820" data-name="Path 154820" d="M797.441,235.839a1.986,1.986,0,0,0-.889.276,4.826,4.826,0,0,0-1.043.767,7.447,7.447,0,0,0-.971,1.125,4.711,4.711,0,0,0-.695,1.35l-1.32,13.395h3.835l.429-4.345h9.039l-.43,4.345h3.825l1.656-16.912Zm8.732,8.967h-9.039l.317-3.241a3.646,3.646,0,0,1,.675-1.36,3.076,3.076,0,0,1,1.38-.777h7.2Z" transform="translate(-774.19 -235.839)" fill="#f29030"/>
        <path id="Path_154821" data-name="Path 154821" d="M842.129,249.152l-.358,3.6H831.025a1.861,1.861,0,0,1-1.074-.429,5.249,5.249,0,0,1-1.053-1.115,6.356,6.356,0,0,1-.777-1.482,3.388,3.388,0,0,1-.235-1.513l1.217-12.373h3.824l-1.145,11.738a1.924,1.924,0,0,0,1.523,1.575Z" transform="translate(-788.212 -235.839)" fill="#f29030"/>
        <path id="Path_154822" data-name="Path 154822" d="M865.911,244.3l10.808,8.456H870.5l-8.937-6.841-.665,6.841h-3.824l1.657-16.912h3.824l-.665,6.83,8.845-6.83h6.227Z" transform="translate(-799.796 -235.839)" fill="#f29030"/>
        <path id="Path_154823" data-name="Path 154823" d="M900.33,235.839a1.917,1.917,0,0,0-.889.276,4.855,4.855,0,0,0-1.043.767,8.165,8.165,0,0,0-.982,1.125,4.679,4.679,0,0,0-.685,1.35l-1.319,13.395h3.834l.419-4.345H908.7l-.419,4.345h3.824l1.656-16.912Zm8.733,8.967h-9.039l.317-3.241a3.646,3.646,0,0,1,.675-1.36,3.078,3.078,0,0,1,1.38-.777h7.2Z" transform="translate(-815.002 -235.839)" fill="#f29030"/>
      </g>
    </g>
    <path id="Path_154824" data-name="Path 154824" d="M852.626,188.493h-.021c-.037,0-.068-.011-.1-.011,0,0-3.945,0-3.945.011h-19.01l1.221-9.647h-7.148l.8,1.967-1.231,9.921s-.021.074-.021.084l-.01.142L821.319,203.6h-5.765l3.277-24.753h-7.169l.81,2.015-3,22.739H804.1l.673-4.434v-.031c.01-.053.01-.121.021-.174l.873-6.065c0-.021,0-.021.011-.031a4.3,4.3,0,0,0-.874-2.741v-.02a8.442,8.442,0,0,0-.8-.658,5.2,5.2,0,0,0-1.2-.684,3.793,3.793,0,0,0-1.136-.268c-.358-.031-.726-.042-1.094-.042H784.836l-1.331,8.984s-.573,3.971-.573,4.045l-.326,2.12H777.2l.8-5.481V198l.973-6.669c.021-.068,0-.121.021-.184l.41-2.825H748.9a1.152,1.152,0,0,0,0,2.3h3.734a.894.894,0,0,1,.894.9.9.9,0,0,1-.91.884c-1.409.031-2.819.005-4.229.005-1.389,0-2.783,0-4.171.005a2.663,2.663,0,0,0-.7.063,1.029,1.029,0,0,0-.742,1,1.046,1.046,0,0,0,.894,1.026.633.633,0,0,0,.142.031h12.135a.72.72,0,0,1,.226.042.091.091,0,0,0,.042.026.852.852,0,0,1,.226.116.735.735,0,0,1,.194.184.923.923,0,0,1,.205.574v.042a.924.924,0,0,1-.831.921h-15.58a1.09,1.09,0,0,0-1.094,1.094,1.071,1.071,0,0,0,.963,1.058c.021,0,.031.01.053.01h.031c.011,0,.021.011.048.011h13.407a2.062,2.062,0,0,1,.358.021c.494.1.884.369.894.921a.942.942,0,0,1-.789.91,4.384,4.384,0,0,1-.92.053c-2.357,0,.284.011-1.284.011h-6.638a1.006,1.006,0,0,0-1.01,1,1.017,1.017,0,0,0,.621.942.854.854,0,0,0,.321.078.162.162,0,0,0,.068.011h9.3L754.6,203.6l-.6,4.171h98.087l1.878-12.814.594-4.076A2.077,2.077,0,0,0,852.626,188.493Zm-80.488,6.975h-.031l-1.188,8.111v.021h-9.957l.594-4h.011l.226-1.567h.021l.51-3.425a2.427,2.427,0,0,1,2.409-2.067h7.843Zm26.484,1.967-.542,3.84-.031.205-.021.021-.316,2.1H789l.583-4.034h-.01l.316-2.13.389-2.7.326-2.173h5.87a3.922,3.922,0,0,1,1.925.878,2.441,2.441,0,0,1,.515,1.294.955.955,0,0,1,.069.273Zm47.739,6.164H829.756a3.3,3.3,0,0,1-.641-.268,1.762,1.762,0,0,1-.658-.51,1.844,1.844,0,0,1-.326-.658,4.894,4.894,0,0,1-.152-.868l1.268-8.574H847.94Z" transform="translate(-739.332 -178.846)" fill="#fff"/>
    <path id="Path_154825" data-name="Path 154825" d="M778.067,239.4h-6.043l-1.32,13.354h-3.824l1.309-13.354h-6.053l.358-3.559h15.931Zm19.1,13.354h-3.825l.43-4.345h-9.039l-.429,4.345H780.47l1.32-13.395a4.71,4.71,0,0,1,.7-1.35,7.436,7.436,0,0,1,.971-1.125,4.828,4.828,0,0,1,1.043-.767,1.986,1.986,0,0,1,.889-.276h13.436Zm18.528,0H804.949a1.861,1.861,0,0,1-1.074-.429,5.251,5.251,0,0,1-1.053-1.115,6.354,6.354,0,0,1-.777-1.482,3.388,3.388,0,0,1-.235-1.513l1.217-12.373h3.824l-1.145,11.738a1.924,1.924,0,0,0,1.523,1.575h8.824Zm23.364,0h-6.217l-8.937-6.841-.664,6.841h-3.825l1.657-16.912H824.9l-.664,6.83,8.844-6.83H839.3L828.251,244.3Zm20.184,0H855.42l.419-4.345H846.8l-.419,4.345h-3.834l1.319-13.395a4.677,4.677,0,0,1,.685-1.35,8.161,8.161,0,0,1,.982-1.125,4.855,4.855,0,0,1,1.043-.767,1.917,1.917,0,0,1,.889-.276H860.9Z" transform="translate(-748.377 -201.453)" fill="none"/>
  </g>
  <path id="Path_154826" data-name="Path 154826" d="M762.494,235.839h15.931l-.358,3.558h-6.043l-1.319,13.354h-3.824L768.19,239.4h-6.053Z" transform="translate(-748.378 -201.453)" fill="none"/>
  <path id="Path_154827" data-name="Path 154827" d="M797.441,235.839h13.436l-1.656,16.912H805.4l.43-4.345h-9.039l-.429,4.345h-3.835l1.32-13.395a4.711,4.711,0,0,1,.695-1.35,7.447,7.447,0,0,1,.971-1.125,4.826,4.826,0,0,1,1.043-.767A1.986,1.986,0,0,1,797.441,235.839Z" transform="translate(-760.431 -201.453)" fill="none"/>
  <path id="Path_154828" data-name="Path 154828" d="M833.3,249.152h8.824l-.358,3.6H831.025a1.861,1.861,0,0,1-1.074-.429,5.249,5.249,0,0,1-1.053-1.115,6.356,6.356,0,0,1-.777-1.482,3.388,3.388,0,0,1-.235-1.513l1.217-12.373h3.824l-1.145,11.738A1.924,1.924,0,0,0,833.3,249.152Z" transform="translate(-774.454 -201.453)" fill="none"/>
  <path id="Path_154829" data-name="Path 154829" d="M876.964,235.839,865.911,244.3l10.808,8.456H870.5l-8.937-6.841-.665,6.841h-3.824l1.657-16.912h3.824l-.665,6.83,8.845-6.83Z" transform="translate(-786.037 -201.453)" fill="none"/>
  <path id="Path_154830" data-name="Path 154830" d="M913.765,235.839l-1.656,16.912h-3.824l.419-4.345h-9.039l-.419,4.345h-3.834l1.319-13.395a4.679,4.679,0,0,1,.685-1.35,8.165,8.165,0,0,1,.982-1.125,4.855,4.855,0,0,1,1.043-.767,1.917,1.917,0,0,1,.889-.276Z" transform="translate(-801.243 -201.453)" fill="none"/>
  <g id="Group_140096" data-name="Group 140096" transform="translate(26.609)">
    <path id="Path_154831" data-name="Path 154831" d="M817.063,184.195h6.247l.777-5.34.047-.009H816.95l.778.778Z" transform="translate(-796.729 -178.846)" fill="#fff"/>
    <path id="Path_154832" data-name="Path 154832" d="M831.262,184.195h6.247l.778-5.349h-7.325l.942.942Z" transform="translate(-802.287 -178.846)" fill="#fff"/>
    <path id="Path_154833" data-name="Path 154833" d="M783.594,184.195h6.247l.778-5.349h-7.184l.818.818Z" transform="translate(-783.435 -178.846)" fill="#fff"/>
    <path id="Path_154834" data-name="Path 154834" d="M797.418,184.2h6.247l.775-5.333.016,0v-.013H797.34l.748.748Z" transform="translate(-788.951 -178.846)" fill="#fff"/>
  </g>
</svg>
