<svg xmlns="http://www.w3.org/2000/svg" width="20" height="20" viewBox="0 0 20 20">
  <g id="vuesax_twotone_box" data-name="vuesax/twotone/box" transform="translate(-556 -188)">
    <g id="box" transform="translate(556 188)">
      <g id="Group_139" data-name="Group 139" transform="translate(1.367 1.042)" opacity="0.4">
        <path id="Vector" d="M7.233,4.758a.625.625,0,0,1-.313-.084L-.438.416A.625.625,0,0,1-.666-.438.625.625,0,0,1,.188-.666L7.233,3.411l7-4.052a.625.625,0,0,1,.854.228.625.625,0,0,1-.228.854L7.547,4.674A.625.625,0,0,1,7.233,4.758Z" transform="translate(1.4 5.283)" fill="#697485"/>
        <path id="Vector-2" data-name="Vector" d="M-.125,8.058A.625.625,0,0,1-.75,7.433V-.125A.625.625,0,0,1-.125-.75.625.625,0,0,1,.5-.125V7.433A.625.625,0,0,1-.125,8.058Z" transform="translate(8.758 9.533)" fill="#697485"/>
        <path id="Vector-3" data-name="Vector" d="M7.884-.75a4.258,4.258,0,0,1,2.036.479L14.37,2.2a4.543,4.543,0,0,1,2.155,3.655v4.708a4.543,4.543,0,0,1-2.156,3.655L9.92,16.7a4.275,4.275,0,0,1-2.033.473A4.274,4.274,0,0,1,5.856,16.7L1.4,14.221A4.543,4.543,0,0,1-.75,10.567V5.858A4.543,4.543,0,0,1,1.406,2.2L5.855-.271A4.219,4.219,0,0,1,7.884-.75Zm0,16.669A3.06,3.06,0,0,0,9.314,15.6l4.449-2.474a3.333,3.333,0,0,0,1.512-2.562V5.858A3.333,3.333,0,0,0,13.764,3.3L9.313.821A3.043,3.043,0,0,0,7.884.5a3.006,3.006,0,0,0-1.42.32L2.012,3.3A3.333,3.333,0,0,0,.5,5.858v4.708a3.333,3.333,0,0,0,1.511,2.562L6.462,15.6A3.06,3.06,0,0,0,7.887,15.919Z" transform="translate(0.75 0.75)" fill="#697485"/>
      </g>
      <path id="Vector-4" data-name="Vector" d="M7.783,8.117a.625.625,0,0,1-.625-.625V4.8L-.438.416A.625.625,0,0,1-.666-.438.625.625,0,0,1,.188-.666L8.1,3.9a.625.625,0,0,1,.312.541v3.05A.625.625,0,0,1,7.783,8.117Z" transform="translate(6.383 3.542)" fill="#697485"/>
      <path id="Vector-5" data-name="Vector" d="M0,0H20V20H0Z" fill="none" opacity="0"/>
    </g>
  </g>
</svg>
