<svg xmlns="http://www.w3.org/2000/svg" width="20" height="20" viewBox="0 0 20 20">
  <g id="vuesax_twotone_monitor-mobbile" data-name="vuesax/twotone/monitor-mobbile" transform="translate(-556 -190)">
    <g id="monitor-mobbile" transform="translate(556 190)">
      <path id="Vector" d="M6.542,12.517H3.383a4.505,4.505,0,0,1-3.249-.884A4.505,4.505,0,0,1-.75,8.383v-5A4.505,4.505,0,0,1,.134.134,4.505,4.505,0,0,1,3.383-.75h8.775a4.505,4.505,0,0,1,3.249.884,4.505,4.505,0,0,1,.884,3.249.625.625,0,1,1-1.25,0c0-1.295-.155-2-.518-2.365S13.453.5,12.158.5H3.383c-1.295,0-2,.155-2.365.518S.5,2.088.5,3.383v5c0,1.295.155,2,.518,2.365s1.07.518,2.365.518H6.542a.625.625,0,0,1,0,1.25Z" transform="translate(1.792 2.233)" fill="#8d98aa"/>
      <path id="Vector-2" data-name="Vector" d="M-.125,4.267A.625.625,0,0,1-.75,3.642V-.125A.625.625,0,0,1-.125-.75.625.625,0,0,1,.5-.125V3.642A.625.625,0,0,1-.125,4.267Z" transform="translate(8.458 14.25)" fill="#8d98aa"/>
      <path id="Vector-3" data-name="Vector" d="M6.542.5H-.125A.625.625,0,0,1-.75-.125.625.625,0,0,1-.125-.75H6.542a.625.625,0,0,1,.625.625A.625.625,0,0,1,6.542.5Z" transform="translate(1.792 10.917)" fill="#8d98aa" opacity="0.4"/>
      <path id="Vector-4" data-name="Vector" d="M2.592.5H-.125A.625.625,0,0,1-.75-.125.625.625,0,0,1-.125-.75H2.592a.625.625,0,0,1,.625.625A.625.625,0,0,1,2.592.5Z" transform="translate(5.742 18.017)" fill="#8d98aa"/>
      <path id="Vector-5" data-name="Vector" d="M2.342-.75H5.3a3.318,3.318,0,0,1,2.416.676,3.318,3.318,0,0,1,.676,2.416V7.1a3.318,3.318,0,0,1-.676,2.416,3.318,3.318,0,0,1-2.416.676H2.342A3.318,3.318,0,0,1-.074,9.516,3.318,3.318,0,0,1-.75,7.1V2.342A3.318,3.318,0,0,1-.074-.074,3.318,3.318,0,0,1,2.342-.75ZM5.3,8.942c.845,0,1.318-.1,1.532-.31s.31-.687.31-1.532V2.342c0-.845-.1-1.318-.31-1.532S6.145.5,5.3.5H2.342C1.5.5,1.024.6.81.81S.5,1.5.5,2.342V7.1c0,.845.1,1.318.31,1.532s.687.31,1.532.31Z" transform="translate(10.567 8.325)" fill="#8d98aa"/>
      <path id="Vector-6" data-name="Vector" d="M.335,1.167H.328A.833.833,0,1,1,.328-.5H.335a.833.833,0,0,1,0,1.667Z" transform="translate(14.043 14.875)" fill="#8d98aa" opacity="0.4"/>
      <path id="Vector-7" data-name="Vector" d="M0,0H20V20H0Z" fill="none" opacity="0"/>
    </g>
  </g>
</svg>
