<svg xmlns="http://www.w3.org/2000/svg" width="13" height="13" viewBox="0 0 13 13">
  <g id="vuesax_bulk_call-calling" data-name="vuesax/bulk/call-calling" transform="translate(-172 -188)">
    <g id="call-calling" transform="translate(172 188)">
      <path id="Vector" d="M2.367,2.79a.417.417,0,0,1-.417-.417,1.885,1.885,0,0,0-.536-.98,1.512,1.512,0,0,0-1-.558A.417.417,0,1,1,.417,0,2.3,2.3,0,0,1,2.026.818,2.556,2.556,0,0,1,2.79,2.367.423.423,0,0,1,2.367,2.79Z" transform="translate(7.177 3.033)" fill="#F29030"/>
      <path id="Vector-2" data-name="Vector" d="M4.317,4.74A.417.417,0,0,1,3.9,4.322,3.487,3.487,0,0,0,.417.84.42.42,0,0,1,.412,0,4.328,4.328,0,0,1,4.734,4.322.421.421,0,0,1,4.317,4.74Z" transform="translate(7.182 1.083)" fill="#F29030"/>
      <path id="Vector-3" data-name="Vector" d="M5.3,6.614,3.532,8.385q-.292-.26-.569-.536A15.391,15.391,0,0,1,1.452,6.078,9.657,9.657,0,0,1,.39,4.23,4.562,4.562,0,0,1,0,2.459,2.8,2.8,0,0,1,.195,1.414a2.493,2.493,0,0,1,.623-.9A1.587,1.587,0,0,1,1.945,0a1.018,1.018,0,0,1,.439.1.883.883,0,0,1,.363.3L4,2.172a1.854,1.854,0,0,1,.217.379.856.856,0,0,1,.076.33.735.735,0,0,1-.114.385,1.842,1.842,0,0,1-.3.385l-.412.428A.29.29,0,0,0,3.38,4.3.492.492,0,0,0,3.4,4.42c.016.043.032.076.043.108a4.5,4.5,0,0,0,.5.693c.244.282.5.569.785.856C4.924,6.267,5.113,6.451,5.3,6.614Z" transform="translate(1.083 1.083)" fill="#F29030" opacity="0.4"/>
      <path id="Vector-4" data-name="Vector" d="M6.7,2.324a1.376,1.376,0,0,1-.081.46,1.323,1.323,0,0,1-.054.13,2.235,2.235,0,0,1-.368.553,2.442,2.442,0,0,1-.888.639c-.005,0-.011.005-.016.005a2.736,2.736,0,0,1-1.04.2,4.514,4.514,0,0,1-1.766-.4A9.514,9.514,0,0,1,.623,2.844C.412,2.687.2,2.53,0,2.362L1.771.59a3.043,3.043,0,0,0,.4.26c.027.011.06.027.1.043A.374.374,0,0,0,2.4.915.3.3,0,0,0,2.627.823L3.039.417a1.662,1.662,0,0,1,.39-.3A.721.721,0,0,1,3.813,0a.864.864,0,0,1,.33.07,2.1,2.1,0,0,1,.379.211L6.316,1.555a.822.822,0,0,1,.3.347A1.111,1.111,0,0,1,6.7,2.324Z" transform="translate(5.2 7.605)" fill="#F29030"/>
      <path id="Vector-5" data-name="Vector" d="M0,0H13V13H0Z" fill="none" opacity="0"/>
    </g>
  </g>
</svg>
