<svg xmlns="http://www.w3.org/2000/svg" width="20" height="20" viewBox="0 0 20 20">
  <g id="vuesax_twotone_call-calling" data-name="vuesax/twotone/call-calling" transform="translate(-172 -188)">
    <g id="call-calling" transform="translate(172 188)">
      <path id="Vector" d="M12.747,17.162A7.582,7.582,0,0,1,9.786,16.5,15.308,15.308,0,0,1,6.8,14.785a24.734,24.734,0,0,1-2.8-2.394l0,0A24.409,24.409,0,0,1,1.6,9.59,15.529,15.529,0,0,1-.1,6.626,7.671,7.671,0,0,1-.75,3.657a4.931,4.931,0,0,1,.345-1.84A4.464,4.464,0,0,1,.7.208,3.043,3.043,0,0,1,2.866-.75a2.2,2.2,0,0,1,.941.209,1.98,1.98,0,0,1,.8.673L6.54,2.853a3.462,3.462,0,0,1,.4.7,1.917,1.917,0,0,1,.165.75,1.742,1.742,0,0,1-.261.908,3.452,3.452,0,0,1-.559.713l-.574.6.022.054a6.508,6.508,0,0,0,.68.922c.409.473.794.892,1.175,1.281.509.5.906.866,1.287,1.19a5.862,5.862,0,0,0,.939.678l.049.022.576-.568a3.156,3.156,0,0,1,.731-.566,1.716,1.716,0,0,1,.9-.255,1.94,1.94,0,0,1,.745.155,3.825,3.825,0,0,1,.7.387l.01.007,2.755,1.956a1.893,1.893,0,0,1,.671.793l.008.02a2.34,2.34,0,0,1,.178.882,2.734,2.734,0,0,1-.268,1.175,4.039,4.039,0,0,1-.669,1A4.353,4.353,0,0,1,14.608,16.8,4.818,4.818,0,0,1,12.747,17.162ZM4.874,11.505a23.477,23.477,0,0,0,2.659,2.27,14.057,14.057,0,0,0,2.742,1.579,6.348,6.348,0,0,0,2.471.558,3.579,3.579,0,0,0,1.384-.269,3.136,3.136,0,0,0,1.144-.826,2.807,2.807,0,0,0,.464-.7,1.494,1.494,0,0,0,.148-.641,1.077,1.077,0,0,0-.084-.407.642.642,0,0,0-.238-.262l-.006,0-2.753-1.954a2.6,2.6,0,0,0-.463-.26.721.721,0,0,0-.272-.062.489.489,0,0,0-.267.084l-.036.02a1.968,1.968,0,0,0-.447.354l-.636.628a1.084,1.084,0,0,1-.78.322,1.2,1.2,0,0,1-.428-.073l-.027-.011-.089-.04-.047-.021-.031-.012-.029-.016a7.013,7.013,0,0,1-1.186-.842c-.407-.345-.826-.732-1.359-1.256L6.7,9.66c-.4-.41-.806-.85-1.235-1.345l0-.005a7.5,7.5,0,0,1-.846-1.171L4.59,7.09l-.018-.053c0-.011-.01-.024-.016-.038-.014-.033-.028-.068-.043-.107L4.5,6.859l-.009-.035a1.38,1.38,0,0,1-.044-.343,1.072,1.072,0,0,1,.311-.77L5.4,5.048a2.245,2.245,0,0,0,.364-.457l.01-.017a.515.515,0,0,0,.084-.267.725.725,0,0,0-.066-.262l0-.01a2.237,2.237,0,0,0-.262-.455l0,0L3.585.847A.737.737,0,0,0,3.279.592l-.009,0A.939.939,0,0,0,2.866.5a1.82,1.82,0,0,0-1.295.6l-.01.009A3.229,3.229,0,0,0,.756,2.278,3.692,3.692,0,0,0,.5,3.657a6.432,6.432,0,0,0,.551,2.482A14.272,14.272,0,0,0,2.615,8.858,23.146,23.146,0,0,0,4.874,11.505Z" transform="translate(1.794 1.794)" fill="#8d98aa"/>
      <path id="Vector-2" data-name="Vector" d="M2.8,3.425A.626.626,0,0,1,2.173,2.8a2.8,2.8,0,0,0-.809-1.468A2.255,2.255,0,0,0-.124.5.626.626,0,0,1-.75-.124.626.626,0,0,1-.124-.75,3.439,3.439,0,0,1,2.281.477,3.863,3.863,0,0,1,3.425,2.8.626.626,0,0,1,2.8,3.425Z" transform="translate(12.619 4.706)" fill="#8d98aa" opacity="0.4"/>
      <path id="Vector-3" data-name="Vector" d="M5.721,6.348A.626.626,0,0,1,5.1,5.721,5.225,5.225,0,0,0-.124.5.626.626,0,0,1-.75-.124.626.626,0,0,1-.124-.75,6.43,6.43,0,0,1,4.453,1.144,6.43,6.43,0,0,1,6.348,5.721.626.626,0,0,1,5.721,6.348Z" transform="translate(12.609 1.794)" fill="#8d98aa" opacity="0.4"/>
      <path id="Vector-4" data-name="Vector" d="M0,0H20V20H0Z" fill="none" opacity="0"/>
    </g>
  </g>
</svg>
