<svg id="vuesax_twotone_camera" data-name="vuesax/twotone/camera" xmlns="http://www.w3.org/2000/svg" width="40" height="40" viewBox="0 0 40 40">
  <g id="camera">
    <path id="Vector" d="M25.5,35.083H8.03a7.709,7.709,0,0,1-5.887-2.233A8.148,8.148,0,0,1,.132,27.656L-.734,13.9a7.414,7.414,0,0,1,2.011-5.6A7.547,7.547,0,0,1,6.763,5.917a1.494,1.494,0,0,0,1.3-.8l1.194-2.4,0-.008a6.783,6.783,0,0,1,5.6-3.453H18.68A6.769,6.769,0,0,1,24.262,2.7l0,.008,1.194,2.4a1.494,1.494,0,0,0,1.3.8A7.547,7.547,0,0,1,32.25,8.293a7.415,7.415,0,0,1,2.011,5.6l-.867,13.764a8.215,8.215,0,0,1-2.016,5.188A7.694,7.694,0,0,1,25.5,35.083ZM11.5,3.827,10.3,6.239l-.01.019A3.966,3.966,0,0,1,6.763,8.417a5.005,5.005,0,0,0-5,5.319L2.628,27.5c.2,3.372,2.014,5.079,5.4,5.079H25.5c3.372,0,5.19-1.709,5.4-5.079l.867-13.766a5.005,5.005,0,0,0-5-5.321,3.966,3.966,0,0,1-3.526-2.158l-.01-.019-1.2-2.412A4.257,4.257,0,0,0,18.68,1.75H14.863A4.272,4.272,0,0,0,11.5,3.827Z" transform="translate(3.237 2.833)" fill="#bac1cc"/>
    <path id="Vector-2" data-name="Vector" d="M5.5,1.75H.5a1.25,1.25,0,0,1,0-2.5h5a1.25,1.25,0,0,1,0,2.5Z" transform="translate(17 12.833)" fill="#bac1cc" opacity="0.4"/>
    <path id="Vector-3" data-name="Vector" d="M5.917,12.583a6.667,6.667,0,1,1,6.667-6.667A6.674,6.674,0,0,1,5.917,12.583Zm0-10.833a4.167,4.167,0,1,0,4.167,4.167A4.171,4.171,0,0,0,5.917,1.75Z" transform="translate(14.083 18.667)" fill="#bac1cc" opacity="0.4"/>
    <path id="Vector-4" data-name="Vector" d="M0,0H40V40H0Z" fill="none" opacity="0"/>
  </g>
</svg>
