<svg id="vuesax_twotone_bag-2" data-name="vuesax/twotone/bag-2" xmlns="http://www.w3.org/2000/svg" width="18" height="18" viewBox="0 0 18 18">
  <g id="bag-2">
    <path id="Vector" d="M6.589,4.806a.565.565,0,0,1-.565-.565V3.2A2.833,2.833,0,0,0,5.1,1.11,2.791,2.791,0,0,0,2.925.393,3.035,3.035,0,0,0,.379,3.346v.73a.565.565,0,0,1-.565.565A.565.565,0,0,1-.75,4.076v-.73A4.161,4.161,0,0,1,2.818-.731,3.952,3.952,0,0,1,7.153,3.2V4.242A.565.565,0,0,1,6.589,4.806Z" transform="translate(5.798 1.697)" fill="#697485" opacity="0.4"/>
    <path id="Vector-2" data-name="Vector" d="M8.617,10.917h-4.5a4.759,4.759,0,0,1-3.3-.938A3.4,3.4,0,0,1-.146,7.731L-.707,3.219V3.211A3.5,3.5,0,0,1-.043.37,4.362,4.362,0,0,1,3.372-.75H9.366A4.362,4.362,0,0,1,12.782.37a3.5,3.5,0,0,1,.665,2.841v.008l-.561,4.512a3.4,3.4,0,0,1-.963,2.248A4.759,4.759,0,0,1,8.617,10.917ZM.409,3.083.97,7.6v.01a2.242,2.242,0,0,0,.6,1.54,3.775,3.775,0,0,0,2.546.643h4.5a3.775,3.775,0,0,0,2.546-.643,2.242,2.242,0,0,0,.6-1.54V7.6l.561-4.512a2.435,2.435,0,0,0-.386-1.96A3.43,3.43,0,0,0,9.366.379H3.372a3.43,3.43,0,0,0-2.578.744A2.435,2.435,0,0,0,.409,3.083Z" transform="translate(2.631 6.142)" fill="#697485"/>
    <path id="Vector-3" data-name="Vector" d="M.254,1.005H.247A.753.753,0,1,1,.247-.5H.254a.753.753,0,0,1,0,1.505Z" transform="translate(11.374 8.747)" fill="#697485" opacity="0.4"/>
    <path id="Vector-4" data-name="Vector" d="M.254,1.005H.247A.753.753,0,1,1,.247-.5H.254a.753.753,0,0,1,0,1.505Z" transform="translate(6.125 8.747)" fill="#697485" opacity="0.4"/>
    <path id="Vector-5" data-name="Vector" d="M0,0H18V18H0Z" fill="none" opacity="0"/>
  </g>
</svg>
