<svg xmlns="http://www.w3.org/2000/svg" width="24" height="24" viewBox="0 0 24 24">
  <g id="wallet-money" transform="translate(-108 -380)">
    <path id="Vector" d="M0,0H24V24H0Z" transform="translate(132 404) rotate(180)" fill="none" opacity="0"/>
    <g id="payment-method" transform="translate(109.627 381.981)">
      <g id="Group_137889" data-name="Group 137889" transform="translate(6.19 15.577)">
        <g id="Group_137888" data-name="Group 137888">
          <path id="Path_153543" data-name="Path 153543" d="M153.552,384.183a.421.421,0,0,0-.023-.076.41.41,0,0,0-.037-.07.395.395,0,0,0-.112-.112.4.4,0,0,0-.07-.037.38.38,0,0,0-.076-.023.4.4,0,0,0-.158,0,.392.392,0,0,0-.076.023.411.411,0,0,0-.07.037.4.4,0,0,0-.149.182.392.392,0,0,0-.023.076.389.389,0,0,0,0,.158.413.413,0,0,0,.06.146.395.395,0,0,0,.112.112.409.409,0,0,0,.07.037.394.394,0,0,0,.076.023.39.39,0,0,0,.158,0,.382.382,0,0,0,.076-.023.4.4,0,0,0,.07-.037.395.395,0,0,0,.112-.112.4.4,0,0,0,.037-.07.407.407,0,0,0,.023-.076.389.389,0,0,0,0-.158Z" transform="translate(-152.75 -383.857)" fill="#697485"/>
        </g>
      </g>
      <g id="Group_137891" data-name="Group 137891" transform="translate(0 12.581)">
        <g id="Group_137890" data-name="Group 137890">
          <path id="Path_153544" data-name="Path 153544" d="M18.64,313.369l0-.012a1.685,1.685,0,0,0-2.283-.842l-2.823.781a1.851,1.851,0,0,0-1.146-1.129l-.011,0-3.1-1.053a3.2,3.2,0,0,0-2.582-1.188,3.241,3.241,0,0,0-2.531,1.518H.405a.405.405,0,0,0-.405.405v5.109a.405.405,0,0,0,.405.405H2.815a.405.405,0,0,0,.405-.405v-.35H4.35a.405.405,0,0,0,.405-.405v-.117a2.873,2.873,0,0,1,1.48.531,24.533,24.533,0,0,0,2.434,1.243l.018.008a3.638,3.638,0,0,0,1.3.246,3.23,3.23,0,0,0,1.343-.287l6.24-2.234.033-.013A1.73,1.73,0,0,0,18.64,313.369Zm-16.231,3.18H.81v-4.3h1.6Zm1.535-.755H3.22V312.25h.725Zm13.338-.962-6.237,2.233-.018.007-.016.007a2.626,2.626,0,0,1-2.018.034,23.466,23.466,0,0,1-2.353-1.2,3.648,3.648,0,0,0-1.885-.641v-3.264a2.5,2.5,0,0,1,1.932-1.274,2.338,2.338,0,0,1,1.984.932.405.405,0,0,0,.215.172l3.221,1.093A.909.909,0,0,1,12.767,314a.79.79,0,0,1-.97.545L8.167,313.4a.405.405,0,1,0-.245.773l3.637,1.152.012,0a1.59,1.59,0,0,0,1.216-.141,1.589,1.589,0,0,0,.76-.96q.014-.049.025-.1l3.043-.843c.439-.15,1.016-.2,1.273.387C18.153,314.364,17.462,314.746,17.283,314.831Z" transform="translate(0 -309.922)" fill="#697485"/>
        </g>
      </g>
      <g id="Group_137893" data-name="Group 137893" transform="translate(13.747 5.027)">
        <g id="Group_137892" data-name="Group 137892">
          <path id="Path_153545" data-name="Path 153545" d="M340.053,123.824a.4.4,0,0,0-.023-.076.383.383,0,0,0-.037-.07.393.393,0,0,0-.112-.112.413.413,0,0,0-.07-.037.4.4,0,0,0-.234-.023.379.379,0,0,0-.076.023.4.4,0,0,0-.07.037.393.393,0,0,0-.112.112.411.411,0,0,0-.037.07.394.394,0,0,0-.023.076.392.392,0,0,0,0,.158.382.382,0,0,0,.023.076.4.4,0,0,0,.037.07.394.394,0,0,0,.112.112.4.4,0,0,0,.07.037.409.409,0,0,0,.076.023.4.4,0,0,0,.079.008.406.406,0,0,0,.079-.008.431.431,0,0,0,.076-.023.413.413,0,0,0,.07-.037.394.394,0,0,0,.112-.112.373.373,0,0,0,.037-.07.383.383,0,0,0,.023-.076.41.41,0,0,0,0-.158Z" transform="translate(-339.25 -123.498)" fill="#697485"/>
        </g>
      </g>
      <g id="Group_137895" data-name="Group 137895" transform="translate(1.203 0.023)">
        <g id="Group_137894" data-name="Group 137894" transform="translate(0 0)">
          <path id="Path_153546" data-name="Path 153546" d="M48.83,1.4H46.42a.405.405,0,0,0-.405.405v.35h-1.13a.405.405,0,0,0-.405.405v.117A2.873,2.873,0,0,1,43,2.141,24.519,24.519,0,0,0,40.565.9L40.548.891A3.448,3.448,0,0,0,37.9.933l-1.631.584L34.9.142a.405.405,0,0,0-.573,0L29.811,4.654a.4.4,0,0,0,0,.573l7.711,7.711a.438.438,0,0,0,.573,0l4.12-4.12c.107.009.218.014.333.014a3.24,3.24,0,0,0,2.531-1.518H48.83a.405.405,0,0,0,.405-.405V1.8A.405.405,0,0,0,48.83,1.4ZM34.61,1l.924.924a1.767,1.767,0,0,1-1.847,0ZM31.594,5.865l-.924-.924.924-.924a1.767,1.767,0,0,1,0,1.847Zm6.214,6.214-.923-.923a1.764,1.764,0,0,1,1.847,0Zm1.507-1.507a2.575,2.575,0,0,0-3.014,0L32.178,6.448a2.575,2.575,0,0,0,0-3.015l.925-.925a2.575,2.575,0,0,0,3.015,0l.876.876a1.606,1.606,0,0,0-1.206.884,2.31,2.31,0,1,0,2.656,2.859l1.368.464a2.587,2.587,0,0,0,.429,2.054ZM36.852,6.588l.011,0,.81.275a1.5,1.5,0,1,1-2.035-1.713A1.794,1.794,0,0,0,36.852,6.588Zm3.973,2.475a1.772,1.772,0,0,1-.259-.843,3.151,3.151,0,0,0,.715.387ZM44.48,6.748a2.5,2.5,0,0,1-1.932,1.274,2.949,2.949,0,0,1-.423-.03h0a2.321,2.321,0,0,1-1.5-.821l-.049-.066a.4.4,0,0,0-.223-.186L37.129,5.826a.909.909,0,0,1-.661-1.072h0a.789.789,0,0,1,.97-.544l3.631,1.15a.405.405,0,0,0,.245-.773l-2.887-.915L38.4,3.646h0L36.9,2.15l1.285-.46.014-.005,0,0,.016-.007a2.626,2.626,0,0,1,2.018-.034,23.472,23.472,0,0,1,2.353,1.2,3.647,3.647,0,0,0,1.885.641ZM46.015,6.5h-.725V2.961h.725Zm2.409,0h-1.6v-4.3h1.6Z" transform="translate(-29.691 -0.023)" fill="#697485"/>
        </g>
      </g>
    </g>
  </g>
</svg>
