<svg xmlns="http://www.w3.org/2000/svg" width="129.266" height="43.997" viewBox="0 0 129.266 43.997">
  <g id="Group_139485" data-name="Group 139485" transform="translate(-313.878 -303.697)">
    <g id="Group_139200" data-name="Group 139200" transform="translate(313.878 305.625)">
      <path id="Path_151869" data-name="Path 151869" d="M328.947,319.019a1.243,1.243,0,0,0-.691.2,1.039,1.039,0,0,0-.441.564l-2.253,7.414-2.23-7.224a1.366,1.366,0,0,0-2.608,0l-2.228,7.222-2.255-7.422a1.046,1.046,0,0,0-.44-.556,1.248,1.248,0,0,0-.691-.2,1.219,1.219,0,0,0-1.231,1.231,1.424,1.424,0,0,0,.079.451l3.04,8.908a1.568,1.568,0,0,0,.475.7,1.854,1.854,0,0,0,1.02.381,1.516,1.516,0,0,0,.932-.31,1.72,1.72,0,0,0,.586-.8l2.016-6.3,2.022,6.309a1.686,1.686,0,0,0,.511.729,1.577,1.577,0,0,0,1,.366,1.514,1.514,0,0,0,.93-.31,1.571,1.571,0,0,0,.564-.77L330.1,320.7a1.4,1.4,0,0,0,.079-.449,1.219,1.219,0,0,0-1.231-1.231Z" transform="translate(-313.878 -292.16)" fill="#1b2148"/>
      <path id="Path_151870" data-name="Path 151870" d="M330.705,319.6a5.124,5.124,0,0,0-2.632-.637,9.726,9.726,0,0,0-3.809.793,1.088,1.088,0,0,0-.72,1.06,1.046,1.046,0,0,0,.314.767,1.025,1.025,0,0,0,.746.314,1.443,1.443,0,0,0,.342-.051l.021-.006a11.683,11.683,0,0,1,1.371-.378,6.992,6.992,0,0,1,1.392-.124,2.968,2.968,0,0,1,2,.554,2.311,2.311,0,0,1,.607,1.742h-2.326a6.323,6.323,0,0,0-3.833,1,3.269,3.269,0,0,0-1.36,2.739,3.379,3.379,0,0,0,.513,1.847,3.33,3.33,0,0,0,1.385,1.221h0a4.273,4.273,0,0,0,1.86.411,5.707,5.707,0,0,0,3.762-1.287,1.22,1.22,0,0,0,1.231,1.18,1.232,1.232,0,0,0,.881-.353,1.173,1.173,0,0,0,.37-.877v-6.061a4.785,4.785,0,0,0-.511-2.187A4.046,4.046,0,0,0,330.705,319.6Zm-3.4,9a2.368,2.368,0,0,1-1.567-.4,1.32,1.32,0,0,1-.438-1.045c0-.945,1-1.426,2.969-1.426h2.069v1.432A4.862,4.862,0,0,1,329,328.172,3.619,3.619,0,0,1,327.3,328.6Z" transform="translate(-306.023 -292.21)" fill="#1b2148"/>
      <path id="Path_151871" data-name="Path 151871" d="M344.61,319.616a3.525,3.525,0,0,0-2.163-.654,4.553,4.553,0,0,0-3.9,1.931,4,4,0,0,0-1.1-1.234,3.607,3.607,0,0,0-2.217-.7,4.2,4.2,0,0,0-2.341.6,5.423,5.423,0,0,0-1.033.879v-.1a1.269,1.269,0,0,0-.336-.874,1.218,1.218,0,0,0-.915-.4,1.18,1.18,0,0,0-.878.37,1.232,1.232,0,0,0-.353.881v9.19a1.216,1.216,0,0,0,1.231,1.231,1.224,1.224,0,0,0,.879-.353,1.175,1.175,0,0,0,.372-.877v-6.351a5.2,5.2,0,0,1,1.172-1.355,2.589,2.589,0,0,1,1.646-.511,1.751,1.751,0,0,1,1.479.549,3.181,3.181,0,0,1,.44,1.884v5.783a1.219,1.219,0,0,0,1.231,1.231,1.232,1.232,0,0,0,.881-.353,1.174,1.174,0,0,0,.37-.877v-6.351a5.193,5.193,0,0,1,1.172-1.355,2.588,2.588,0,0,1,1.646-.511,1.751,1.751,0,0,1,1.479.549,3.185,3.185,0,0,1,.44,1.884v5.783a1.216,1.216,0,0,0,1.231,1.231,1.231,1.231,0,0,0,.881-.353,1.174,1.174,0,0,0,.37-.877v-6.168a5.46,5.46,0,0,0-.406-2.072A3.841,3.841,0,0,0,344.61,319.616Z" transform="translate(-300.261 -292.21)" fill="#1b2148"/>
      <path id="Path_151872" data-name="Path 151872" d="M347.529,319.744a5.269,5.269,0,0,0-2.886-.782,5.189,5.189,0,0,0-3,.84,5.053,5.053,0,0,0-1.809,2.191,7.291,7.291,0,0,0-.579,2.912,6,6,0,0,0,1.544,4.376,5.753,5.753,0,0,0,4.271,1.567,6.961,6.961,0,0,0,3.882-.977,1.175,1.175,0,0,0,.69-1.024,1.037,1.037,0,0,0-.344-.8,1.152,1.152,0,0,0-1.283-.192,5.741,5.741,0,0,1-2.773.637,3.6,3.6,0,0,1-2.458-.768,3.157,3.157,0,0,1-.983-1.87h6.954a1.2,1.2,0,0,0,1.251-1.231,6.361,6.361,0,0,0-.626-2.805A5.075,5.075,0,0,0,347.529,319.744Zm-.008,4h-5.736a3.074,3.074,0,0,1,.466-1.343,2.62,2.62,0,0,1,1.069-.945,3.01,3.01,0,0,1,2.644,0,2.682,2.682,0,0,1,1.082.947A3.034,3.034,0,0,1,347.521,323.74Z" transform="translate(-291.574 -292.21)" fill="#1b2148"/>
      <path id="Path_151873" data-name="Path 151873" d="M353.752,319.744a5.258,5.258,0,0,0-2.884-.782,5.2,5.2,0,0,0-3,.84,5.063,5.063,0,0,0-1.807,2.191,7.292,7.292,0,0,0-.579,2.912,6,6,0,0,0,1.545,4.376,5.753,5.753,0,0,0,4.271,1.567,8.01,8.01,0,0,0,2.172-.246,8.1,8.1,0,0,0,1.71-.731,1.175,1.175,0,0,0,.69-1.024,1.037,1.037,0,0,0-.344-.8,1.152,1.152,0,0,0-1.283-.192,5.74,5.74,0,0,1-2.773.637,3.6,3.6,0,0,1-2.458-.768,3.158,3.158,0,0,1-.983-1.87h6.954a1.2,1.2,0,0,0,1.251-1.231,6.337,6.337,0,0,0-.628-2.805A5.05,5.05,0,0,0,353.752,319.744Zm-.006,4H348.01a3.075,3.075,0,0,1,.466-1.343,2.609,2.609,0,0,1,1.069-.945,3.01,3.01,0,0,1,2.644,0,2.682,2.682,0,0,1,1.082.947A3.034,3.034,0,0,1,353.746,323.74Z" transform="translate(-286.103 -292.21)" fill="#1b2148"/>
      <path id="Path_151874" data-name="Path 151874" d="M361.8,316.511a1.229,1.229,0,0,0-.881.353,1.2,1.2,0,0,0-.37.9v4.63a5.1,5.1,0,0,0-3.4-1.276,5.305,5.305,0,0,0-2.649.71,5.4,5.4,0,0,0-2.027,2.071,6.849,6.849,0,0,0,0,6.326,5.425,5.425,0,0,0,2.027,2.071,5.322,5.322,0,0,0,2.649.708,5.082,5.082,0,0,0,3.4-1.278,1.176,1.176,0,0,0,.37.817,1.225,1.225,0,0,0,.881.353,1.219,1.219,0,0,0,1.231-1.231v-13.9a1.24,1.24,0,0,0-.353-.881A1.179,1.179,0,0,0,361.8,316.511Zm-4.37,14.139a3.079,3.079,0,0,1-2.356-.926,4.43,4.43,0,0,1,0-5.329,3.084,3.084,0,0,1,2.356-.924,3.8,3.8,0,0,1,1.732.41,5.068,5.068,0,0,1,1.387,1.035V329.2a5.059,5.059,0,0,1-1.387,1.033h0A3.794,3.794,0,0,1,357.435,330.65Z" transform="translate(-280.632 -294.364)" fill="#1b2148"/>
      <path id="Path_151875" data-name="Path 151875" d="M370.939,318.655a6.02,6.02,0,1,0-6.02-6.02v.838a2.663,2.663,0,0,1-2.662,2.664h-.094a2.665,2.665,0,0,1-2.664-2.664v-3.579a1.278,1.278,0,0,0-1.2-1.294,1.243,1.243,0,0,0-1.281,1.244v3.63a2.665,2.665,0,0,1-2.664,2.664h-3.034v-2.448a5.15,5.15,0,0,0-5.15-5.15h-14.6v-.428a1.279,1.279,0,0,0-1.206-1.295,1.244,1.244,0,0,0-1.281,1.244v10.277A2.663,2.663,0,0,1,326.415,321h-.432a2.665,2.665,0,0,1-2.664-2.664V313.7a1.278,1.278,0,0,0-1.2-1.294,1.243,1.243,0,0,0-1.281,1.242v4.693a5.15,5.15,0,0,0,5.15,5.15h.432a5.155,5.155,0,0,0,5.141-4.864h22.793a5.14,5.14,0,0,0,3.908-1.8,5.137,5.137,0,0,0,3.906,1.8h.094a5.144,5.144,0,0,0,4.122-2.067A6.007,6.007,0,0,0,370.939,318.655Zm-39.374-7.63h14.6a2.665,2.665,0,0,1,2.664,2.664v2.446H331.565Zm39.013-1.905a3.534,3.534,0,1,1-3.155,3.153A3.535,3.535,0,0,1,370.578,309.12Z" transform="translate(-307.765 -303.061)" fill="#1b2148"/>
      <path id="Path_151876" data-name="Path 151876" d="M357.421,306.615h-.006a5.15,5.15,0,0,0-5.15,5.15v1.74a5.151,5.151,0,0,0,5.15,5.15h2.647A2.665,2.665,0,0,1,357.421,321h-2a1.278,1.278,0,0,0-1.294,1.2,1.244,1.244,0,0,0,1.244,1.281h2.052a5.151,5.151,0,0,0,5.15-5.15v-6.572A5.151,5.151,0,0,0,357.421,306.615Zm-2.67,6.89v-1.74a2.665,2.665,0,0,1,2.664-2.664h.006a2.663,2.663,0,0,1,2.662,2.664v4.4h-2.668A2.663,2.663,0,0,1,354.751,313.5Z" transform="translate(-280.141 -303.061)" fill="#1b2148"/>
      <circle id="Ellipse_29" data-name="Ellipse 29" cx="1.769" cy="1.769" r="1.769" transform="translate(51.316 17.093)" fill="#1b2148"/>
      <circle id="Ellipse_30" data-name="Ellipse 30" cx="1.769" cy="1.769" r="1.769" transform="translate(30.357)" fill="#1b2148"/>
      <circle id="Ellipse_31" data-name="Ellipse 31" cx="1.769" cy="1.769" r="1.769" transform="translate(46.924 17.093)" fill="#1b2148"/>
    </g>
    <g id="Group_139201" data-name="Group 139201" transform="translate(406.894 303.697)">
      <path id="Path_151877" data-name="Path 151877" d="M397.489,325.689l-15.694,15.576L377,346.024a2.642,2.642,0,0,1-4.338-2.794l2.734-7.341a2.644,2.644,0,0,0-.6-2.783l-10.644-10.715a2.639,2.639,0,0,1,.013-3.735l13.267-13.167a2.641,2.641,0,0,1,3.733.013l.263.265a.643.643,0,0,1,.03.872h0l0,0A10.291,10.291,0,0,0,395.92,321.21a.639.639,0,0,1,.872.028l.71.716A2.639,2.639,0,0,1,397.489,325.689Z" transform="translate(-363.384 -302.796)" fill="#0179f2"/>
      <circle id="Ellipse_32" data-name="Ellipse 32" cx="8.03" cy="8.03" r="8.03" transform="translate(20.19)" fill="#4cc1f0"/>
    </g>
  </g>
</svg>
