<svg xmlns="http://www.w3.org/2000/svg" width="186.904" height="24.014" viewBox="0 0 186.904 24.014">
  <g id="Developed_by_ar" transform="translate(-120.777 -766.007)">
    <g id="Group_140115" data-name="Group 140115" transform="translate(120.777 766.007)">
      <g id="Group_139121" data-name="Group 139121" transform="translate(0 1.052)">
        <path id="Path_151560" data-name="Path 151560" d="M1042.438,308.542a.679.679,0,0,0-.378.112.573.573,0,0,0-.241.307l-1.23,4.047-1.217-3.943a.744.744,0,0,0-.712-.523.745.745,0,0,0-.712.523l-1.216,3.943-1.231-4.051a.576.576,0,0,0-.24-.3.681.681,0,0,0-.377-.111.664.664,0,0,0-.672.672.773.773,0,0,0,.043.245l1.66,4.863a.849.849,0,0,0,.258.382,1.014,1.014,0,0,0,.557.209.827.827,0,0,0,.508-.169.938.938,0,0,0,.321-.434l1.1-3.438,1.1,3.444a.929.929,0,0,0,.279.4.862.862,0,0,0,.547.2.829.829,0,0,0,.508-.169.86.86,0,0,0,.307-.42l1.661-4.865a.776.776,0,0,0,.042-.245.665.665,0,0,0-.671-.672Z" transform="translate(-1034.213 -293.882)" fill="#fff"/>
        <path id="Path_151561" data-name="Path 151561" d="M1051.561,308.807a2.79,2.79,0,0,0-1.436-.348,5.317,5.317,0,0,0-2.08.432.6.6,0,0,0-.392.578.571.571,0,0,0,.171.418.557.557,0,0,0,.407.171.8.8,0,0,0,.188-.027l.011,0a6.513,6.513,0,0,1,.748-.206,3.888,3.888,0,0,1,.76-.067,1.625,1.625,0,0,1,1.09.3,1.262,1.262,0,0,1,.331.951h-1.269a3.453,3.453,0,0,0-2.092.543,1.785,1.785,0,0,0-.742,1.5,1.843,1.843,0,0,0,.28,1.008,1.818,1.818,0,0,0,.755.666h0a2.321,2.321,0,0,0,1.016.225,3.12,3.12,0,0,0,2.053-.7.664.664,0,0,0,.671.644.671.671,0,0,0,.481-.193.642.642,0,0,0,.2-.479v-3.309a2.61,2.61,0,0,0-.279-1.193A2.205,2.205,0,0,0,1051.561,308.807Zm-1.857,4.914a1.289,1.289,0,0,1-.856-.221.718.718,0,0,1-.238-.57c0-.516.545-.778,1.62-.778h1.129v.782a2.661,2.661,0,0,1-.729.552A1.983,1.983,0,0,1,1049.7,313.721Z" transform="translate(-1038.09 -293.857)" fill="#fff"/>
        <path id="Path_151562" data-name="Path 151562" d="M1065.139,308.815a1.929,1.929,0,0,0-1.18-.356,2.486,2.486,0,0,0-2.131,1.055,2.159,2.159,0,0,0-.6-.675,1.965,1.965,0,0,0-1.21-.38,2.3,2.3,0,0,0-1.279.328,3.025,3.025,0,0,0-.564.48v-.055a.7.7,0,0,0-.183-.477.664.664,0,0,0-.5-.219.642.642,0,0,0-.479.2.672.672,0,0,0-.192.481v5.016a.665.665,0,0,0,.671.671.674.674,0,0,0,.482-.193.643.643,0,0,0,.2-.479V310.75a2.817,2.817,0,0,1,.641-.739,1.409,1.409,0,0,1,.9-.279.956.956,0,0,1,.807.3,1.736,1.736,0,0,1,.24,1.03v3.157a.664.664,0,0,0,.672.671.672.672,0,0,0,.481-.193.642.642,0,0,0,.2-.479V310.75a2.838,2.838,0,0,1,.64-.739,1.412,1.412,0,0,1,.9-.279.958.958,0,0,1,.807.3,1.742,1.742,0,0,1,.24,1.03v3.157a.665.665,0,0,0,.671.671.674.674,0,0,0,.481-.193.642.642,0,0,0,.2-.479v-3.368a2.968,2.968,0,0,0-.222-1.131A2.108,2.108,0,0,0,1065.139,308.815Z" transform="translate(-1040.933 -293.857)" fill="#fff"/>
        <path id="Path_151563" data-name="Path 151563" d="M1075.76,308.886a2.872,2.872,0,0,0-1.575-.427,2.838,2.838,0,0,0-1.637.458,2.761,2.761,0,0,0-.987,1.2,3.972,3.972,0,0,0-.316,1.59,3.266,3.266,0,0,0,.843,2.387,3.136,3.136,0,0,0,2.33.856,3.8,3.8,0,0,0,2.119-.533.642.642,0,0,0,.377-.559.566.566,0,0,0-.188-.435.633.633,0,0,0-.7-.1,3.445,3.445,0,0,1-.69.259,3.384,3.384,0,0,1-.823.088,1.965,1.965,0,0,1-1.342-.419,1.728,1.728,0,0,1-.536-1.02h3.8a.656.656,0,0,0,.683-.672,3.47,3.47,0,0,0-.342-1.531A2.761,2.761,0,0,0,1075.76,308.886Zm0,2.181h-3.13a1.692,1.692,0,0,1,.254-.733,1.43,1.43,0,0,1,.584-.516,1.645,1.645,0,0,1,1.442,0,1.477,1.477,0,0,1,.591.517A1.648,1.648,0,0,1,1075.756,311.066Z" transform="translate(-1045.22 -293.857)" fill="#fff"/>
        <path id="Path_151564" data-name="Path 151564" d="M1084.844,308.886a2.872,2.872,0,0,0-1.575-.427,2.836,2.836,0,0,0-1.637.458,2.758,2.758,0,0,0-.987,1.2,3.962,3.962,0,0,0-.316,1.59,3.27,3.27,0,0,0,.842,2.387,3.137,3.137,0,0,0,2.331.856,4.391,4.391,0,0,0,1.186-.134,4.45,4.45,0,0,0,.932-.4.643.643,0,0,0,.376-.559.568.568,0,0,0-.188-.435.614.614,0,0,0-.426-.167.621.621,0,0,0-.276.062,3.461,3.461,0,0,1-.689.259,3.391,3.391,0,0,1-.824.088,1.967,1.967,0,0,1-1.342-.419,1.72,1.72,0,0,1-.536-1.02h3.795a.654.654,0,0,0,.682-.672,3.47,3.47,0,0,0-.341-1.531A2.765,2.765,0,0,0,1084.844,308.886Zm0,2.181h-3.13a1.671,1.671,0,0,1,.254-.733,1.432,1.432,0,0,1,.583-.516,1.647,1.647,0,0,1,1.443,0,1.479,1.479,0,0,1,.59.517A1.646,1.646,0,0,1,1084.839,311.066Z" transform="translate(-1047.921 -293.857)" fill="#fff"/>
        <path id="Path_151565" data-name="Path 151565" d="M1094.925,304.882a.674.674,0,0,0-.481.193.656.656,0,0,0-.2.491v2.527a2.78,2.78,0,0,0-1.854-.7,2.891,2.891,0,0,0-1.445.387,2.936,2.936,0,0,0-1.107,1.13,3.738,3.738,0,0,0,0,3.453,2.937,2.937,0,0,0,1.107,1.13,2.892,2.892,0,0,0,1.445.387,2.778,2.778,0,0,0,1.855-.7.642.642,0,0,0,.2.446.674.674,0,0,0,.481.193.665.665,0,0,0,.671-.671v-7.589a.673.673,0,0,0-.193-.481A.641.641,0,0,0,1094.925,304.882Zm-2.385,7.716a1.683,1.683,0,0,1-1.287-.5,2.42,2.42,0,0,1,0-2.909,1.686,1.686,0,0,1,1.287-.5,2.071,2.071,0,0,1,.945.224,2.758,2.758,0,0,1,.756.564v2.341a2.728,2.728,0,0,1-.756.564h0A2.075,2.075,0,0,1,1092.54,312.6Z" transform="translate(-1050.62 -292.794)" fill="#fff"/>
        <path id="Path_151566" data-name="Path 151566" d="M1071.71,297.013a3.286,3.286,0,1,0-3.285-3.285v.457a1.454,1.454,0,0,1-1.454,1.454h-.052a1.454,1.454,0,0,1-1.453-1.454v-1.954a.7.7,0,0,0-.657-.706.679.679,0,0,0-.7.678v1.982a1.454,1.454,0,0,1-1.454,1.454H1061V294.3a2.81,2.81,0,0,0-2.81-2.81h-7.969v-.233a.7.7,0,0,0-.657-.707.679.679,0,0,0-.7.678v5.61a1.454,1.454,0,0,1-1.454,1.454h-.236a1.454,1.454,0,0,1-1.454-1.454v-2.533a.7.7,0,0,0-.658-.706.678.678,0,0,0-.7.677v2.562a2.811,2.811,0,0,0,2.811,2.811h.236a2.814,2.814,0,0,0,2.806-2.656h12.44a2.8,2.8,0,0,1,4.264,0h.052a2.808,2.808,0,0,0,2.25-1.128A3.279,3.279,0,0,0,1071.71,297.013Zm-21.491-4.164h7.969a1.454,1.454,0,0,1,1.454,1.453v1.336h-9.423Zm21.294-1.041a1.929,1.929,0,1,1-1.721,1.721A1.931,1.931,0,0,1,1071.513,291.808Z" transform="translate(-1037.229 -288.502)" fill="#fff"/>
        <path id="Path_151567" data-name="Path 151567" d="M1093.042,290.442h0a2.811,2.811,0,0,0-2.811,2.81v.949a2.811,2.811,0,0,0,2.811,2.811h1.446a1.456,1.456,0,0,1-1.443,1.281h-1.091a.7.7,0,0,0-.707.658.678.678,0,0,0,.678.7h1.119a2.811,2.811,0,0,0,2.812-2.811v-3.588A2.811,2.811,0,0,0,1093.042,290.442Zm-1.457,3.76v-.949a1.454,1.454,0,0,1,1.454-1.454h0a1.454,1.454,0,0,1,1.454,1.454v2.4h-1.457A1.454,1.454,0,0,1,1091.585,294.2Z" transform="translate(-1050.862 -288.502)" fill="#fff"/>
        <circle id="Ellipse_5" data-name="Ellipse 5" cx="0.965" cy="0.965" r="0.965" transform="translate(28.008 9.329)" fill="#fff"/>
        <circle id="Ellipse_6" data-name="Ellipse 6" cx="0.965" cy="0.965" r="0.965" transform="translate(16.569)" fill="#fff"/>
        <circle id="Ellipse_7" data-name="Ellipse 7" cx="0.965" cy="0.965" r="0.965" transform="translate(25.611 9.329)" fill="#fff"/>
      </g>
      <g id="Group_139122" data-name="Group 139122" transform="translate(50.768 0)">
        <path id="Path_151568" data-name="Path 151568" d="M1125.069,299.124l-8.566,8.5-2.615,2.6a1.442,1.442,0,0,1-2.368-1.525l1.492-4.007a1.444,1.444,0,0,0-.329-1.519l-5.81-5.848a1.442,1.442,0,0,1,.007-2.039l7.241-7.186a1.441,1.441,0,0,1,2.038.007l.143.144a.351.351,0,0,1,.017.476h0a5.616,5.616,0,0,0,7.893,7.952.349.349,0,0,1,.477.015l.388.391A1.44,1.44,0,0,1,1125.069,299.124Z" transform="translate(-1106.454 -286.629)" fill="#0179f2"/>
        <circle id="Ellipse_8" data-name="Ellipse 8" cx="4.383" cy="4.383" r="4.383" transform="translate(11.02)" fill="#38c8fd"/>
      </g>
    </g>
    <path id="Path_155466" data-name="Path 155466" d="M-103.992-9.408l1.064,1.036L-101.7-9.6l-1.246-1.232-1.05,1.036-1.064-1.036L-106.288-9.6l1.246,1.232Zm2.478,7.8c-.854,0-1.078-.42-1.078-1.092v-4.83h-1.54v.77c-3.528.532-4.452,2.59-4.452,4A2.674,2.674,0,0,0-105.672,0a4.361,4.361,0,0,0,2.254-.742,2.413,2.413,0,0,0,1.9.742.144.144,0,0,0,.14-.154V-1.47A.132.132,0,0,0-101.514-1.61Zm-4.13.014c-.9,0-1.4-.462-1.4-1.288,0-1.232,1.05-2.086,2.912-2.394v2.366A4.535,4.535,0,0,0-104.02-1.9,4.452,4.452,0,0,1-105.644-1.6ZM-90.09-1.61A3.463,3.463,0,0,1-91.77-2a3.8,3.8,0,0,0,.784-2.352A2.952,2.952,0,0,0-94-7.392c-1.428,0-2.7.812-4.9,3.486a14.784,14.784,0,0,0,.364-2.884v-3.36h-1.54v7.742c-.2.252-.392.518-.6.8h-.84a.132.132,0,0,0-.14.14V-.154a.144.144,0,0,0,.14.154h4.788a6.934,6.934,0,0,0,4.088-1.148A3.425,3.425,0,0,0-90.09,0a.144.144,0,0,0,.14-.154V-1.47A.132.132,0,0,0-90.09-1.61Zm-6.8,0h-2.282c2.576-2.912,3.612-4.158,4.914-4.158A1.646,1.646,0,0,1-92.54-4.116C-92.54-2.66-94.276-1.61-96.894-1.61Zm17.878-5.18h-1.54a26.815,26.815,0,0,1,.42,4.06c0,.742-.476,1.12-1.456,1.12A3.829,3.829,0,0,1-83.244-2,10.754,10.754,0,0,0-82.88-5.18h-1.428a7.869,7.869,0,0,1-.322,2.87,1.2,1.2,0,0,1-1.26.7,3.594,3.594,0,0,1-1.652-.434,11.127,11.127,0,0,0,.35-3.136H-88.62a7.869,7.869,0,0,1-.322,2.87,1.094,1.094,0,0,1-1.148.7.132.132,0,0,0-.14.14V-.154A.144.144,0,0,0-90.09,0a2.354,2.354,0,0,0,1.96-.882A4.07,4.07,0,0,0-85.89,0a2.527,2.527,0,0,0,2.016-.812A4.611,4.611,0,0,0-81.452,0,2.683,2.683,0,0,0-78.6-2.618,30.967,30.967,0,0,0-79.016-6.79Zm3.85-3.36h-1.54V0h1.54Zm8.694,8.54H-67.3c-.014-.952-.028-1.442-.056-1.988-.112-2.058-1.274-3.192-2.968-3.192A3.266,3.266,0,0,0-73.556-3.3c0,2.044,1.47,3.3,3.724,3.3h.994c-.28.9-1.442,1.54-3.542,1.54V3.01c3.444,0,4.872-1.274,5.082-3.01h.826a.144.144,0,0,0,.14-.154V-1.47A.132.132,0,0,0-66.472-1.61Zm-5.544-1.75a1.691,1.691,0,0,1,1.652-1.82c.882,0,1.372.532,1.456,1.708.042.574.084,1.12.112,1.862h-.826C-71.2-1.61-72.016-2.184-72.016-3.36Zm8.12-3.43h-1.54a28.561,28.561,0,0,1,.42,4c0,.8-.336,1.176-1.456,1.176a.132.132,0,0,0-.14.14V-.154a.144.144,0,0,0,.14.154c1.96,0,3-1.092,3-2.674A28.731,28.731,0,0,0-63.9-6.79ZM-65.016.9l-1.232,1.232L-65,3.36l1.232-1.232ZM-54.7-1.61c-.882,0-1.33-.224-1.414-.84l-.042-.266c-.07-1.26-.2-2.492-.35-3.444h-1.54a46.9,46.9,0,0,1,.49,5.74c0,1.316-.84,1.96-2.142,1.96V3.01c2.212,0,3.626-1.2,3.626-3.318V-.546A1.541,1.541,0,0,0-54.7,0a.144.144,0,0,0,.14-.154V-1.47A.132.132,0,0,0-54.7-1.61Zm0,1.61h1.12c1.96,0,3-1.092,3-2.674A28.731,28.731,0,0,0-51-6.79h-1.54a28.56,28.56,0,0,1,.42,4c0,.8-.336,1.176-1.456,1.176H-54.7a.132.132,0,0,0-.14.14V-.154A.144.144,0,0,0-54.7,0Zm4.3,2.142L-51.646.91-52.7,1.946-53.76.91l-1.232,1.232,1.246,1.232,1.05-1.036,1.064,1.036Zm8.092-3.752h-.826c-.014-.952-.028-1.442-.056-1.988C-43.3-5.656-44.464-6.79-46.158-6.79A3.266,3.266,0,0,0-49.392-3.3c0,2.044,1.47,3.3,3.724,3.3h.994c-.28.9-1.442,1.54-3.542,1.54V3.01c3.444,0,4.872-1.274,5.082-3.01h.826a.144.144,0,0,0,.14-.154V-1.47A.132.132,0,0,0-42.308-1.61Zm-5.544-1.75A1.691,1.691,0,0,1-46.2-5.18c.882,0,1.372.532,1.456,1.708.042.574.084,1.12.112,1.862h-.826C-47.04-1.61-47.852-2.184-47.852-3.36Zm16.968,1.75A3.463,3.463,0,0,1-32.564-2a3.8,3.8,0,0,0,.784-2.352,2.952,2.952,0,0,0-3.01-3.038c-1.428,0-2.7.812-4.9,3.486a14.784,14.784,0,0,0,.364-2.884v-3.36h-1.54v7.742c-.2.252-.392.518-.6.8h-.84a.132.132,0,0,0-.14.14V-.154a.144.144,0,0,0,.14.154h4.788a6.934,6.934,0,0,0,4.088-1.148A3.425,3.425,0,0,0-30.884,0a.144.144,0,0,0,.14-.154V-1.47A.132.132,0,0,0-30.884-1.61Zm-6.8,0H-39.97c2.576-2.912,3.612-4.158,4.914-4.158a1.646,1.646,0,0,1,1.722,1.652C-33.334-2.66-35.07-1.61-37.688-1.61Zm9.548-5.572,1.064,1.036,1.232-1.232L-27.09-8.61l-1.05,1.036L-29.2-8.61l-1.232,1.232,1.246,1.232ZM-25.7-1.61a4.308,4.308,0,0,1-1.988-.56,12.571,12.571,0,0,0,.266-3.01h-1.428a6.221,6.221,0,0,1-.364,2.9c-.266.448-.8.672-1.666.672a.132.132,0,0,0-.14.14V-.154a.144.144,0,0,0,.14.154,3.091,3.091,0,0,0,2.66-1.05A3.979,3.979,0,0,0-25.7,0a.144.144,0,0,0,.14-.154V-1.47A.132.132,0,0,0-25.7-1.61Zm1.456-8.54v7.364c0,.8-.336,1.176-1.456,1.176a.132.132,0,0,0-.14.14V-.154A.144.144,0,0,0-25.7,0c1.96,0,3-1.092,3-2.674V-10.15Zm5.39,0H-20.4V0h1.54ZM-5.334-1.61c-.56,0-.84-.5-1.148-1.652l-.322-1.2C-7.182-5.894-7.98-6.594-9.142-6.594c-1.848,0-3,2.212-3.178,3.752a2.564,2.564,0,0,0-1.848,2.52,29.3,29.3,0,0,0,.42,4.172h1.54a29.113,29.113,0,0,1-.42-4.06.954.954,0,0,1,.686-1.05,2.1,2.1,0,0,0,.406.378A6.988,6.988,0,0,0-7.616,0l.322-1.316A2.081,2.081,0,0,0-5.334,0a.144.144,0,0,0,.14-.154V-1.47A.132.132,0,0,0-5.334-1.61ZM-11.1-2.45c.392-1.6,1.148-2.52,1.834-2.52q.777,0,1.176,1.386l.21.7c.14.448.28.882.448,1.274A6.724,6.724,0,0,1-11.1-2.45Zm8.526-6.272,1.064,1.036L-.28-8.918-1.526-10.15l-1.05,1.036L-3.64-10.15-4.872-8.918l1.246,1.232Zm-.6,1.932a28.56,28.56,0,0,1,.42,4c0,.8-.336,1.176-1.456,1.176h-1.12a.132.132,0,0,0-.14.14V-.154A.144.144,0,0,0-5.334,0h1.12c1.96,0,3-1.092,3-2.674a28.731,28.731,0,0,0-.42-4.116Z" transform="translate(307.961 781.843)" fill="#fff"/>
  </g>
</svg>
