<svg id="ticket-discount" xmlns="http://www.w3.org/2000/svg" width="20" height="20" viewBox="0 0 20 20">
  <path id="Vector" d="M12.375,13.833H4.042c-1.96,0-3.053-.294-3.775-1.016S-.75,11-.75,9.042V8.625A.625.625,0,0,1-.125,8,1.46,1.46,0,0,0,1.333,6.542,1.46,1.46,0,0,0-.125,5.083.625.625,0,0,1-.75,4.458V4.042C-.75,2.082-.456.988.266.266S2.082-.75,4.042-.75h8.333c1.96,0,3.053.294,3.775,1.016s1.016,1.816,1.016,3.775v.833a.625.625,0,0,1-.625.625,1.458,1.458,0,1,0,0,2.917.625.625,0,0,1,.625.625c0,1.96-.294,3.053-1.016,3.775S14.335,13.833,12.375,13.833ZM.5,9.177c.011,1.485.207,2.313.65,2.756s1.321.65,2.891.65h8.333c1.571,0,2.436-.194,2.891-.65a3.441,3.441,0,0,0,.641-2.341,2.709,2.709,0,0,1,.009-5.269V4.042c0-1.571-.194-2.436-.65-2.891S13.946.5,12.375.5H4.042C2.471.5,1.606.694,1.15,1.15S.512,2.421.5,3.906A2.713,2.713,0,0,1,2.583,6.542,2.713,2.713,0,0,1,.5,9.177Z" transform="translate(1.792 3.458)" fill="#697485"/>
  <path id="Vector-2" data-name="Vector" d="M-.125,5.5a.623.623,0,0,1-.442-.183.625.625,0,0,1,0-.884l5-5a.625.625,0,0,1,.884,0,.625.625,0,0,1,0,.884l-5,5A.623.623,0,0,1-.125,5.5Z" transform="translate(7.625 7.417)" fill="#697485" opacity="0.4"/>
  <path id="Vector-3" data-name="Vector" d="M.335,1.167H.328A.833.833,0,1,1,.328-.5H.335a.833.833,0,0,1,0,1.667Z" transform="translate(12.168 11.958)" fill="#697485" opacity="0.4"/>
  <path id="Vector-4" data-name="Vector" d="M.335,1.167H.328A.833.833,0,1,1,.328-.5H.335a.833.833,0,0,1,0,1.667Z" transform="translate(7.168 7.375)" fill="#697485" opacity="0.4"/>
  <path id="Vector-5" data-name="Vector" d="M0,0H20V20H0Z" fill="none" opacity="0"/>
</svg>
