<svg xmlns="http://www.w3.org/2000/svg" width="19" height="19" viewBox="0 0 19 19">
  <g id="vuesax_twotone_document-text" data-name="vuesax/twotone/document-text" transform="translate(-492 -252)">
    <g id="document-text" transform="translate(492 252)">
      <path id="Vector" d="M3.8-.75h6.333A4.5,4.5,0,0,1,13.589.528a4.646,4.646,0,0,1,1.1,3.274v7.917a4.646,4.646,0,0,1-1.1,3.274,4.5,4.5,0,0,1-3.453,1.278H3.8A4.5,4.5,0,0,1,.349,14.993a4.646,4.646,0,0,1-1.1-3.274V3.8A4.646,4.646,0,0,1,.349.528,4.5,4.5,0,0,1,3.8-.75Zm6.333,15.833a3.381,3.381,0,0,0,2.583-.9,3.516,3.516,0,0,0,.781-2.466V3.8a3.516,3.516,0,0,0-.781-2.466,3.381,3.381,0,0,0-2.583-.9H3.8a3.381,3.381,0,0,0-2.583.9A3.516,3.516,0,0,0,.438,3.8v7.917a3.516,3.516,0,0,0,.781,2.466,3.381,3.381,0,0,0,2.583.9Z" transform="translate(2.531 1.74)" fill="#697485"/>
      <path id="Vector-2" data-name="Vector" d="M3.01,3.6H1.427A2.18,2.18,0,0,1-.75,1.427V-.156A.594.594,0,0,1-.156-.75a.594.594,0,0,1,.594.594V1.427a.991.991,0,0,0,.99.99H3.01a.594.594,0,0,1,0,1.188Z" transform="translate(11.635 3.719)" fill="#697485" opacity="0.4"/>
      <path id="Vector-3" data-name="Vector" d="M3.01.438H-.156A.594.594,0,0,1-.75-.156.594.594,0,0,1-.156-.75H3.01A.594.594,0,0,1,3.6-.156.594.594,0,0,1,3.01.438Z" transform="translate(6.49 10.448)" fill="#697485" opacity="0.4"/>
      <path id="Vector-4" data-name="Vector" d="M6.177.438H-.156A.594.594,0,0,1-.75-.156.594.594,0,0,1-.156-.75H6.177a.594.594,0,0,1,.594.594A.594.594,0,0,1,6.177.438Z" transform="translate(6.49 13.615)" fill="#697485" opacity="0.4"/>
      <path id="Vector-5" data-name="Vector" d="M0,0H19V19H0Z" fill="none" opacity="0"/>
    </g>
  </g>
</svg>
