<svg xmlns="http://www.w3.org/2000/svg" width="20" height="20" viewBox="0 0 20 20">
  <g id="vuesax_twotone_edit" data-name="vuesax/twotone/edit" transform="translate(-620 -252)">
    <g id="edit" transform="translate(620 252)">
      <path id="Vector" d="M10.708,17.167h-5c-2.309,0-3.872-.488-4.921-1.537S-.75,13.017-.75,10.708v-5C-.75,3.4-.262,1.836.787.787S3.4-.75,5.708-.75H7.375A.625.625,0,0,1,8-.125.625.625,0,0,1,7.375.5H5.708C3.753.5,2.47.872,1.671,1.671S.5,3.753.5,5.708v5c0,1.955.372,3.238,1.171,4.037s2.082,1.171,4.037,1.171h5c1.955,0,3.238-.372,4.037-1.171s1.171-2.082,1.171-4.037V9.042a.625.625,0,0,1,1.25,0v1.667c0,2.309-.488,3.872-1.537,4.921S13.017,17.167,10.708,17.167Z" transform="translate(1.792 1.792)" fill="#8d98aa" opacity="0.4"/>
      <path id="Vector-2" data-name="Vector" d="M9.416-.75A3.608,3.608,0,0,1,11.926.492c1.659,1.659,1.659,3.341,0,5L5.359,12.06l-.007.007a2.924,2.924,0,0,1-1.446.72L1.4,13.145a2.294,2.294,0,0,1-.313.022,1.815,1.815,0,0,1-1.4-.612,1.887,1.887,0,0,1-.408-1.536l.358-2.506A2.851,2.851,0,0,1,.359,7.059L6.926.492A3.553,3.553,0,0,1,9.416-.75ZM4.48,11.171l6.562-6.562a2.579,2.579,0,0,0,.87-1.477,2.279,2.279,0,0,0-.87-1.755A2.453,2.453,0,0,0,9.417.5h0a2.41,2.41,0,0,0-1.607.876L1.243,7.943a1.667,1.667,0,0,0-.373.744L.511,11.2a.666.666,0,0,0,.117.54.58.58,0,0,0,.456.179,1.027,1.027,0,0,0,.14-.01l2.505-.358A1.752,1.752,0,0,0,4.48,11.171Z" transform="translate(5.999 1.582)" fill="#8d98aa"/>
      <path id="Vector-3" data-name="Vector" d="M3.992,4.617a.625.625,0,0,1-.171-.024A6.62,6.62,0,0,1,.951,2.91,6.57,6.57,0,0,1-.727.044.625.625,0,0,1-.294-.727a.625.625,0,0,1,.771.433A5.364,5.364,0,0,0,4.162,3.39a.625.625,0,0,1-.17,1.226Z" transform="translate(12.55 3.583)" fill="#8d98aa" opacity="0.4"/>
      <path id="Vector-4" data-name="Vector" d="M0,0H20V20H0Z" fill="none" opacity="0"/>
    </g>
  </g>
</svg>
