<svg xmlns="http://www.w3.org/2000/svg" width="14" height="14" viewBox="0 0 14 14">
  <g id="vuesax_twotone_edit" data-name="vuesax/twotone/edit" transform="translate(-620 -252)">
    <g id="edit" transform="translate(620 252)">
      <path id="Vector" d="M7.273,11.795h-3.5A4.617,4.617,0,0,1,.326,10.718,4.617,4.617,0,0,1-.75,7.273v-3.5A4.617,4.617,0,0,1,.326.326,4.617,4.617,0,0,1,3.772-.75H4.939a.438.438,0,0,1,.438.438.438.438,0,0,1-.438.438H3.772A3.84,3.84,0,0,0,.945.945a3.84,3.84,0,0,0-.82,2.827v3.5A3.84,3.84,0,0,0,.945,10.1a3.84,3.84,0,0,0,2.827.82h3.5A3.84,3.84,0,0,0,10.1,10.1a3.84,3.84,0,0,0,.82-2.827V6.106a.438.438,0,1,1,.875,0V7.273a4.617,4.617,0,0,1-1.076,3.446A4.617,4.617,0,0,1,7.273,11.795Z" transform="translate(1.478 1.478)" fill="#484f5b" opacity="0.4"/>
      <path id="Vector-2" data-name="Vector" d="M6.351-.75A2.52,2.52,0,0,1,8.1.118a2.189,2.189,0,0,1,0,3.493L3.518,8.2,3.512,8.2a2.042,2.042,0,0,1-1.01.5L.75,8.956a1.6,1.6,0,0,1-.219.015,1.268,1.268,0,0,1-.979-.428A1.318,1.318,0,0,1-.733,7.47l.25-1.75A1.991,1.991,0,0,1,.025,4.7L4.611.118A2.482,2.482,0,0,1,6.351-.75ZM2.9,7.577,7.487,2.993a1.8,1.8,0,0,0,.608-1.032A1.592,1.592,0,0,0,7.487.735,1.713,1.713,0,0,0,6.351.123h0A1.684,1.684,0,0,0,5.229.735L.642,5.322a1.165,1.165,0,0,0-.261.52L.131,7.6a.465.465,0,0,0,.082.377A.405.405,0,0,0,.531,8.1a.718.718,0,0,0,.1-.007l1.75-.25A1.224,1.224,0,0,0,2.9,7.577Z" transform="translate(4.446 1.331)" fill="#484f5b"/>
      <path id="Vector-3" data-name="Vector" d="M2.562,3a.437.437,0,0,1-.119-.017A4.624,4.624,0,0,1,.438,1.806,4.589,4.589,0,0,1-.734-.2a.437.437,0,0,1,.3-.538.437.437,0,0,1,.538.3A3.747,3.747,0,0,0,2.681,2.142.437.437,0,0,1,2.562,3Z" transform="translate(9.022 2.729)" fill="#484f5b" opacity="0.4"/>
      <path id="Vector-4" data-name="Vector" d="M0,0H14V14H0Z" fill="none" opacity="0"/>
    </g>
  </g>
</svg>
