<svg xmlns="http://www.w3.org/2000/svg" width="20" height="20" viewBox="0 0 20 20">
  <g id="vuesax_twotone_sms-tracking" data-name="vuesax/twotone/sms-tracking" transform="translate(-620 -252)">
    <g id="sms-tracking" transform="translate(620 252)">
      <path id="Vector" d="M12.375,14.667H4.042a.625.625,0,0,1,0-1.25h8.333a3.7,3.7,0,0,0,2.6-.823,3.559,3.559,0,0,0,.946-2.719V4.042a3.559,3.559,0,0,0-.946-2.719A3.7,3.7,0,0,0,12.375.5H4.042a3.7,3.7,0,0,0-2.6.823A3.559,3.559,0,0,0,.5,4.042a.625.625,0,0,1-.625.625A.625.625,0,0,1-.75,4.042,4.738,4.738,0,0,1,.6.407,4.89,4.89,0,0,1,4.042-.75h8.333A4.89,4.89,0,0,1,15.821.407a4.738,4.738,0,0,1,1.346,3.635V9.875a4.738,4.738,0,0,1-1.346,3.635A4.89,4.89,0,0,1,12.375,14.667Z" transform="translate(1.792 3.042)" fill="#8d98aa"/>
      <path id="Vector-2" data-name="Vector" d="M4.037,3.1a3.134,3.134,0,0,1-1.952-.649L-.516.363a.625.625,0,0,1-.1-.879.625.625,0,0,1,.879-.1l2.6,2.083a2,2,0,0,0,2.345,0L7.818-.613a.625.625,0,0,1,.878.1.625.625,0,0,1-.1.878L5.99,2.447A3.135,3.135,0,0,1,4.037,3.1Z" transform="translate(5.958 7.625)" fill="#8d98aa" opacity="0.4"/>
      <path id="Vector-3" data-name="Vector" d="M4.875.5h-5A.625.625,0,0,1-.75-.125.625.625,0,0,1-.125-.75h5A.625.625,0,0,1,5.5-.125.625.625,0,0,1,4.875.5Z" transform="translate(1.792 13.875)" fill="#8d98aa" opacity="0.4"/>
      <path id="Vector-4" data-name="Vector" d="M2.375.5h-2.5A.625.625,0,0,1-.75-.125.625.625,0,0,1-.125-.75h2.5A.625.625,0,0,1,3-.125.625.625,0,0,1,2.375.5Z" transform="translate(1.792 10.542)" fill="#8d98aa" opacity="0.4"/>
      <path id="Vector-5" data-name="Vector" d="M0,0H20V20H0Z" fill="none" opacity="0"/>
    </g>
  </g>
</svg>
