<svg xmlns="http://www.w3.org/2000/svg" width="1029" height="1029" viewBox="0 0 1029 1029">
  <g id="Group_139456" data-name="Group 139456" transform="translate(-11259 10003)">
    <g id="Rectangle_111577" data-name="Rectangle 111577" transform="translate(11259 -10003)" fill="#fff" stroke="#707070" stroke-width="1" opacity="0">
      <rect width="1029" height="1029" stroke="none"/>
      <rect x="0.5" y="0.5" width="1028" height="1028" fill="none"/>
    </g>
    <g id="Group_139454" data-name="Group 139454" transform="translate(12910.514 -11184.41)">
      <path id="Path_154064" data-name="Path 154064" d="M-1506.6,1794.843c-3.383-3.824-6.826-7.6-10.139-11.48a111.412,111.412,0,0,1-14.9-122.7,64.48,64.48,0,0,1,8.255-13.012c1.99-2.337,1.9-3.948.239-6.444-8.393-12.631-15.6-25.92-19.61-40.632-12.418-45.526-2.168-85.824,28.974-120.825a117.42,117.42,0,0,1,56.231-35.338c2.824-.811,3.452-2.538,4.152-4.864,8.3-27.566,24.247-49.791,47.756-66.249,30.763-21.536,64.875-27.9,101.533-20.406,4.51.922,7.151,0,10.181-3.309,19.4-21.169,41.969-37.2,70.947-42.417,32.781-5.906,63.487-.413,91.861,17.1,3.561,2.2,4.8,1.64,7.121-1.637,3.139-4.439,2.9-7.5.014-12.19-25.656-41.752-10.141-93.588,33.876-114.1,14.457-6.737,29.854-7.462,45.426-6.682,49.981,2.5,95.909,17.607,137.122,45.884q91.338,62.672,114.071,171.478c.546,2.621.683,4.29,4.4,4.229,57.742-.94,109.7,39.357,123.542,95.5a140.13,140.13,0,0,1,3.835,33.627q.082,179.564-.006,359.128c-.083,68.927-20.7,131.208-62.83,185.81-39.122,50.7-89.72,85.458-151.048,104.071-63.294,19.209-126.217,16.992-188.691-4.356-38.876-13.285-72.572-34.716-102.363-62.857-34.255-32.357-67.724-65.515-101.555-98.3-1.443-1.4-2.51-3.652-5.4-3.2,10.431,19.276,13.22,39.31,7.777,60.533-7.952,31.009-38.119,56.005-70.2,57.337-58.584,2.433-111.626-14.454-159.383-47.73-58.812-40.978-95.412-97.176-110.622-167.087-4.637-21.314-6.972-43.077-4.443-64.97,4-34.6,34.986-64.02,69.611-67.12a93.934,93.934,0,0,1,33.964,3.467c.2.528.733.844,1.022.387C-1505.5,1794.891-1506.192,1794.9-1506.6,1794.843Zm24.118-244.78a23.038,23.038,0,0,0-1.085,3.279c-4.028,22.919,2.276,42.649,18.618,59.107,18.126,18.255,36.413,36.35,54.553,54.59,1.093,1.1,3.3,1.743,2.646,4.074a21.409,21.409,0,0,1-2.723-1.077c-20.672-11.55-45.335-5.456-60.1,12.678-15.144,18.6-13.068,45.009,4.5,62.472,8.146,8.1,16.522,15.963,24.789,23.939q147.726,142.523,295.486,285.012c14.253,13.732,27.5,28.69,43.742,40.143,55.383,39.051,116.887,52.486,183.325,40.538,55.328-9.95,101.415-37.236,137.532-80.379,35.431-42.322,55.4-91.144,55.647-146.655.554-123.04.232-246.085.263-369.128a76.879,76.879,0,0,0-1.113-13.41c-5.325-30.216-34.77-52.906-65.912-50.736-32.117,2.238-58.6,28.329-58.926,59.53-.534,50.943-.213,101.9-.252,152.843-2.15.015-3.025-1.835-4.274-3.043-5.8-5.611-11.53-11.3-17.284-16.967-1.119-1.215-2.2-2.472-3.364-3.64q-95.1-95.109-190.211-190.2c-29.413-29.4-58.365-59.286-88.427-88.008-31.314-29.919-88.989-20.674-103.61,30.218a64.736,64.736,0,0,0-1.658,23.609c1.079,10.474,5.212,19.738,10.076,28.813-2.2-.33-3.248-2.2-4.623-3.572-10.217-10.217-20.217-20.657-30.626-30.672-14.088-13.553-30.583-21.248-50.676-20.118-26.35,1.482-51.252,22.052-56.338,46.922-5.315,14.505-3.265,28.54,2.826,42.261,1.781,4.011,3.909,7.866,5.879,11.792-1.126.939-1.78-.195-2.467-.665-16.594-11.342-34.816-13.961-53.674-8.106C-1462.038,1512.368-1476.623,1527.263-1482.48,1550.063Zm132.148,525.948c1.495,0,3.991-.023,6.487,0,9.668.107,17.048-6.5,17.283-15.487.242-9.255-6.366-15.726-16.484-16.109-9.815-.372-19.624-.906-29.287-2.761-55.823-10.715-96.968-41.495-124.067-91.231-13.563-24.9-19.52-51.746-19.977-79.99-.158-9.737-7.012-16.5-15.8-16.45-9.017.052-15.709,7.24-15.632,17.111.436,55.512,19.884,103.444,58.837,142.872C-1451.227,2052.177-1405.33,2073.254-1350.332,2076.011Zm498.787-627.233c-.692-10.662-1.734-21.3-4.252-31.638q-28.869-118.5-144.956-156.25c-18-5.856-36.7-7.862-55.58-7.945-13.06-.058-20.918,12.539-14.709,23.455,3.275,5.758,8.487,8.107,14.959,8.176,14.355.155,28.645,1.533,42.42,5.494q96.029,27.617,124.483,123.6c4.28,14.433,5.613,29.339,5.917,44.36.2,9.6,6.947,16.318,15.941,16.237,8.97-.081,15.523-6.917,15.765-16.511C-851.481,1454.767-851.545,1451.772-851.545,1448.778Zm-601.3,426.909a68.6,68.6,0,0,0,2.133,17.783c8.035,32.656,26.322,57.761,55.879,74.088a103.963,103.963,0,0,0,52.047,13.228c7.26-.078,13.425-4.287,15.514-10.4a16.453,16.453,0,0,0-5.4-17.951c-4.5-3.54-9.961-3.263-15.24-3.648-26.563-1.939-46.821-14.594-61.415-36.534-8.624-12.964-11.949-27.556-12.38-42.99a15.658,15.658,0,0,0-13.422-15.083c-6.772-1.144-13.986,3.011-16.852,9.718C-1453.616,1867.726-1453.288,1871.708-1452.844,1875.687Zm505.858-422.05c-1.271-28.326-12.287-52.53-31.886-72.694-21.149-21.758-47.254-32.722-77.6-33.421-8-.184-14.522,4.8-16.3,12.07a16,16,0,0,0,8.142,17.7c3.332,1.791,6.986,1.889,10.644,2.132,28.032,1.863,49.653,14.61,64.418,38.542,7.69,12.466,10.585,26.354,11.308,40.874a15.709,15.709,0,0,0,20.748,14.538C-949.785,1470.958-946.588,1464.931-946.986,1453.637Z" fill="#010101"/>
      <path id="Path_154065" data-name="Path 154065" d="M-1392.5,1460.224c5.086-24.87,29.988-45.44,56.338-46.922,20.093-1.13,36.588,6.565,50.676,20.118,10.409,10.015,20.409,20.455,30.626,30.672,1.375,1.376,2.421,3.242,4.622,3.572a54.637,54.637,0,0,0,8.248,9.876c9.856,8.7,19.009,18.134,28.3,27.424q68.493,68.5,136.982,137c1.412,1.412,2.788,2.869,4.29,4.181,4.4,3.848,12.505,4.085,17.149.57,9.215-6.975,9.917-17.406,1.725-25.7-38.356-38.83-77.384-76.988-115.441-116.121-28.2-28.992-57.076-57.318-85.66-85.932-1.289-1.289-2.67-2.485-4.008-3.725,14.621-50.892,72.3-60.137,103.61-30.218,30.062,28.722,59.014,58.607,88.427,88.008q95.122,95.084,190.211,190.2c1.167,1.168,2.245,2.425,3.364,3.641-6.584,6.073-13.289,12.023-19.731,18.244-15.915,15.37-31.71,30.865-47.557,46.307-.714.7-1.458,1.362-2.2,2.033-13.549,12.3-26.779,24.9-37.115,40.178-14.786,21.862-23.438,46.072-27.352,72.022-2.179,14.443-3.259,29.026-1,43.548,3.88,24.951,11.144,48.864,23.676,70.928,7.662,13.49,16.394,26.226,28.924,35.81a14.1,14.1,0,0,0,18.635-1.153c7.366-7.083,7.631-13.3.678-22.38-7.274-9.5-14.249-19.19-20.547-29.381-19.737-31.938-25.449-66.292-17.4-102.822a137.994,137.994,0,0,1,39.825-71.1c26.7-25.764,52.942-52.01,79.342-78.088,1.251-1.236,3.047-2.112,3.374-4.133.039-50.948-.282-101.9.252-152.843.328-31.2,26.809-57.292,58.926-59.53,31.142-2.17,60.587,20.52,65.912,50.736a76.879,76.879,0,0,1,1.113,13.41c-.031,123.043.291,246.088-.263,369.128-.251,55.511-20.216,104.333-55.647,146.655-36.117,43.143-82.2,70.429-137.532,80.379-66.438,11.948-127.942-1.487-183.325-40.538-16.242-11.453-29.489-26.411-43.742-40.143q-147.827-142.421-295.486-285.012c-8.267-7.976-16.643-15.842-24.789-23.939-17.568-17.463-19.644-43.87-4.5-62.472,14.763-18.134,39.426-24.228,60.1-12.678a21.36,21.36,0,0,0,2.724,1.077l-.034-.093c.4.97,1.024,1.473,2.111,1.017l-.11-.109c-.252.958.584,1.175,1.1,1.611,3.9,3.577,7.939,7.016,11.681,10.75q68.188,68.046,136.3,136.165a47.867,47.867,0,0,0,3.959,3.8c7.877,6.231,18.191,4.548,23.785-3.819,4.3-6.427,2.876-14.305-3.857-21.04q-123.508-123.546-247.034-247.075c-.814-.815-1.752-1.505-2.633-2.254,5.857-22.8,20.442-37.695,42.541-44.557,18.858-5.855,37.08-3.236,53.674,8.106.687.47,1.341,1.6,2.467.665l-.027-.116c-.536,1.29.194,1.26,1.095,1.052l-.086-.115c-.314,1.007.563,1.186,1.108,1.6q7.781,7.737,15.558,15.474,99.547,99.552,199.092,199.108a46.935,46.935,0,0,0,4.344,4.114c5.695,4.393,13.433,4.142,19.264-.507,6.442-5.136,8.142-11.962,4.834-19.048-1.24-2.658-3.427-4.474-5.414-6.462q-100.753-100.817-201.53-201.612c-2.235-2.235-4.5-4.45-6.629-6.781C-1365.1,1486.873-1378.761,1473.509-1392.5,1460.224Z" fill="#fec73d"/>
      <path id="Path_154066" data-name="Path 154066" d="M-851.488,1686.883c-.327,2.021-2.123,2.9-3.374,4.133-26.4,26.078-52.638,52.324-79.342,78.088a137.994,137.994,0,0,0-39.825,71.1c-8.053,36.53-2.341,70.884,17.4,102.822,6.3,10.191,13.273,19.88,20.547,29.381,6.953,9.082,6.688,15.3-.678,22.38a14.1,14.1,0,0,1-18.635,1.153c-12.53-9.584-21.262-22.32-28.924-35.81-12.532-22.064-19.8-45.977-23.676-70.928-2.258-14.522-1.178-29.105,1-43.548,3.914-25.95,12.566-50.16,27.352-72.022,10.336-15.282,23.566-27.873,37.115-40.178.739-.671,1.483-1.337,2.2-2.033,15.847-15.442,31.642-30.937,47.557-46.307,6.442-6.221,13.147-12.171,19.731-18.244,5.754,5.663,11.479,11.355,17.284,16.966C-854.513,1685.048-853.638,1686.9-851.488,1686.883Z" fill="#d48c01"/>
      <path id="Path_154067" data-name="Path 154067" d="M-1392.5,1460.224c13.742,13.285,27.4,26.649,40.314,40.756,2.133,2.331,4.394,4.546,6.629,6.781q100.766,100.806,201.53,201.612c1.987,1.988,4.174,3.8,5.414,6.462,3.308,7.086,1.608,13.912-4.834,19.048-5.831,4.649-13.569,4.9-19.264.507a46.935,46.935,0,0,1-4.344-4.114q-99.551-99.55-199.092-199.108-7.757-7.758-15.558-15.474c-.236-.624-.246-1.406-1.108-1.6l.086.115c-.033-.7-.248-1.2-1.095-1.052l.027.116c-1.97-3.926-4.1-7.781-5.879-11.792C-1395.768,1488.764-1397.818,1474.729-1392.5,1460.224Z" fill="#d38c00"/>
      <path id="Path_154068" data-name="Path 154068" d="M-1482.48,1550.063c.881.749,1.819,1.439,2.633,2.254q123.527,123.526,247.034,247.075c6.733,6.735,8.155,14.613,3.857,21.04-5.594,8.367-15.908,10.05-23.785,3.819a47.867,47.867,0,0,1-3.959-3.8q-68.144-68.089-136.3-136.165c-3.742-3.734-7.78-7.173-11.681-10.75l-1.1-1.611.11.109c-.535-.689-.843-1.849-2.111-1.017l.034.093c.65-2.331-1.554-2.975-2.647-4.074-18.14-18.24-36.427-36.335-54.553-54.59-16.342-16.458-22.646-36.188-18.618-59.107A23.038,23.038,0,0,1-1482.48,1550.063Z" fill="#d38c00"/>
      <path id="Path_154069" data-name="Path 154069" d="M-1350.332,2076.011c-55-2.757-100.9-23.834-138.643-62.041-38.953-39.428-58.4-87.36-58.837-142.872-.077-9.871,6.615-17.059,15.632-17.111,8.791-.052,15.645,6.713,15.8,16.45.457,28.244,6.414,55.095,19.977,79.99,27.1,49.736,68.244,80.516,124.067,91.231,9.663,1.855,19.472,2.389,29.287,2.761,10.118.383,16.726,6.854,16.484,16.109-.235,8.989-7.615,15.594-17.283,15.487C-1346.341,2075.988-1348.837,2076.011-1350.332,2076.011Z" fill="#30cff4"/>
      <path id="Path_154070" data-name="Path 154070" d="M-851.545,1448.778c0,2.994.064,5.989-.012,8.98-.242,9.594-6.795,16.43-15.765,16.511-8.994.081-15.746-6.634-15.941-16.237-.3-15.021-1.637-29.927-5.917-44.36q-28.406-95.8-124.483-123.6c-13.775-3.961-28.065-5.339-42.42-5.494-6.472-.069-11.684-2.418-14.959-8.176-6.209-10.916,1.649-23.513,14.709-23.455,18.884.083,37.581,2.089,55.58,7.945Q-884.836,1298.6-855.8,1417.14C-853.279,1427.477-852.237,1438.116-851.545,1448.778Z" fill="#30cff4"/>
      <path id="Path_154071" data-name="Path 154071" d="M-1258.658,1415.242c1.338,1.24,2.719,2.436,4.008,3.725,28.584,28.614,57.464,56.94,85.66,85.932,38.057,39.133,77.085,77.291,115.441,116.121,8.192,8.293,7.49,18.724-1.725,25.7-4.644,3.515-12.745,3.278-17.149-.57-1.5-1.312-2.878-2.769-4.29-4.181q-68.493-68.5-136.982-137c-9.289-9.29-18.442-18.721-28.3-27.424a54.637,54.637,0,0,1-8.248-9.876c-4.863-9.075-9-18.339-10.075-28.813A64.736,64.736,0,0,1-1258.658,1415.242Z" fill="#d38c00"/>
      <path id="Path_154072" data-name="Path 154072" d="M-1452.847,1875.691c-.441-3.983-.769-7.965.866-11.791,2.866-6.707,10.08-10.862,16.852-9.718a15.658,15.658,0,0,1,13.422,15.083c.431,15.434,3.756,30.026,12.38,42.99,14.594,21.94,34.852,34.595,61.415,36.534,5.279.385,10.742.108,15.24,3.648a16.453,16.453,0,0,1,5.4,17.951c-2.089,6.111-8.254,10.32-15.514,10.4a103.963,103.963,0,0,1-52.047-13.228c-29.557-16.327-47.844-41.432-55.879-74.088A68.723,68.723,0,0,1-1452.847,1875.691Z" fill="#30cff4"/>
      <path id="Path_154073" data-name="Path 154073" d="M-946.986,1453.637c.4,11.294-2.8,17.321-10.523,19.74a15.709,15.709,0,0,1-20.748-14.538c-.723-14.52-3.618-28.408-11.308-40.874-14.765-23.932-36.386-36.679-64.418-38.542-3.658-.243-7.312-.341-10.644-2.132a16,16,0,0,1-8.142-17.7c1.778-7.271,8.3-12.254,16.3-12.07,30.343.7,56.448,11.663,77.6,33.421C-959.273,1401.107-948.257,1425.311-946.986,1453.637Z" fill="#30cff4"/>
      <path id="Path_154074" data-name="Path 154074" d="M-1506.6,1794.843c.406.053,1.094.048.718.643-.289.457-.817.141-1.022-.387Z" fill="#fefefe"/>
      <path id="Path_154075" data-name="Path 154075" d="M-1407.781,1671.02c1.268-.832,1.576.328,2.111,1.017C-1406.757,1672.493-1407.382,1671.99-1407.781,1671.02Z" fill="#010101"/>
      <path id="Path_154076" data-name="Path 154076" d="M-1383.825,1514.161c.847-.151,1.062.356,1.095,1.052C-1383.631,1515.421-1384.361,1515.451-1383.825,1514.161Z" fill="#010101"/>
      <path id="Path_154077" data-name="Path 154077" d="M-1382.816,1515.1c.862.19.872.972,1.108,1.6C-1382.253,1516.284-1383.13,1516.1-1382.816,1515.1Z" fill="#010101"/>
      <path id="Path_154078" data-name="Path 154078" d="M-1405.78,1671.928l1.1,1.611C-1405.2,1673.1-1406.032,1672.886-1405.78,1671.928Z" fill="#010101"/>
    </g>
  </g>
</svg>
