<svg xmlns="http://www.w3.org/2000/svg" width="1029" height="1029" viewBox="0 0 1029 1029">
  <g id="Group_139457" data-name="Group 139457" transform="translate(-9837 10074)">
    <g id="Rectangle_111576" data-name="Rectangle 111576" transform="translate(9837 -10074)" fill="#fff" stroke="#707070" stroke-width="1" opacity="0">
      <rect width="1029" height="1029" stroke="none"/>
      <rect x="0.5" y="0.5" width="1028" height="1028" fill="none"/>
    </g>
    <g id="Group_139453" data-name="Group 139453" transform="translate(8836.242 -10130.722)">
      <path id="Path_154056" data-name="Path 154056" d="M1515.241,1077.771c-124.766-1.305-235.277-41.663-330.052-122.9-86.384-74.047-141.078-167.572-165.438-278.66-10.365-47.267-13.164-95.143-9.391-143.426,1.375-17.6,3.705-35.053,6.658-52.43a16.5,16.5,0,0,0-.573-7.786,172.478,172.478,0,0,1-5.989-73.993,172.152,172.152,0,0,1,98.581-132.564,15.939,15.939,0,0,0,6.07-4.979,524.12,524.12,0,0,1,97.276-95.626A496.11,496.11,0,0,1,1337.169,96.7,487.461,487.461,0,0,1,1446.63,69.442a520.2,520.2,0,0,1,89.141-4.307c59.978,2.567,117.937,14.541,173.4,37.741a504.8,504.8,0,0,1,142.96,90.405,548.009,548.009,0,0,1,63.407,67.7,19.384,19.384,0,0,0,6.922,5.437c54.963,27.043,87.448,70.934,97.515,131.232a150.65,150.65,0,0,1-4.371,69.136c-2.85,9.384-1.164,18.01.226,26.949a511.807,511.807,0,0,1,4.044,122.44,490.38,490.38,0,0,1-53.1,184.506q-75.1,145.947-221.15,221.4a496.191,496.191,0,0,1-159.165,50.641A533.094,533.094,0,0,1,1515.241,1077.771Zm362.921-760.934c-25.027-36.315-54.841-68.26-89.936-94.86-112.495-85.266-238.169-112.633-375.689-81.7-82.06,18.46-152.533,59.206-211.943,118.8-17.872,17.927-34.311,37.113-48.323,58.275-2.325.851-4.641,1.729-6.976,2.549-53.653,18.849-83.284,73.774-69.752,129.108,1.939,7.927,5.57,15.208,8.048,22.916-4.106,15.289-6.421,30.893-8.236,46.589-6.038,52.233-3.678,104.047,8.851,155.155,24.089,98.261,74.68,180.345,154.153,243.066,106.659,84.176,227.994,114.181,361.5,89.247,96.131-17.953,177.528-64.4,243.379-136.95,62.6-68.975,99.743-149.986,111.678-242.393a435.291,435.291,0,0,0-7.627-154.7c.6-1.715,1.074-3.482,1.8-5.139,9.556-21.694,12.18-44.3,6.829-67.281-9.14-39.256-33.186-65.739-71.042-79.658C1882.575,319.019,1880.035,318.656,1878.162,316.837Z" fill="#010101"/>
      <path id="Path_154057" data-name="Path 154057" d="M1947.289,471.944a435.291,435.291,0,0,1,7.627,154.7c-11.935,92.407-49.075,173.418-111.678,242.393-65.851,72.555-147.248,119-243.379,136.95-133.506,24.934-254.841-5.071-361.5-89.247-79.473-62.721-130.064-144.8-154.153-243.066-12.529-51.108-14.889-102.922-8.851-155.155,1.815-15.7,4.13-31.3,8.235-46.587,1.016,1.5,2.14,2.945,3.034,4.517a108.974,108.974,0,0,0,46.639,44.484c70.342,35.256,140.836,70.21,211.211,105.4,3.218,1.609,4.389,1.054,5.908-1.992q52.672-105.609,105.5-211.142a110.3,110.3,0,0,0,11.543-54.418c-1.075-28.37-12.251-52.346-31.818-72.17-24.49-24.813-54.638-35.135-89.4-31.282-29.761,3.3-53.7,17.233-72.67,40.18-8.8,10.644-14.271,23.2-20.57,35.267-1.968,3.77-3.768,4.193-7.3,2.324-5.136-2.722-10.505-5.007-15.778-7.471-14.271-6.67-28.935-11.425-45-11.507a158.352,158.352,0,0,0-32.626,3.235c14.012-21.162,30.451-40.348,48.323-58.275,59.41-59.6,129.883-100.341,211.943-118.8,137.52-30.936,263.194-3.569,375.689,81.7,35.1,26.6,64.909,58.545,89.931,94.855-1.3.771-2.523.247-3.838-.061-12.929-3.022-25.979-3.251-39.128-1.746-15.481,1.772-29.385,8.09-43.174,14.743-11.944,5.764-12.08,5.9-17.774-5.914-6.839-14.186-14.624-27.784-26.246-38.561-25.264-23.427-54.983-34.1-89.567-29.931-28.843,3.474-52.717,16.6-70.5,39.213-28.528,36.271-33.5,76.478-13.357,117.93,34.541,71.074,70.484,141.466,105.766,212.181,1.413,2.834,2.562,3.44,5.591,1.921q107.516-53.925,215.087-107.741c12.261-6.171,22.647-15.019,31.558-25.633C1938.17,486.566,1942.243,478.939,1947.289,471.944ZM1515.143,666.177q-123.867,0-247.734-.088c-4.01-.006-5.376.755-5.273,5.089a249.907,249.907,0,0,0,2.577,32.325c8.526,55.021,32.463,102.611,72.026,141.515,54.161,53.261,119.523,78.612,195.843,73.827,59.434-3.726,110.957-26.7,154.195-66.979,51.9-48.354,79.525-108.438,81.885-179.751.159-4.795-.84-6.068-5.784-6.058Q1639.011,666.311,1515.143,666.177Z" fill="#fec73d"/>
      <path id="Path_154058" data-name="Path 154058" d="M1947.289,471.944c-5.046,6.995-9.119,14.622-14.717,21.289-8.911,10.614-19.3,19.462-31.558,25.633q-107.442,54.07-215.087,107.741c-3.029,1.519-4.178.913-5.591-1.921-35.282-70.715-71.225-141.107-105.766-212.181-20.145-41.452-15.171-81.659,13.357-117.93,17.786-22.614,41.66-35.739,70.5-39.213,34.584-4.165,64.3,6.5,89.567,29.931,11.622,10.777,19.407,24.375,26.246,38.561,5.694,11.812,5.83,11.678,17.774,5.914,13.789-6.653,27.693-12.971,43.174-14.743,13.149-1.505,26.2-1.276,39.128,1.746,1.315.308,2.54.832,3.838.061,1.878,1.824,4.418,2.187,6.722,3.034,37.856,13.919,61.9,40.4,71.042,79.658,5.351,22.983,2.727,45.587-6.829,67.281C1948.363,468.462,1947.884,470.229,1947.289,471.944Z" fill="#ef3a17"/>
      <path id="Path_154059" data-name="Path 154059" d="M1152.271,317.356a158.352,158.352,0,0,1,32.626-3.235c16.062.082,30.726,4.837,45,11.507,5.273,2.464,10.642,4.749,15.778,7.471,3.528,1.869,5.328,1.446,7.3-2.324,6.3-12.066,11.771-24.623,20.57-35.267,18.971-22.947,42.909-36.881,72.67-40.18,34.757-3.853,64.905,6.469,89.4,31.282,19.567,19.824,30.743,43.8,31.818,72.17a110.3,110.3,0,0,1-11.543,54.418q-52.721,105.585-105.5,211.142c-1.519,3.046-2.69,3.6-5.908,1.992-70.375-35.19-140.869-70.144-211.211-105.4a108.974,108.974,0,0,1-46.639-44.484c-.894-1.572-2.018-3.013-3.034-4.517-2.477-7.71-6.108-14.991-8.047-22.918-13.532-55.334,16.1-110.259,69.752-129.108C1147.63,319.085,1149.946,318.207,1152.271,317.356Z" fill="#ef3a17"/>
      <path id="Path_154060" data-name="Path 154060" d="M1515.143,666.177q123.869,0,247.735-.12c4.944-.01,5.943,1.263,5.784,6.058-2.36,71.313-29.983,131.4-81.885,179.751-43.238,40.281-94.761,63.253-154.195,66.979-76.32,4.785-141.682-20.566-195.843-73.827-39.563-38.9-63.5-86.494-72.026-141.515a249.907,249.907,0,0,1-2.577-32.325c-.1-4.334,1.263-5.095,5.273-5.089Q1391.276,666.264,1515.143,666.177Zm219.392,31.809h-432.53a15.7,15.7,0,0,1-2.493-.02c-3.2-.518-3.446,1.043-2.992,3.682a229.673,229.673,0,0,0,16.27,54.736c1.631,3.666,3.483,4.63,7.311,4.627q195-.162,389.992-.09a27.929,27.929,0,0,1,2.994.019c1.795.194,2.534-.7,3.275-2.259A203.077,203.077,0,0,0,1734.535,697.986ZM1422.273,866.317c41.369,27.952,145.44,27.9,186.251-.094C1559.155,808.475,1466.288,812.73,1422.273,866.317Z" fill="#010100"/>
      <path id="Path_154061" data-name="Path 154061" d="M1734.535,697.986a203.077,203.077,0,0,1-18.173,60.7c-.741,1.564-1.48,2.453-3.275,2.259a27.929,27.929,0,0,0-2.994-.019q-195,0-389.992.09c-3.828,0-5.68-.961-7.311-4.627a229.673,229.673,0,0,1-16.27-54.736c-.454-2.639-.211-4.2,2.992-3.682a15.7,15.7,0,0,0,2.493.02h432.53Z" fill="#fefefe"/>
      <path id="Path_154062" data-name="Path 154062" d="M1422.273,866.317c44.015-53.587,136.882-57.842,186.251-.094C1567.713,894.217,1463.642,894.269,1422.273,866.317Z" fill="#ee3917"/>
    </g>
  </g>
</svg>
