<svg xmlns="http://www.w3.org/2000/svg" width="64" height="64" viewBox="0 0 64 64">
  <g id="Group_132003" data-name="Group 132003" transform="translate(-147 -390)">
    <rect id="Rectangle_110334" data-name="Rectangle 110334" width="64" height="64" rx="9" transform="translate(147 390)" fill="none"/>
    <g id="layer1" transform="translate(154.874 397.806)">
      <path id="path1967" d="M5.635,4a1.629,1.629,0,1,0,0,3.259A29.421,29.421,0,0,1,31.808,23.145a1.607,1.607,0,0,0,2.209.6,1.632,1.632,0,0,0,.6-2.231A32.713,32.713,0,0,0,5.635,4Z" transform="translate(0.634 0)" fill="#a2a2a2"/>
      <path id="path1969" d="M5.552,10a1.638,1.638,0,0,0,.156,3.272,19.485,19.485,0,0,1,16.113,8.484,1.61,1.61,0,0,0,2.212.6,1.633,1.633,0,0,0,.6-2.231A22.784,22.784,0,0,0,5.709,10a1.249,1.249,0,0,0-.156,0Z" transform="translate(0.633 3.802)" fill="#a2a2a2"/>
      <path id="path1971" d="M5.545,16A1.637,1.637,0,0,0,5.7,19.273a9.749,9.749,0,0,1,9.752,9.8,1.625,1.625,0,1,0,3.251,0A13.06,13.06,0,0,0,5.7,16q-.078,0-.156,0Z" transform="translate(0.632 7.611)" fill="#a2a2a2"/>
      <path id="path1976" d="M9.537,25.269A3.269,3.269,0,1,1,6.269,22a3.269,3.269,0,0,1,3.269,3.268Z" transform="translate(0 11.417)" fill="#a2a2a2"/>
      <path id="path1980" d="M34.061,17.48A1.582,1.582,0,0,0,32.825,18l-5.761,5.761L21.3,18a1.634,1.634,0,1,0-2.311,2.311l5.761,5.761-5.761,5.761A1.634,1.634,0,1,0,21.3,34.148l5.761-5.761,5.761,5.761a1.634,1.634,0,1,0,2.311-2.311l-5.761-5.761,5.761-5.761A1.651,1.651,0,0,0,34.06,17.48Z" transform="translate(9.828 8.548)" fill="#a2a2a2"/>
    </g>
  </g>
</svg>
