<svg xmlns="http://www.w3.org/2000/svg" width="44" height="44" viewBox="0 0 44 44">
  <g id="Group_137663" data-name="Group 137663" transform="translate(-313 -50)">
    <rect id="Rectangle_110904" data-name="Rectangle 110904" width="44" height="44" rx="14" transform="translate(313 50)" fill="#fff"/>
    <g id="vuesax_twotone_heart" data-name="vuesax/twotone/heart" transform="translate(87 -128)">
      <g id="heart">
        <path id="Vector" d="M10.62,17.71a2.181,2.181,0,0,1-1.24,0C6.48,16.72,0,12.59,0,5.59A5.574,5.574,0,0,1,5.56,0,5.515,5.515,0,0,1,10,2.24,5.547,5.547,0,0,1,20,5.59C20,12.59,13.52,16.72,10.62,17.71Z" transform="translate(238 191.1)" fill="none" stroke="#484f5b" stroke-linecap="round" stroke-linejoin="round" stroke-width="1.5"/>
        <path id="Vector-2" data-name="Vector" d="M0,0H24V24H0Z" transform="translate(236 188)" fill="none" opacity="0"/>
        <path id="Vector-3" data-name="Vector" d="M0,0A4.012,4.012,0,0,1,0,4.782" transform="translate(241.834 198.107) rotate(-120)" fill="none" stroke="#484f5b" stroke-linecap="round" stroke-linejoin="round" stroke-width="1.5" opacity="0.34"/>
      </g>
    </g>
  </g>
</svg>
