<svg xmlns="http://www.w3.org/2000/svg" width="44" height="44" viewBox="0 0 44 44">
  <g id="Group_137663" data-name="Group 137663" transform="translate(-313 -50)">
    <rect id="Rectangle_110904" data-name="Rectangle 110904" width="44" height="44" rx="14" transform="translate(313 50)" fill="#ef5350"/>
    <g id="vuesax_bulk_heart" data-name="vuesax/bulk/heart" transform="translate(87 -128)">
      <g id="heart">
        <path id="Union_1" data-name="Union 1" d="M1550.38-388.29c-2.409-.82-7.28-3.811-8.86-8.81h18.96c-1.58,5-6.45,7.99-8.86,8.81a1.958,1.958,0,0,1-.62.09A1.957,1.957,0,0,1,1550.38-388.29Zm-8.86-8.81a10.674,10.674,0,0,1-.52-3.31,5.574,5.574,0,0,1,5.56-5.59,5.548,5.548,0,0,1,4.44,2.23,5.551,5.551,0,0,1,4.441-2.23,5.573,5.573,0,0,1,5.559,5.59,10.7,10.7,0,0,1-.519,3.31Z" transform="translate(-1303 597.1)" fill="#fff"/>
        <path id="Vector" d="M0,0H24V24H0Z" transform="translate(236 188)" fill="none" opacity="0"/>
      </g>
      <path id="Vector-2" data-name="Vector" d="M0,5.532A.746.746,0,0,1-.419,5.4a.75.75,0,0,1-.2-1.041,3.275,3.275,0,0,0,0-3.944.75.75,0,0,1,.2-1.041.75.75,0,0,1,1.041.2,4.774,4.774,0,0,1,0,5.619A.749.749,0,0,1,0,5.532Z" transform="translate(241.834 198.107) rotate(-120)" fill="#ef5350"/>
    </g>
  </g>
</svg>
