<svg id="vuesax_twotone_gallery" data-name="vuesax/twotone/gallery" xmlns="http://www.w3.org/2000/svg" width="40" height="40" viewBox="0 0 40 40">
  <g id="gallery">
    <path id="Vector" d="M22.167,35.083h-10c-4.617,0-7.745-.977-9.842-3.074S-.75,26.784-.75,22.167v-10c0-4.617.977-7.745,3.074-9.842S7.549-.75,12.167-.75h10c4.617,0,7.745.977,9.842,3.074s3.074,5.225,3.074,9.842v10c0,4.617-.977,7.745-3.074,9.842S26.784,35.083,22.167,35.083Zm-10-33.333c-3.911,0-6.476.744-8.074,2.342S1.75,8.256,1.75,12.167v10c0,3.911.744,6.476,2.342,8.074s4.164,2.342,8.074,2.342h10c3.911,0,6.476-.744,8.074-2.342s2.342-4.164,2.342-8.074v-10c0-3.911-.744-6.476-2.342-8.074S26.077,1.75,22.167,1.75Z" transform="translate(2.833 2.833)" fill="#bac1cc"/>
    <path id="Vector-2" data-name="Vector" d="M3.833-.75A4.583,4.583,0,1,1-.75,3.833,4.589,4.589,0,0,1,3.833-.75Zm0,6.667A2.083,2.083,0,1,0,1.75,3.833,2.086,2.086,0,0,0,3.833,5.917Z" transform="translate(11.167 9.5)" fill="#bac1cc" opacity="0.4"/>
    <path id="Vector-3" data-name="Vector" d="M.5,13.339a1.25,1.25,0,0,1-.7-2.288L8.02,5.535a5.031,5.031,0,0,1,5.911.323l.011.009.544.478a2.467,2.467,0,0,0,3.066,0L24.486.39a4.951,4.951,0,0,1,6.329,0l2.717,2.333a1.25,1.25,0,1,1-1.629,1.9L29.186,2.287a2.467,2.467,0,0,0-3.071,0l-6.934,5.95a4.951,4.951,0,0,1-6.329,0l-.011-.009L12.3,7.75a2.493,2.493,0,0,0-2.884-.14L1.2,13.127A1.244,1.244,0,0,1,.5,13.339Z" transform="translate(3.95 19.494)" fill="#bac1cc" opacity="0.4"/>
    <path id="Vector-4" data-name="Vector" d="M0,0H40V40H0Z" fill="none" opacity="0"/>
  </g>
</svg>
