<svg xmlns="http://www.w3.org/2000/svg" width="40" height="40" viewBox="0 0 40 40">
  <g id="vuesax_twotone_gallery-add" data-name="vuesax/twotone/gallery-add" transform="translate(-748 -254)">
    <g id="gallery-add" transform="translate(748 254)">
      <path id="Vector" d="M3.846-.75a4.6,4.6,0,1,1-4.6,4.6A4.6,4.6,0,0,1,3.846-.75Zm0,6.686A2.089,2.089,0,1,0,1.757,3.846,2.092,2.092,0,0,0,3.846,5.936Z" transform="translate(11.158 9.493)" fill="#8d98aa" opacity="0.4"/>
      <path id="Vector-2" data-name="Vector" d="M22.159,35.071h-10c-4.616,0-7.742-.977-9.839-3.073S-.75,26.775-.75,22.159v-10c0-4.616.977-7.742,3.073-9.839S7.547-.75,12.162-.75h6.664a1.25,1.25,0,1,1,0,2.5H12.162c-3.909,0-6.474.744-8.072,2.341S1.749,8.253,1.749,12.162v10c0,3.909.744,6.474,2.341,8.072s4.162,2.341,8.072,2.341h10c3.909,0,6.474-.744,8.072-2.341s2.341-4.162,2.341-8.072V13.828a1.25,1.25,0,0,1,2.5,0v8.331c0,4.616-.977,7.742-3.073,9.839S26.775,35.071,22.159,35.071Z" transform="translate(2.839 2.839)" fill="#8d98aa"/>
      <g id="Group_591" data-name="Group 591" transform="translate(24.957 2.507)" opacity="0.4">
        <path id="Vector-3" data-name="Vector" d="M9.7,1.757H.5A1.254,1.254,0,0,1,.5-.75H9.7a1.254,1.254,0,0,1,0,2.507Z" transform="translate(0.75 5.346)" fill="#8d98aa"/>
        <path id="Vector-4" data-name="Vector" d="M.5,10.95A1.254,1.254,0,0,1-.75,9.7V.5A1.254,1.254,0,0,1,1.757.5V9.7A1.254,1.254,0,0,1,.5,10.95Z" transform="translate(5.346 0.75)" fill="#8d98aa"/>
      </g>
      <path id="Vector-5" data-name="Vector" d="M.5,13.379a1.247,1.247,0,0,1-1.038-.555A1.256,1.256,0,0,1-.2,11.085L8.016,5.553a5.016,5.016,0,0,1,5.909.324l.011.009.544.479a2.46,2.46,0,0,0,3.065,0L24.475.394a4.937,4.937,0,0,1,6.326,0l2.715,2.34a1.252,1.252,0,0,1-1.628,1.9L29.173,2.3a2.459,2.459,0,0,0-3.07,0L19.172,8.263a4.937,4.937,0,0,1-6.326,0l-.011-.009-.544-.479a2.485,2.485,0,0,0-2.883-.14L1.2,13.167A1.241,1.241,0,0,1,.5,13.379Z" transform="translate(3.959 19.465)" fill="#8d98aa" opacity="0.4"/>
      <path id="Vector-6" data-name="Vector" d="M0,0H40V40H0Z" fill="none" opacity="0"/>
    </g>
  </g>
</svg>
