<svg xmlns="http://www.w3.org/2000/svg" width="20" height="20" viewBox="0 0 20 20">
  <g id="vuesax_twotone_info-circle" data-name="vuesax/twotone/info-circle" transform="translate(-364 -252)">
    <g id="info-circle" transform="translate(364 252)">
      <path id="Vector" d="M8.208,17.167A8.948,8.948,0,0,1,1.881,1.881,8.948,8.948,0,1,1,14.536,14.536,8.9,8.9,0,0,1,8.208,17.167ZM8.208.5a7.708,7.708,0,1,0,7.708,7.708A7.717,7.717,0,0,0,8.208.5Z" transform="translate(1.792 1.792)" fill="#8d98aa"/>
      <path id="Vector-2" data-name="Vector" d="M-.125,4.667A.625.625,0,0,1-.75,4.042V-.125A.625.625,0,0,1-.125-.75.625.625,0,0,1,.5-.125V4.042A.625.625,0,0,1-.125,4.667Z" transform="translate(10.125 6.792)" fill="#8d98aa" opacity="0.4"/>
      <path id="Vector-3" data-name="Vector" d="M-.159.667H-.167A.833.833,0,0,1-1-.167.833.833,0,0,1-.167-1h.007a.833.833,0,0,1,.833.833A.833.833,0,0,1-.159.667Z" transform="translate(10.162 13.5)" fill="#8d98aa" opacity="0.4"/>
      <path id="Vector-4" data-name="Vector" d="M0,0H20V20H0Z" fill="none" opacity="0"/>
    </g>
  </g>
</svg>
