<svg xmlns="http://www.w3.org/2000/svg" width="54" height="54" viewBox="0 0 54 54">
  <g id="Group_138579" data-name="Group 138579" transform="translate(-161 -728)">
    <rect id="Rectangle_111429" data-name="Rectangle 111429" width="54" height="54" rx="12" transform="translate(161 728)" fill="#edf0f5" opacity="0.4"/>
    <path id="Path_147414" data-name="Path 147414" d="M1.45-11.288a5.221,5.221,0,0,0-5.23,5.23A5.221,5.221,0,0,0,1.45-.829,5.221,5.221,0,0,0,6.68-6.058,5.221,5.221,0,0,0,1.45-11.288Zm0,8.629a3.406,3.406,0,0,1-3.4-3.4,3.4,3.4,0,0,1,3.4-3.4,3.4,3.4,0,0,1,3.4,3.4A3.406,3.406,0,0,1,1.45-2.659ZM8.113-11.5a1.22,1.22,0,0,0-1.22-1.22,1.22,1.22,0,0,0-1.22,1.22,1.217,1.217,0,0,0,1.22,1.22A1.217,1.217,0,0,0,8.113-11.5Zm3.464,1.238A6.036,6.036,0,0,0,9.93-14.538a6.076,6.076,0,0,0-4.274-1.648c-1.684-.1-6.732-.1-8.416,0a6.067,6.067,0,0,0-4.274,1.643,6.056,6.056,0,0,0-1.648,4.274c-.1,1.684-.1,6.731,0,8.415A6.036,6.036,0,0,0-7.034,2.421,6.084,6.084,0,0,0-2.76,4.068c1.684.1,6.732.1,8.416,0A6.037,6.037,0,0,0,9.93,2.421a6.076,6.076,0,0,0,1.648-4.274C11.673-3.537,11.673-8.58,11.577-10.264ZM9.4-.046A3.442,3.442,0,0,1,7.463,1.893c-1.343.533-4.529.41-6.012.41s-4.674.118-6.012-.41A3.442,3.442,0,0,1-6.5-.046c-.533-1.343-.41-4.529-.41-6.012s-.118-4.674.41-6.012A3.442,3.442,0,0,1-4.562-14.01c1.343-.533,4.529-.41,6.012-.41s4.674-.118,6.012.41A3.442,3.442,0,0,1,9.4-12.071c.533,1.343.41,4.529.41,6.012S9.934-1.384,9.4-.046Z" transform="translate(186.199 761.257)" fill="#F29030"/>
  </g>
</svg>
