<svg xmlns="http://www.w3.org/2000/svg" width="54" height="54" viewBox="0 0 54 54">
  <g id="Group_154608" data-name="Group 154608" transform="translate(-18 -728)">
    <rect id="Rectangle_111428" data-name="Rectangle 111428" width="54" height="54" rx="12" transform="translate(18 728)" fill="#edf0f5" opacity="0.4"/>
    <path id="linked_in" data-name="linked in" d="M-48.628-30V-46.024H-53.6V-30ZM-51.12-48.208a2.906,2.906,0,0,0,2.88-2.912A2.88,2.88,0,0,0-51.12-54,2.88,2.88,0,0,0-54-51.12a2.906,2.906,0,0,0,2.88,2.912ZM-30-30h0v-8.8c0-4.308-.926-7.624-5.962-7.624a5.228,5.228,0,0,0-4.708,2.588h-.069v-2.186h-4.773V-30h4.97v-7.934c0-2.089.4-4.114,2.983-4.114,2.549,0,2.587,2.384,2.587,4.243V-30Z" transform="translate(87 797)" fill="#245389"/>
  </g>
</svg>
