<svg xmlns="http://www.w3.org/2000/svg" xmlns:xlink="http://www.w3.org/1999/xlink" width="50" height="50" viewBox="0 0 50 50">
  <defs>
    <linearGradient id="linear-gradient" x1="-0.94" y1="-0.961" x2="1.569" y2="1.32" gradientUnits="objectBoundingBox">
      <stop offset="0" stop-color="#181f32"/>
      <stop offset="1" stop-color="#646976"/>
    </linearGradient>
    <clipPath id="clip-path">
      <rect id="Rectangle_15" data-name="Rectangle 15" width="50" height="50" transform="translate(250 845)" fill="url(#linear-gradient)"/>
    </clipPath>
    <linearGradient id="linear-gradient-3" x1="-0.94" y1="-0.961" x2="1.569" y2="1.32" gradientUnits="objectBoundingBox">
      <stop offset="0" stop-color="#d5d5d5"/>
      <stop offset="1" stop-color="#646976"/>
    </linearGradient>
  </defs>
  <g id="Mask_Group_5" data-name="Mask Group 5" transform="translate(-250 -845)" clip-path="url(#clip-path)">
    <g id="Group_138778" data-name="Group 138778" transform="translate(250 845)">
      <rect id="Rectangle_111479" data-name="Rectangle 111479" width="50" height="50" fill="none" opacity="0"/>
      <path id="Vector" d="M26.4,6.6V22.683c0,4.95-2.954,6.6-6.6,6.6H6.6c-3.645,0-6.6-1.648-6.6-6.6V6.6C0,1.238,2.954,0,6.6,0A3.69,3.69,0,0,0,7.683,2.623a3.69,3.69,0,0,0,2.623,1.089H16.08A3.718,3.718,0,0,0,19.8,0C23.444,0,26.4,1.238,26.4,6.6Z" transform="translate(11.341 15.548)" fill="url(#linear-gradient)"/>
      <path id="Vector-2" data-name="Vector" d="M13.2,3.712A3.718,3.718,0,0,1,9.487,7.424H3.712A3.712,3.712,0,1,1,3.712,0H9.487A3.718,3.718,0,0,1,13.2,3.712Z" transform="translate(17.941 11.835)" fill="url(#linear-gradient-3)"/>
      <g id="Group" transform="translate(16.705 28.746)">
        <path id="Vector-3" data-name="Vector" d="M7.837,2.474h-6.6A1.246,1.246,0,0,1,0,1.238,1.246,1.246,0,0,1,1.238,0h6.6A1.246,1.246,0,0,1,9.074,1.238,1.246,1.246,0,0,1,7.837,2.474Z" fill="url(#linear-gradient-3)"/>
      </g>
      <g id="Group-2" data-name="Group" transform="translate(16.705 35.345)">
        <path id="Vector-4" data-name="Vector" d="M14.437,2.474H1.238A1.246,1.246,0,0,1,0,1.238,1.246,1.246,0,0,1,1.238,0h13.2a1.246,1.246,0,0,1,1.238,1.238,1.246,1.246,0,0,1-1.238,1.237Z" fill="url(#linear-gradient-3)"/>
      </g>
    </g>
  </g>
</svg>
