<svg id="location" xmlns="http://www.w3.org/2000/svg" width="13" height="13" viewBox="0 0 13 13">
  <g id="location-2" data-name="location">
    <path id="Vector" d="M1.712,3.923A2.212,2.212,0,1,1,3.923,1.712,2.214,2.214,0,0,1,1.712,3.923Zm0-3.435A1.223,1.223,0,1,0,2.935,1.712,1.224,1.224,0,0,0,1.712.489Z" transform="translate(4.788 3.88)" fill="#8d98aa" opacity="0.4"/>
    <path id="Vector-2" data-name="Vector" d="M4.634-.5A5.329,5.329,0,0,1,7.727.47a4.847,4.847,0,0,1,1.9,2.924C10.3,6.35,8.52,8.815,6.913,10.362a3.28,3.28,0,0,1-4.56,0C.748,8.811-1.024,6.343-.357,3.388a4.847,4.847,0,0,1,1.9-2.92A5.327,5.327,0,0,1,4.634-.5Zm0,10.813a2.3,2.3,0,0,0,1.606-.651c1.428-1.375,3.01-3.54,2.442-6.054A4,4,0,0,0,4.634.471,4,4,0,0,0,.588,3.6C.02,6.116,1.6,8.285,3.024,9.662A2.312,2.312,0,0,0,4.635,10.313Z" transform="translate(1.865 1.107)" fill="#8d98aa"/>
    <path id="Vector-3" data-name="Vector" d="M0,0H13V13H0Z" transform="translate(13 13) rotate(180)" fill="none" opacity="0"/>
  </g>
</svg>
