<svg xmlns="http://www.w3.org/2000/svg" width="22" height="25.985" viewBox="0 0 22 25.985">
  <g id="Group_138441" data-name="Group 138441" transform="translate(-235 -207)">
    <path id="Union_3" data-name="Union 3" d="M-3192.868-1131.52l-2.244-3.927A11,11,0,0,1-3203-1146a11,11,0,0,1,11-11,11,11,0,0,1,11,11,11,11,0,0,1-7.888,10.553l-2.244,3.927a.99.99,0,0,1-.868.5A.99.99,0,0,1-3192.868-1131.52Z" transform="translate(3438 1364)" fill="#245389"/>
    <g id="Group_139440" data-name="Group 139440" transform="translate(237.773 215.491)">
      <g id="Group_139396" data-name="Group 139396" transform="translate(3.274 4.212)">
        <path id="Path_153911" data-name="Path 153911" d="M175.8,185.033h.352l-.076.777h.223l.076-.777h.352l.02-.207h-.927Z" transform="translate(-175.8 -184.826)" fill="#fff"/>
        <path id="Path_153912" data-name="Path 153912" d="M188.74,184.842a.285.285,0,0,0-.06.045.458.458,0,0,0-.057.066.287.287,0,0,0-.04.078l-.077.78h.223l.025-.253h.6l-.025.253h.223l.1-.984h-.851A.115.115,0,0,0,188.74,184.842Zm.092.238a.18.18,0,0,1,.08-.045h.488l-.031.313h-.6l.019-.189A.218.218,0,0,1,188.832,185.08Z" transform="translate(-185.676 -184.826)" fill="#fff"/>
        <path id="Path_153913" data-name="Path 153913" d="M203.924,185.509l.067-.683h-.223l-.071.72a.2.2,0,0,0,.013.089.369.369,0,0,0,.045.086.284.284,0,0,0,.062.064.106.106,0,0,0,.062.025h.625l.021-.209h-.513A.113.113,0,0,1,203.924,185.509Z" transform="translate(-197.846 -184.826)" fill="#fff"/>
        <path id="Path_153914" data-name="Path 153914" d="M216.7,184.826l-.515.4.039-.4H216l-.1.984h.223l.039-.4.52.4h.362l-.629-.492.643-.492Z" transform="translate(-207.255 -184.826)" fill="#fff"/>
        <path id="Path_153915" data-name="Path 153915" d="M232.17,184.842a.285.285,0,0,0-.06.045.459.459,0,0,0-.057.066.285.285,0,0,0-.04.078l-.076.78h.223l.025-.253h.6l-.025.253h.223l.1-.984h-.851A.115.115,0,0,0,232.17,184.842Zm.092.238a.18.18,0,0,1,.08-.045h.488l-.031.313h-.6l.018-.189A.22.22,0,0,1,232.262,185.08Z" transform="translate(-220.252 -184.826)" fill="#fff"/>
      </g>
      <g id="Group_139397" data-name="Group 139397" transform="translate(0 0)">
        <path id="Path_153920" data-name="Path 153920" d="M153.009,135.923H150l.158-1.258h-.93l.1.256-.162,1.293v.01h0l0,.019-.239,1.648h-.751l.427-3.228h-.936l.107.263-.392,2.966h-.7l.087-.577v0c0-.007,0-.016,0-.023l.115-.791a.005.005,0,0,1,0,0,.567.567,0,0,0-.114-.357h0a.979.979,0,0,0-.1-.085.7.7,0,0,0-.157-.089.507.507,0,0,0-.148-.035c-.046,0-.1-.006-.141-.006h-2.054L144,137.088l-.076.527h0l-.042.276h-.706l.105-.715v-.016l.128-.87c0-.009,0-.016,0-.025l.055-.367h-2.333v.006h-2.574l-.037,0a.131.131,0,0,0-.117.144.134.134,0,0,0,.124.138.68.68,0,0,0,.109,0h.665a.859.859,0,0,1,.1,0c.065.008.118.031.12.109s-.037.114-.119.123a.86.86,0,0,1-.1,0h-1.437a.56.56,0,0,0-.131.009.123.123,0,0,0-.1.144.122.122,0,0,0,.117.123H140.4a.087.087,0,0,1,.03.005l.006,0a.122.122,0,0,1,.03.015h0a.125.125,0,0,1,.026.025.121.121,0,0,1,.026.074v0a.123.123,0,0,1-.124.124h-.027v0h-3.322a.906.906,0,0,0-.109,0,.134.134,0,0,0-.124.138.137.137,0,0,0,.125.138c.036,0,.073,0,.109,0h2.607a.67.67,0,0,1,.12,0,.122.122,0,0,1,.115.118.119.119,0,0,1-.1.118.507.507,0,0,1-.12.008H138.23c-.044,0-.088,0-.133,0a.126.126,0,0,0-.126.123.132.132,0,0,0,.084.139h2.19l-.02.137-.079.55h5.623v0h.833v0h6.386v-.337l.273-1.871A.272.272,0,0,0,153.009,135.923Zm-10.5.908h0l-.155,1.058v0h-1.3l.077-.522h0l.03-.205h0l.066-.445a.318.318,0,0,1,.314-.271h1.022Zm3.454.257-.072.5,0,.026v0l-.041.273h-1.138l.077-.527h0l.041-.277.051-.353.042-.284h.766a.5.5,0,0,1,.25.115.331.331,0,0,1,.069.168.148.148,0,0,1,.007.035Zm6.224.8h-2.165a.474.474,0,0,1-.083-.035.215.215,0,0,1-.085-.067.224.224,0,0,1-.043-.085.7.7,0,0,1-.019-.112l.165-1.119H152.4Z" transform="translate(-136.812 -134.664)" fill="#fff"/>
        <path id="Path_153921" data-name="Path 153921" d="M225.264,135.42h.772l.1-.66h-.883l.1.1Z" transform="translate(-217.824 -134.751)" fill="#fff"/>
        <path id="Path_153922" data-name="Path 153922" d="M237.738,135.42h.772l.1-.661H237.7l.116.116Z" transform="translate(-229.229 -134.751)" fill="#fff"/>
        <path id="Path_153923" data-name="Path 153923" d="M195.49,135.42h.772l.1-.661h-.888l.1.1Z" transform="translate(-190.545 -134.751)" fill="#fff"/>
        <path id="Path_153924" data-name="Path 153924" d="M207.835,135.421h.773l.1-.66h0v0h-.88l.093.093Z" transform="translate(-201.862 -134.751)" fill="#fff"/>
      </g>
      <g id="Group_139400" data-name="Group 139400" transform="translate(3.094 5.818)">
        <path id="Path_153925" data-name="Path 153925" d="M174.108,204.388l-.009.12h-.273a.313.313,0,0,1-.11-.014.078.078,0,0,1-.047-.052.322.322,0,0,1-.006-.112.339.339,0,0,1,.023-.112.1.1,0,0,1,.055-.051.33.33,0,0,1,.112-.014h.2l-.018.236Zm-.312-.335a.1.1,0,0,1-.022-.024.041.041,0,0,1-.008-.025.049.049,0,0,1,.012-.025.11.11,0,0,1,.026-.024.049.049,0,0,1,.026-.01.043.043,0,0,1,.025.01.089.089,0,0,1,.022.024.043.043,0,0,1,.008.025.047.047,0,0,1-.012.025.119.119,0,0,1-.026.024.047.047,0,0,1-.025.01A.041.041,0,0,1,173.8,204.053Zm.142.218h-.123c-.022,0-.033.009-.035.028l0,.061q0,.028.03.028h.123Zm-.005-.218a.1.1,0,0,1-.022-.024A.041.041,0,0,1,173.9,204a.05.05,0,0,1,.012-.025.112.112,0,0,1,.026-.024.049.049,0,0,1,.026-.01.043.043,0,0,1,.025.01.089.089,0,0,1,.022.024.043.043,0,0,1,.008.025.047.047,0,0,1-.012.025.12.12,0,0,1-.026.024.047.047,0,0,1-.025.01A.041.041,0,0,1,173.932,204.053Z" transform="translate(-173.662 -203.945)" fill="#f29030"/>
        <path id="Path_153926" data-name="Path 153926" d="M178.816,206.636l-.009.12h-.3l.009-.12h.115l.018-.236h.107l-.018.236Zm-.241.288a.1.1,0,0,1-.022-.024.042.042,0,0,1-.008-.025.049.049,0,0,1,.012-.025.108.108,0,0,1,.026-.024.049.049,0,0,1,.026-.01.042.042,0,0,1,.025.01.087.087,0,0,1,.022.024.043.043,0,0,1,.008.025.048.048,0,0,1-.012.025.125.125,0,0,1-.026.024.047.047,0,0,1-.025.01A.041.041,0,0,1,178.575,206.924Zm.136,0a.1.1,0,0,1-.022-.024.041.041,0,0,1-.008-.025.049.049,0,0,1,.012-.025.109.109,0,0,1,.026-.024.049.049,0,0,1,.026-.01.042.042,0,0,1,.025.01.088.088,0,0,1,.022.024.042.042,0,0,1,.008.025.048.048,0,0,1-.012.025.124.124,0,0,1-.026.024.047.047,0,0,1-.025.01A.041.041,0,0,1,178.711,206.924Z" transform="translate(-178.105 -206.194)" fill="#f29030"/>
        <path id="Path_153927" data-name="Path 153927" d="M181.972,204.388l-.009.12h-.3l.009-.12h.115l.018-.236h.107l-.018.236Zm-.193-.335a.1.1,0,0,1-.022-.024.041.041,0,0,1-.008-.025.049.049,0,0,1,.012-.025.11.11,0,0,1,.026-.024.049.049,0,0,1,.026-.01.042.042,0,0,1,.025.01.088.088,0,0,1,.022.024.043.043,0,0,1,.008.025.047.047,0,0,1-.012.025.121.121,0,0,1-.026.024.048.048,0,0,1-.025.01A.041.041,0,0,1,181.779,204.053Zm.136,0a.1.1,0,0,1-.022-.024.041.041,0,0,1-.008-.025.049.049,0,0,1,.012-.025.11.11,0,0,1,.026-.024.049.049,0,0,1,.026-.01.042.042,0,0,1,.025.01.088.088,0,0,1,.022.024A.043.043,0,0,1,182,204a.047.047,0,0,1-.012.025.121.121,0,0,1-.026.024.047.047,0,0,1-.025.01A.041.041,0,0,1,181.915,204.053Z" transform="translate(-180.996 -203.945)" fill="#f29030"/>
        <path id="Path_153928" data-name="Path 153928" d="M185.646,206.636l-.009.12h-.265a.416.416,0,0,1-.074-.005.131.131,0,0,1-.048-.017.182.182,0,0,1-.057.017.564.564,0,0,1-.086.005h-.284l.009-.12h.115l.013-.168h.107l-.013.168h.1a.09.09,0,0,0,.044-.008.037.037,0,0,0,.016-.032l.009-.128h.107l-.009.128a.032.032,0,0,0,.011.032.082.082,0,0,0,.042.008h.088a.3.3,0,0,0,.013-.076.588.588,0,0,0-.011-.144l.107-.017a.472.472,0,0,1,.011.155.381.381,0,0,1-.014.082Z" transform="translate(-183.887 -206.194)" fill="#f29030"/>
        <path id="Path_153929" data-name="Path 153929" d="M194.622,206.4l-.009.12h-.1a.266.266,0,0,1-.105.09.322.322,0,0,1-.137.029h-.123l.009-.12h.134a.164.164,0,0,0,.154-.085.093.093,0,0,0-.044-.032.217.217,0,0,0-.072-.01.71.71,0,0,0-.091.005l-.007-.118a.991.991,0,0,1,.107-.008.275.275,0,0,1,.142.03.179.179,0,0,1,.073.1Zm-.281.407a.1.1,0,0,1-.022-.024.042.042,0,0,1-.008-.025.049.049,0,0,1,.012-.025.108.108,0,0,1,.026-.024.048.048,0,0,1,.026-.01.042.042,0,0,1,.025.01.086.086,0,0,1,.022.024.043.043,0,0,1,.008.025.049.049,0,0,1-.012.025.128.128,0,0,1-.026.024.047.047,0,0,1-.025.01A.041.041,0,0,1,194.34,206.808Z" transform="translate(-192.428 -206.077)" fill="#f29030"/>
        <path id="Path_153930" data-name="Path 153930" d="M201.15,206.64h-.1a.535.535,0,0,1-.066.113.585.585,0,0,1-.094.1l-.065-.079a.45.45,0,0,0,.111-.133h-.075a.171.171,0,0,1-.087-.019.1.1,0,0,1-.044-.06.306.306,0,0,1-.007-.109.252.252,0,0,1,.027-.1.128.128,0,0,1,.064-.057.287.287,0,0,1,.11-.018.607.607,0,0,1,.1.007.346.346,0,0,1,.078.022l-.016.218h.082Zm-.211-.12a.036.036,0,0,0,.025-.007.037.037,0,0,0,.009-.024l.007-.1h-.1a.063.063,0,0,0-.034.007.032.032,0,0,0-.011.025l-.007.095Z" transform="translate(-198.445 -206.077)" fill="#f29030"/>
        <path id="Path_153931" data-name="Path 153931" d="M205.518,209.216h.215l-.009.12h-.215Z" transform="translate(-202.835 -208.773)" fill="#f29030"/>
        <path id="Path_153932" data-name="Path 153932" d="M208.014,205.314l-.009.12h-.3l.009-.12h.115l.027-.358h.107l-.027.358Z" transform="translate(-204.851 -204.871)" fill="#f29030"/>
        <path id="Path_153933" data-name="Path 153933" d="M210.865,205.434l.009-.12h.115l.027-.358h.107l-.036.478Z" transform="translate(-207.741 -204.871)" fill="#f29030"/>
        <path id="Path_153934" data-name="Path 153934" d="M214.932,204.956h.107l-.036.478H214.9Z" transform="translate(-211.434 -204.871)" fill="#f29030"/>
        <path id="Path_153935" data-name="Path 153935" d="M218.343,205.3a.2.2,0,0,1-.021-.127.465.465,0,0,1,.034-.148l.1.016a.33.33,0,0,0-.026.1.217.217,0,0,0,0,.077h.369l.018-.236h.106l-.027.356h-.463A.108.108,0,0,1,218.343,205.3Zm.2-.339a.1.1,0,0,1-.023-.024.041.041,0,0,1-.008-.025.05.05,0,0,1,.012-.025.11.11,0,0,1,.026-.024.049.049,0,0,1,.026-.01.042.042,0,0,1,.025.01.087.087,0,0,1,.022.024.043.043,0,0,1,.008.025.048.048,0,0,1-.012.025.123.123,0,0,1-.026.024.048.048,0,0,1-.025.01A.041.041,0,0,1,218.547,204.956Zm.136,0a.1.1,0,0,1-.022-.024.041.041,0,0,1-.008-.025.05.05,0,0,1,.012-.025.11.11,0,0,1,.026-.024.049.049,0,0,1,.026-.01.042.042,0,0,1,.025.01.087.087,0,0,1,.022.024.043.043,0,0,1,.008.025.048.048,0,0,1-.012.025.123.123,0,0,1-.026.024.048.048,0,0,1-.025.01A.041.041,0,0,1,218.684,204.956Z" transform="translate(-214.57 -204.772)" fill="#f29030"/>
        <path id="Path_153936" data-name="Path 153936" d="M226.663,204.956h.107l-.027.358h.073l-.009.12h-.18Z" transform="translate(-222.179 -204.871)" fill="#f29030"/>
        <path id="Path_153937" data-name="Path 153937" d="M228.422,209.216h.215l-.009.12h-.215Z" transform="translate(-223.815 -208.773)" fill="#f29030"/>
        <path id="Path_153938" data-name="Path 153938" d="M230.622,209.216h.215l-.009.12h-.215Z" transform="translate(-225.831 -208.773)" fill="#f29030"/>
        <path id="Path_153939" data-name="Path 153939" d="M233.279,206.3a.107.107,0,0,1,.03.095l-.018.243h-.478l.009-.12h.1a.479.479,0,0,1,0-.067.4.4,0,0,1,.011-.071.672.672,0,0,1,.024-.074.585.585,0,0,1,.2-.035A.178.178,0,0,1,233.279,206.3Zm-.077.095a.338.338,0,0,0-.06,0,.592.592,0,0,0-.1.009.228.228,0,0,0-.01.05.4.4,0,0,0,0,.067h.162Z" transform="translate(-227.846 -206.077)" fill="#f29030"/>
        <path id="Path_153940" data-name="Path 153940" d="M239.751,206.462l-.009.12h-.4l.009-.12h.223a.4.4,0,0,0-.019-.083.077.077,0,0,0-.028-.039.09.09,0,0,0-.048-.011.358.358,0,0,0-.083.01l-.02-.117a.437.437,0,0,1,.111-.013.236.236,0,0,1,.107.02.14.14,0,0,1,.06.072.744.744,0,0,1,.041.161Z" transform="translate(-233.826 -206.02)" fill="#f29030"/>
        <path id="Path_153941" data-name="Path 153941" d="M243.76,209.216h.215l-.009.12h-.215Z" transform="translate(-237.865 -208.773)" fill="#f29030"/>
        <path id="Path_153942" data-name="Path 153942" d="M246.452,204.388l-.009.12h-.079a.063.063,0,0,1-.038-.01.06.06,0,0,1-.021-.032l-.013-.042a.252.252,0,0,1-.2.084h-.145l.009-.12h.157a.139.139,0,0,0,.132-.083.1.1,0,0,0-.045-.033.205.205,0,0,0-.072-.011.71.71,0,0,0-.091.005l-.007-.118a1,1,0,0,1,.107-.008.255.255,0,0,1,.151.038.216.216,0,0,1,.076.124l.025.085Zm-.267-.335a.1.1,0,0,1-.022-.024.041.041,0,0,1-.008-.025.05.05,0,0,1,.012-.025.112.112,0,0,1,.026-.024.049.049,0,0,1,.026-.01.042.042,0,0,1,.025.01.088.088,0,0,1,.022.024.043.043,0,0,1,.008.025.047.047,0,0,1-.012.025.125.125,0,0,1-.026.024.048.048,0,0,1-.025.01A.041.041,0,0,1,246.185,204.053Z" transform="translate(-239.881 -203.945)" fill="#f29030"/>
        <path id="Path_153943" data-name="Path 153943" d="M251.433,205.434l.009-.12h.115l.027-.358h.107l-.036.478Z" transform="translate(-244.902 -204.871)" fill="#f29030"/>
        <path id="Path_153944" data-name="Path 153944" d="M255.5,204.956h.107l-.036.478h-.107Z" transform="translate(-248.594 -204.871)" fill="#f29030"/>
        <path id="Path_153945" data-name="Path 153945" d="M258.4,206.28a.346.346,0,0,1,.078.022l-.016.218a.407.407,0,0,1-.059.175.591.591,0,0,1-.132.157l-.065-.079a.45.45,0,0,0,.111-.133h-.075a.171.171,0,0,1-.087-.019.1.1,0,0,1-.044-.06.306.306,0,0,1-.008-.109.253.253,0,0,1,.027-.1.128.128,0,0,1,.064-.057.287.287,0,0,1,.11-.018A.607.607,0,0,1,258.4,206.28Zm-.076.241a.028.028,0,0,0,.033-.031l.007-.1h-.1a.063.063,0,0,0-.034.007.031.031,0,0,0-.011.025l-.007.095Z" transform="translate(-251.011 -206.077)" fill="#f29030"/>
        <path id="Path_153946" data-name="Path 153946" d="M264.847,205.263l-.009.12h-.074a.311.311,0,0,1-.024.112.106.106,0,0,1-.063.053.428.428,0,0,1-.133.016.369.369,0,0,1-.124-.016.087.087,0,0,1-.055-.054.292.292,0,0,1-.008-.114.674.674,0,0,1,.039-.185l.1.017a.68.68,0,0,0-.03.148.336.336,0,0,0,0,.084h.108a.163.163,0,0,0,.061-.008.035.035,0,0,0,.021-.032l.038-.5h.107l-.027.362Z" transform="translate(-256.74 -204.821)" fill="#f29030"/>
        <path id="Path_153947" data-name="Path 153947" d="M269.756,209.216h.215l-.009.12h-.215Z" transform="translate(-261.679 -208.773)" fill="#f29030"/>
        <path id="Path_153948" data-name="Path 153948" d="M272.251,206.636l-.009.12h-.3l.009-.12h.115l.018-.236h.107l-.018.236Zm-.241.288a.1.1,0,0,1-.022-.024.041.041,0,0,1-.008-.025.049.049,0,0,1,.012-.025.106.106,0,0,1,.026-.024.048.048,0,0,1,.026-.01.042.042,0,0,1,.025.01.087.087,0,0,1,.022.024.043.043,0,0,1,.008.025.048.048,0,0,1-.012.025.125.125,0,0,1-.026.024.047.047,0,0,1-.025.01A.041.041,0,0,1,272.01,206.924Zm.136,0a.1.1,0,0,1-.022-.024.041.041,0,0,1-.008-.025.05.05,0,0,1,.012-.025.108.108,0,0,1,.026-.024.048.048,0,0,1,.026-.01.042.042,0,0,1,.025.01.087.087,0,0,1,.022.024.043.043,0,0,1,.008.025.048.048,0,0,1-.012.025.125.125,0,0,1-.026.024.047.047,0,0,1-.025.01A.041.041,0,0,1,272.146,206.924Z" transform="translate(-263.694 -206.194)" fill="#f29030"/>
        <path id="Path_153949" data-name="Path 153949" d="M275.664,206.321a.07.07,0,0,1,.043.04.18.18,0,0,1,.008.079l-.017.233H275.1l.009-.12h.115l.018-.236h.107l-.008.106a.191.191,0,0,1,.089-.083.313.313,0,0,1,.14-.031A.273.273,0,0,1,275.664,206.321Zm-.064.232.009-.116a.331.331,0,0,0-.09-.008.162.162,0,0,0-.182.124Z" transform="translate(-266.585 -206.111)" fill="#f29030"/>
        <path id="Path_153950" data-name="Path 153950" d="M283.973,206.64h-.1a.535.535,0,0,1-.066.113.584.584,0,0,1-.094.1l-.065-.079a.45.45,0,0,0,.111-.133h-.075a.171.171,0,0,1-.087-.019.1.1,0,0,1-.044-.06.307.307,0,0,1-.007-.109.251.251,0,0,1,.027-.1.128.128,0,0,1,.064-.057.287.287,0,0,1,.11-.018.607.607,0,0,1,.1.007.344.344,0,0,1,.078.022l-.016.218h.082Zm-.211-.12a.028.028,0,0,0,.033-.031l.007-.1h-.1a.063.063,0,0,0-.034.007.031.031,0,0,0-.011.025l-.007.095Z" transform="translate(-274.313 -206.077)" fill="#f29030"/>
        <path id="Path_153951" data-name="Path 153951" d="M288.635,204.388l-.009.12h-.3l.009-.12h.115l.018-.236h.107l-.018.236Zm-.193-.335a.1.1,0,0,1-.022-.024.041.041,0,0,1-.008-.025.05.05,0,0,1,.012-.025.11.11,0,0,1,.026-.024.049.049,0,0,1,.026-.01.042.042,0,0,1,.025.01.086.086,0,0,1,.022.024.043.043,0,0,1,.008.025.047.047,0,0,1-.012.025.121.121,0,0,1-.026.024.048.048,0,0,1-.025.01A.041.041,0,0,1,288.442,204.053Zm.136,0a.1.1,0,0,1-.022-.024.041.041,0,0,1-.008-.025.05.05,0,0,1,.012-.025.111.111,0,0,1,.026-.024.049.049,0,0,1,.026-.01.042.042,0,0,1,.025.01.086.086,0,0,1,.022.024.043.043,0,0,1,.008.025.047.047,0,0,1-.012.025.123.123,0,0,1-.026.024.048.048,0,0,1-.025.01A.041.041,0,0,1,288.578,204.053Z" transform="translate(-278.702 -203.945)" fill="#f29030"/>
        <path id="Path_153952" data-name="Path 153952" d="M291.487,205.434l.009-.12h.115l.027-.358h.107l-.036.478Z" transform="translate(-281.593 -204.871)" fill="#f29030"/>
        <path id="Path_153953" data-name="Path 153953" d="M295.554,204.956h.107l-.036.478h-.107Z" transform="translate(-285.286 -204.871)" fill="#f29030"/>
        <path id="Path_153954" data-name="Path 153954" d="M298.454,206.28a.347.347,0,0,1,.078.022l-.016.218a.408.408,0,0,1-.059.175.592.592,0,0,1-.133.157l-.065-.079a.451.451,0,0,0,.111-.133H298.3a.171.171,0,0,1-.087-.019.1.1,0,0,1-.044-.06.306.306,0,0,1-.007-.109.252.252,0,0,1,.027-.1.128.128,0,0,1,.064-.057.287.287,0,0,1,.11-.018A.607.607,0,0,1,298.454,206.28Zm-.076.241a.036.036,0,0,0,.025-.007.037.037,0,0,0,.009-.024l.007-.1h-.1a.063.063,0,0,0-.034.007.032.032,0,0,0-.011.025l-.007.095Z" transform="translate(-287.702 -206.077)" fill="#f29030"/>
        <path id="Path_153955" data-name="Path 153955" d="M304.9,205.263l-.009.12h-.073a.313.313,0,0,1-.024.112.106.106,0,0,1-.063.053.429.429,0,0,1-.133.016.369.369,0,0,1-.124-.016.087.087,0,0,1-.055-.054.294.294,0,0,1-.008-.114.679.679,0,0,1,.039-.185l.1.017a.685.685,0,0,0-.03.148.341.341,0,0,0,0,.084h.108a.163.163,0,0,0,.061-.008.035.035,0,0,0,.021-.032l.037-.5h.107l-.027.362Z" transform="translate(-293.43 -204.821)" fill="#f29030"/>
        <path id="Path_153956" data-name="Path 153956" d="M309.81,209.216h.215l-.009.12H309.8Z" transform="translate(-298.369 -208.773)" fill="#f29030"/>
        <path id="Path_153957" data-name="Path 153957" d="M312.545,204.387l-.009.12H312l.009-.12h.111a.317.317,0,0,1-.007-.047.394.394,0,0,1,0-.053.146.146,0,0,1,.052-.112.246.246,0,0,1,.147-.035.584.584,0,0,1,.093.007.4.4,0,0,1,.081.022l-.016.218Zm-.317-.334a.1.1,0,0,1-.022-.024A.041.041,0,0,1,312.2,204a.049.049,0,0,1,.012-.025.111.111,0,0,1,.026-.024.049.049,0,0,1,.026-.01.042.042,0,0,1,.025.01.09.09,0,0,1,.022.024.044.044,0,0,1,.008.025.048.048,0,0,1-.012.025.124.124,0,0,1-.026.024.048.048,0,0,1-.025.01A.041.041,0,0,1,312.228,204.053Zm.146.208h-.113a.036.036,0,0,0-.025.007.039.039,0,0,0-.008.025l-.007.095h.113a.036.036,0,0,0,.025-.007.037.037,0,0,0,.009-.024Zm-.01-.208a.1.1,0,0,1-.022-.024.041.041,0,0,1-.008-.025.05.05,0,0,1,.012-.025.11.11,0,0,1,.026-.024.048.048,0,0,1,.026-.01.042.042,0,0,1,.025.01.089.089,0,0,1,.022.024.043.043,0,0,1,.008.025.048.048,0,0,1-.012.025.123.123,0,0,1-.026.024.047.047,0,0,1-.025.01A.041.041,0,0,1,312.365,204.053Z" transform="translate(-300.384 -203.945)" fill="#f29030"/>
        <path id="Path_153958" data-name="Path 153958" d="M318.32,204.388l-.009.12h-.3l.009-.12h.115l.018-.236h.107l-.018.236Zm-.126-.335a.1.1,0,0,1-.022-.024.041.041,0,0,1-.008-.025.05.05,0,0,1,.012-.025.109.109,0,0,1,.026-.024.049.049,0,0,1,.026-.01.042.042,0,0,1,.025.01.087.087,0,0,1,.022.024.043.043,0,0,1,.008.025.047.047,0,0,1-.012.025.121.121,0,0,1-.026.024.048.048,0,0,1-.025.01A.041.041,0,0,1,318.194,204.053Z" transform="translate(-305.894 -203.945)" fill="#f29030"/>
        <path id="Path_153959" data-name="Path 153959" d="M321.475,205.314l-.009.12h-.3l.009-.12h.115l.027-.358h.107l-.027.358Z" transform="translate(-308.784 -204.871)" fill="#f29030"/>
        <path id="Path_153960" data-name="Path 153960" d="M324.327,205.434l.009-.12h.115l.027-.358h.107l-.036.478Z" transform="translate(-311.675 -204.871)" fill="#f29030"/>
      </g>
    </g>
  </g>
</svg>
