<svg xmlns="http://www.w3.org/2000/svg" width="20" height="20" viewBox="0 0 20 20">
  <g id="vuesax_twotone_map" data-name="vuesax/twotone/map" transform="translate(-492 -252)">
    <g id="map" transform="translate(492 252)">
      <path id="Vector" d="M6.343-.75a.627.627,0,0,1,.174.025.627.627,0,0,1,.438.463A10.861,10.861,0,0,1,7.2,2.161V7.18c0,2.314-.488,3.884-1.537,4.942a.627.627,0,0,1-.889,0L-.566,6.787A.627.627,0,0,1-.75,6.343.627.627,0,0,1-.566,5.9L5.9-.566A.627.627,0,0,1,6.343-.75ZM5.166,10.744A6.5,6.5,0,0,0,5.942,7.18V2.161c0-.339-.012-.658-.035-.959L.765,6.343Z" transform="translate(11.758 5.292)" fill="#8d98aa"/>
      <path id="Vector-2" data-name="Vector" d="M5.705-.75h5a7.738,7.738,0,0,1,4.156.934,4.678,4.678,0,0,1,2.058,3.108.625.625,0,0,1-.167.581L3.873,16.75a.625.625,0,0,1-.581.167A4.678,4.678,0,0,1,.184,14.859,7.738,7.738,0,0,1-.75,10.7v-5C-.75,3.4-.262,1.835.786.786S3.4-.75,5.705-.75Zm9.909,3.992C15.045,1.3,13.594.5,10.7.5h-5C3.751.5,2.469.871,1.67,1.67S.5,3.751.5,5.705v5c0,2.891.8,4.342,2.743,4.911Z" transform="translate(1.796 1.796)" fill="#8d98aa"/>
      <path id="Vector-3" data-name="Vector" d="M7.18,7.2H2.161A10.861,10.861,0,0,1-.262,6.955a.627.627,0,0,1-.463-.438A.627.627,0,0,1-.566,5.9L5.9-.566a.627.627,0,0,1,.887,0L12.124,4.77a.627.627,0,0,1,0,.889C11.064,6.708,9.493,7.2,7.18,7.2ZM1.2,5.906c.3.024.62.035.959.035H7.18a6.5,6.5,0,0,0,3.565-.776l-4.4-4.4Z" transform="translate(5.292 11.758)" fill="#8d98aa"/>
      <path id="Vector-4" data-name="Vector" d="M2.357-.75a3.013,3.013,0,0,1,3.02,2.324,3.523,3.523,0,0,1-.314,2.382A5.79,5.79,0,0,1,3.826,5.584,2.112,2.112,0,0,1,2.36,6.17,2.136,2.136,0,0,1,.89,5.585,4.187,4.187,0,0,1-.663,1.573,3.013,3.013,0,0,1,2.357-.75Zm0,5.665a.864.864,0,0,0,.6-.24A3.125,3.125,0,0,0,4.154,1.854,1.769,1.769,0,0,0,2.357.5a1.77,1.77,0,0,0-1.8,1.353A3.11,3.11,0,0,0,1.751,4.673.885.885,0,0,0,2.36,4.915Z" transform="translate(5.247 4.935)" fill="#8d98aa" opacity="0.4"/>
      <path id="Vector-5" data-name="Vector" d="M0,0H20V20H0Z" fill="none" opacity="0"/>
      <path id="Vector-6" data-name="Vector" d="M.338,1.173H.331A.836.836,0,1,1,.331-.5H.338a.836.836,0,0,1,0,1.673Z" transform="translate(7.249 6.914)" fill="#8d98aa" opacity="0.4"/>
    </g>
  </g>
</svg>
