<svg id="vuesax_twotone_document-text" data-name="vuesax/twotone/document-text" xmlns="http://www.w3.org/2000/svg" width="18" height="18" viewBox="0 0 18 18">
  <g id="document-text">
    <path id="Vector" d="M9.56,15.371h-4.5c-2.077,0-3.484-.44-4.428-1.383S-.75,11.637-.75,9.56v-4.5C-.75,2.984-.31,1.577.633.633S2.984-.75,5.061-.75H8.81a.562.562,0,0,1,.562.562A.562.562,0,0,1,8.81.375H5.061C3.3.375,2.147.71,1.428,1.428S.375,3.3.375,5.061v4.5c0,1.759.335,2.914,1.054,3.633S3.3,14.246,5.061,14.246h4.5c1.759,0,2.914-.335,3.633-1.054s1.054-1.873,1.054-3.633V5.811a.562.562,0,1,1,1.125,0V9.56c0,2.077-.44,3.484-1.383,4.428S11.637,15.371,9.56,15.371Z" transform="translate(1.689 1.689)" fill="#697485"/>
    <path id="Vector-2" data-name="Vector" d="M5.826,6.39H2.82c-2.569,0-3.57-1-3.57-3.57V-.186A.564.564,0,0,1-.4-.707a.564.564,0,0,1,.614.122L6.224,5.427a.564.564,0,0,1-.4.962ZM.377,1.174V2.82c0,1.94.5,2.442,2.442,2.442H4.465Z" transform="translate(10.671 1.689)" fill="#697485"/>
    <path id="Vector-3" data-name="Vector" d="M4.323.377H-.186A.564.564,0,0,1-.75-.186.564.564,0,0,1-.186-.75H4.323a.564.564,0,0,1,.564.564A.564.564,0,0,1,4.323.377Z" transform="translate(5.433 9.936)" fill="#697485" opacity="0.4"/>
    <path id="Vector-4" data-name="Vector" d="M2.82.377H-.186A.564.564,0,0,1-.75-.186.564.564,0,0,1-.186-.75H2.82a.564.564,0,0,1,.564.564A.564.564,0,0,1,2.82.377Z" transform="translate(5.435 12.936)" fill="#697485" opacity="0.4"/>
    <path id="Vector-5" data-name="Vector" d="M0,0H18V18H0Z" fill="none" opacity="0"/>
  </g>
</svg>
