<svg xmlns="http://www.w3.org/2000/svg" width="24" height="24" viewBox="0 0 24 24">
  <g id="vuesax_twotone_notification-bing" data-name="vuesax/twotone/notification-bing" transform="translate(-108 -188)">
    <g id="notification-bing">
      <path id="Vector" d="M3.33,4.08A4.105,4.105,0,0,1,.45,2.88,4.105,4.105,0,0,1-.75,0H.75a2.6,2.6,0,0,0,.76,1.82,2.6,2.6,0,0,0,1.82.76A2.583,2.583,0,0,0,5.91,0h1.5A4.085,4.085,0,0,1,3.33,4.08Z" transform="translate(116.67 206.82)" fill="#fff" opacity="0.4"/>
      <path id="Vector-2" data-name="Vector" d="M0,4.08a.75.75,0,0,1-.75-.75V0A.75.75,0,0,1,0-.75.75.75,0,0,1,.75,0V3.33A.75.75,0,0,1,0,4.08Z" transform="translate(120 194.44)" fill="#fff" opacity="0.4"/>
      <path id="Vector-3" data-name="Vector" d="M8.917-.75a7.437,7.437,0,0,1,7.42,7.408v2.1a4.546,4.546,0,0,0,.522,1.892l1.271,2.122a2.97,2.97,0,0,1-1.606,4.347,24.042,24.042,0,0,1-7.6,1.231,24.041,24.041,0,0,1-7.6-1.231,2.948,2.948,0,0,1-1.9-1.76,3,3,0,0,1,.29-2.585L.984,10.655A4.469,4.469,0,0,0,1.507,8.76V6.66A7.418,7.418,0,0,1,8.917-.75Zm0,17.6A22.544,22.544,0,0,0,16.051,15.7a1.47,1.47,0,0,0,.793-2.153l-1.27-2.12a5.991,5.991,0,0,1-.737-2.665V6.66a5.915,5.915,0,0,0-11.83,0v2.1a5.9,5.9,0,0,1-.738,2.667L1,13.545a1.494,1.494,0,0,0-.171,1.293,1.479,1.479,0,0,0,.965.86A22.543,22.543,0,0,0,8.922,16.853Z" transform="translate(111.103 190)" fill="#fff"/>
      <path id="Vector-4" data-name="Vector" d="M0,0H24V24H0Z" transform="translate(108 188)" fill="none" opacity="0"/>
    </g>
  </g>
</svg>
