<svg xmlns="http://www.w3.org/2000/svg" width="222" height="222" viewBox="0 0 222 222">
  <g id="Group_138717" data-name="Group 138717" transform="translate(-65 -197)">
    <rect id="Rectangle_111374" data-name="Rectangle 111374" width="222" height="222" transform="translate(65 197)" fill="none"/>
    <g id="Group_138244" data-name="Group 138244" transform="translate(-2229.114 -1298.964)">
      <circle id="Ellipse_6353" data-name="Ellipse 6353" cx="61.5" cy="61.5" r="61.5" transform="translate(2358.114 1536.964)" fill="#07e"/>
      <path id="Path_153642" data-name="Path 153642" d="M2312.35,1797.874a48.233,48.233,0,0,1-11.156-1.751c-1.423-.423-2.709-1.2-2.151-2.978s1.924-1.889,3.566-1.417c6.02,1.734,12.057,2.254,18.078-.049a13.8,13.8,0,0,0,7.156-6.164c.715-1.22.515-1.688-.83-2.2a11.23,11.23,0,0,1-7.733-10.244c-.349-4.725,3.516-7.645,8.113-6.338,4.09,1.162,6.852,4.977,6.993,9.659.122,4.05.153,4.132,4.081,3.017,3.342-.95,6.387-2.445,8.461-5.444.858-1.241,2.01-2.135,3.524-1.05,1.615,1.156,1.066,2.583.1,3.835a19.725,19.725,0,0,1-14.981,7.7,3.178,3.178,0,0,0-3.222,2.139c-3.179,6.873-9.058,9.938-16.267,10.906C2314.771,1797.675,2313.447,1797.765,2312.35,1797.874Zm17.424-20.484c0-.7.037-1.122-.006-1.536a5.124,5.124,0,0,0-3.1-4.608c-1.936-.8-3.058.052-2.8,2.079a6.532,6.532,0,0,0,3.488,5.158c.656.356,1.382,1.078,2.076.732C2330.211,1778.827,2329.663,1777.823,2329.773,1777.39Z" transform="translate(0 -152.372)" fill="#07e"/>
      <path id="Path_153644" data-name="Path 153644" d="M2728.244,1554.054c-1.516.094-3.14-.04-3.149-2.2-.009-2.078,1.563-2.318,3.23-2.388,8.04-.339,12.874-3.861,15.516-11.442,1.17-3.358,2.006-6.832,3.167-10.194,1.446-4.183,3.675-7.722,8.439-8.76a8.643,8.643,0,0,1,1.233-.221,2.182,2.182,0,0,1,2.567,1.918,2.057,2.057,0,0,1-1.88,2.556c-3.09.346-4.683,2.332-5.629,4.955-.993,2.753-1.772,5.582-2.659,8.373-.38,1.2-.76,2.395-1.2,3.57C2744.581,1549.049,2737.825,1553.832,2728.244,1554.054Z" transform="translate(-247.17 -8.787)" fill="#ffde00"/>
      <path id="Path_153645" data-name="Path 153645" d="M2431.4,1890.472a6.476,6.476,0,0,1-.022-12.951,6.476,6.476,0,1,1,.022,12.951Z" transform="translate(-73.114 -216.805)" fill="#ffde00"/>
      <path id="Path_153646" data-name="Path 153646" d="M2626.807,1936.641a6.421,6.421,0,0,1-6.531-6.443,6.482,6.482,0,0,1,12.963-.072A6.369,6.369,0,0,1,2626.807,1936.641Z" transform="translate(-186.379 -243.596)" fill="#07e"/>
      <path id="Path_153647" data-name="Path 153647" d="M2391.29,1657.107a6.359,6.359,0,0,1,6.535-6.438,6.483,6.483,0,0,1-.078,12.965A6.373,6.373,0,0,1,2391.29,1657.107Z" transform="translate(-53.577 -85.24)" fill="#77bf51"/>
      <path id="Path_153648" data-name="Path 153648" d="M2760.6,1712.7a6.347,6.347,0,0,1-6.479-6.508,6.49,6.49,0,1,1,12.98.062A6.306,6.306,0,0,1,2760.6,1712.7Z" transform="translate(-264.001 -113.694)" fill="#07e"/>
      <path id="Path_153649" data-name="Path 153649" d="M2539.7,1510.14a6.541,6.541,0,0,1-13.081.1,6.541,6.541,0,0,1,13.081-.1Z" transform="translate(-132.063)" fill="#ffde00"/>
      <path id="Path_153650" data-name="Path 153650" d="M2721.642,1888.284c.067,1.362-.4,2.364-1.868,2.557a2.244,2.244,0,0,1-2.64-2.1,27.521,27.521,0,0,0-2.061-6.775,15.779,15.779,0,0,0-8.986-8.292c-.457-.172-.932-.3-1.373-.506-1.235-.572-1.912-1.557-1.4-2.865a2.217,2.217,0,0,1,3.055-1.355c6.994,2.169,11.507,6.84,13.9,13.663A23.263,23.263,0,0,1,2721.642,1888.284Z" transform="translate(-234.437 -211.737)" fill="#77bf51"/>
      <path id="Path_153651" data-name="Path 153651" d="M2585.96,1541.277a3.285,3.285,0,0,1-6.57-.026,3.285,3.285,0,1,1,6.57.026Z" transform="translate(-162.667 -19.869)" fill="#77bf51"/>
      <path id="Path_153652" data-name="Path 153652" d="M2586.561,1922.555a3.2,3.2,0,1,1,.042-6.4,3.2,3.2,0,1,1-.042,6.4Z" transform="translate(-164.924 -239.21)" fill="#ffde00"/>
      <path id="Path_153655" data-name="Path 153655" d="M2537.474,1724.968a2.561,2.561,0,0,1-2.072-1.03q-10.462-10.459-20.935-20.905c-1.333-1.323-1.34-2.415.038-3.707,1.938-1.817,3.816-3.7,5.64-5.635,1.3-1.378,2.371-1.337,3.691.015,3.909,4,7.949,7.879,11.823,11.914,1.232,1.284,1.9,1.435,3.253.061,9.478-9.611,19.056-19.124,28.606-28.664,2.351-2.349,3.164-2.341,5.527.017,1.535,1.531,3.059,3.073,4.6,4.6,1.36,1.346,1.321,2.59-.053,3.959q-19.242,19.186-38.443,38.413C2538.651,1724.5,2538.169,1725.03,2537.474,1724.968Z" transform="translate(-126.355 -101.295)" fill="#ffde00"/>
    </g>
  </g>
</svg>
