<svg xmlns="http://www.w3.org/2000/svg" width="24" height="24" viewBox="0 0 24 24">
  <g id="vuesax_twotone_box-2" data-name="vuesax/twotone/box-2" transform="translate(-300 -572)">
    <g id="box-2">
      <path id="Vector" d="M15.56,16.67l2.22-1.11V12.78" transform="translate(303.11 574)" fill="none" stroke="#bac1cd" stroke-linecap="round" stroke-linejoin="round" stroke-width="1.5"/>
      <path id="Vector-2" data-name="Vector" d="M11.11,7.78,8.89,8.89m0,0L6.67,7.78M8.89,8.89v2.78M11.11,1.11,8.89,0,6.67,1.11M2.22,16.67,0,15.56V12.78" transform="translate(303.11 574)" fill="none" stroke="#bac1cd" stroke-linecap="round" stroke-linejoin="round" stroke-width="1.5"/>
      <path id="Vector-3" data-name="Vector" d="M0,0H24V24H0Z" transform="translate(300 572)" fill="none" opacity="0"/>
      <g id="Group_73" data-name="Group 73" opacity="0.4">
        <path id="Vector-4" data-name="Vector" d="M2.22,0,0,1.11" transform="translate(318.67 578.91)" fill="none" stroke="#bac1cd" stroke-linecap="round" stroke-linejoin="round" stroke-width="1.5"/>
        <path id="Vector-5" data-name="Vector" d="M2.22,1.11,0,0" transform="translate(318.67 577.8)" fill="none" stroke="#bac1cd" stroke-linecap="round" stroke-linejoin="round" stroke-width="1.5"/>
        <path id="Vector-6" data-name="Vector" d="M0,0V2.78" transform="translate(320.89 578.91)" fill="none" stroke="#bac1cd" stroke-linecap="round" stroke-linejoin="round" stroke-width="1.5"/>
        <path id="Vector-7" data-name="Vector" d="M0,1.11,2.22,0" transform="translate(303.11 577.8)" fill="none" stroke="#bac1cd" stroke-linecap="round" stroke-linejoin="round" stroke-width="1.5"/>
        <path id="Vector-8" data-name="Vector" d="M0,0,2.22,1.11" transform="translate(303.11 578.91)" fill="none" stroke="#bac1cd" stroke-linecap="round" stroke-linejoin="round" stroke-width="1.5"/>
        <path id="Vector-9" data-name="Vector" d="M0,0V2.78" transform="translate(303.11 578.91)" fill="none" stroke="#bac1cd" stroke-linecap="round" stroke-linejoin="round" stroke-width="1.5"/>
        <path id="Vector-10" data-name="Vector" d="M2.22,1.11,0,0" transform="translate(309.78 593.36)" fill="none" stroke="#bac1cd" stroke-linecap="round" stroke-linejoin="round" stroke-width="1.5"/>
        <path id="Vector-11" data-name="Vector" d="M0,1.11,2.22,0" transform="translate(312 593.36)" fill="none" stroke="#bac1cd" stroke-linecap="round" stroke-linejoin="round" stroke-width="1.5"/>
        <path id="Vector-12" data-name="Vector" d="M0,2.78V0" transform="translate(312 591.69)" fill="none" stroke="#bac1cd" stroke-linecap="round" stroke-linejoin="round" stroke-width="1.5"/>
      </g>
    </g>
  </g>
</svg>
