<svg xmlns="http://www.w3.org/2000/svg" width="49.455" height="44.404" viewBox="0 0 49.455 44.404">
  <g id="Group_154678" data-name="Group 154678" transform="translate(-467.95 -1126.437)">
    <path id="Path_155438" data-name="Path 155438" d="M515.863,1202.727a20.483,20.483,0,0,1,20.125,16.385,20.772,20.772,0,0,1,.324,5.951c-.027.314-.18.281-.382.255l-4.373-.551-7.287-.916-7.36-.926-7.287-.912-7.324-.919-6.158-.772a2.157,2.157,0,0,0-.255-.031c-.226,0-.277-.1-.242-.321a20.5,20.5,0,0,1,16.241-16.853A20.017,20.017,0,0,1,515.863,1202.727Zm8.072,3.839c-.094-.014-.158,0-.193.052a.154.154,0,0,0,.018.2,2.788,2.788,0,0,0,.287.227,27.557,27.557,0,0,1,2.658,2.137,38.657,38.657,0,0,1,5.918,7.169c.075.111.148.225.233.328a.169.169,0,0,0,.231.04.16.16,0,0,0,.047-.2c-.028-.094-.061-.186-.1-.276a17.849,17.849,0,0,0-3.579-5.713,14.885,14.885,0,0,0-5.21-3.851C524.138,1206.637,524.021,1206.6,523.935,1206.566Z" transform="translate(-23.325 -58.756)" fill="#ccd3df" opacity="0.91"/>
    <path id="Path_155439" data-name="Path 155439" d="M495.389,1184.24a9.58,9.58,0,0,1-2.053.782,7.755,7.755,0,0,1-5.855-.486,7.011,7.011,0,0,1-3.778-5.728,11.121,11.121,0,0,1,1.7-6.643,26.538,26.538,0,0,1,5.028-6.192c2.559-2.47,5.347-4.671,8.1-6.909a22.824,22.824,0,0,0,4.961-5.276,6.6,6.6,0,0,0,1.191-3.078,3.176,3.176,0,0,0-2.506-3.4,3.784,3.784,0,0,0-3.411.912,11.067,11.067,0,0,0-2.56,3.327,27.182,27.182,0,0,0-2.214,5.459c-.031.1-.065.207-.081.257a30.3,30.3,0,0,0-2.5-5.781,6.919,6.919,0,0,0-1.264-1.706,2.749,2.749,0,0,0-4.623,1.306,4.951,4.951,0,0,0,.12,2.637,19.221,19.221,0,0,0,2.741,5.81c.473.728.982,1.433,1.468,2.153.07.1.205.189.143.384a34.554,34.554,0,0,1-3.858-4.413,13.206,13.206,0,0,1-2.405-5.3,4.749,4.749,0,0,1,1.063-4.288c1.711-1.842,4.37-2.361,6.429.009a11.823,11.823,0,0,1,2.314,4.78c.184.67.312,1.355.482,2.11a26.751,26.751,0,0,1,.927-2.925,13.153,13.153,0,0,1,2.941-4.775,5.841,5.841,0,0,1,6.178-1.343,4.95,4.95,0,0,1,3.087,4.607,7.814,7.814,0,0,1-1.4,4.593,20.676,20.676,0,0,1-4.71,5.054c-2.369,1.921-4.854,3.694-7.2,5.647a41.828,41.828,0,0,0-5.458,5.12,14.7,14.7,0,0,0-3.174,5.647,6.4,6.4,0,0,0,3.09,7.459,7.407,7.407,0,0,0,4.606.694,12.027,12.027,0,0,0,2.212-.519C495.2,1184.194,495.278,1184.144,495.389,1184.24Z" transform="translate(-14.997 -19.088)" fill="#ccd3df"/>
    <path id="Path_155440" data-name="Path 155440" d="M506.176,1280.271H530.44c.478,0,.51.048.307.482a2.808,2.808,0,0,1-1.131,1.175,8.979,8.979,0,0,1-4.786,1.437q-18.694.011-37.388,0a8.7,8.7,0,0,1-5.083-1.649,2.439,2.439,0,0,1-.849-.994c-.178-.4-.142-.447.291-.447h24.374Z" transform="translate(-13.461 -112.53)" fill="#ccd3df" opacity="0.91"/>
    <path id="Path_155441" data-name="Path 155441" d="M567.08,1194.147a1.142,1.142,0,0,1,1.172-1.143,1.174,1.174,0,1,1-1.172,1.143Z" transform="translate(-72.869 -52.013)" fill="#ccd3df" opacity="0.91"/>
    <path id="Path_155442" data-name="Path 155442" d="M587.454,1215.239c.086.032.2.07.315.118a14.885,14.885,0,0,1,5.21,3.851,17.85,17.85,0,0,1,3.579,5.713c.035.091.068.183.1.276a.16.16,0,0,1-.047.2.169.169,0,0,1-.231-.04c-.085-.1-.158-.217-.233-.328a38.654,38.654,0,0,0-5.918-7.169,27.551,27.551,0,0,0-2.658-2.137,2.781,2.781,0,0,1-.287-.227.155.155,0,0,1-.018-.2C587.3,1215.235,587.36,1215.225,587.454,1215.239Z" transform="translate(-86.845 -67.428)" fill="#fefefe"/>
  </g>
</svg>
