<svg xmlns="http://www.w3.org/2000/svg" width="20" height="20" viewBox="0 0 20 20">
  <g id="vuesax_twotone_refresh-2" data-name="vuesax/twotone/refresh-2" transform="translate(-364 -316)">
    <g id="refresh-2" transform="translate(364 316)">
      <path id="Vector" d="M0,0H20V20H0Z" transform="translate(20 20) rotate(180)" fill="none" opacity="0"/>
      <path id="Vector-2" data-name="Vector" d="M-.125,9.107A.625.625,0,0,1-.75,8.482V4.315A.625.625,0,0,1-.125,3.69.625.625,0,0,1,.5,4.315V8.482A.625.625,0,0,1-.125,9.107Z" transform="translate(2.625 9.385)" fill="#8d98aa" opacity="0.4"/>
      <path id="Vector-3" data-name="Vector" d="M-.125,3.69A.625.625,0,0,1,.5,4.315V8.482a.625.625,0,0,1-.625.625A.625.625,0,0,1-.75,8.482V4.315A.625.625,0,0,1-.125,3.69Z" transform="translate(18.366 -2.182)" fill="#8d98aa"/>
      <path id="Vector-4" data-name="Vector" d="M7.283,8.833A8.736,8.736,0,0,1,1.434,6.355,12.275,12.275,0,0,1-.659,3.9a.625.625,0,0,1-.01-.631A.625.625,0,0,1-.125,2.95H3.642a.625.625,0,0,1,0,1.25H1.107A11.7,11.7,0,0,0,2.3,5.452,7.4,7.4,0,0,0,7.283,7.583,7.717,7.717,0,0,0,14.991-.125a.625.625,0,0,1,.625-.625.625.625,0,0,1,.625.625A8.968,8.968,0,0,1,7.283,8.833Z" transform="translate(2.625 10.125)" fill="#8d98aa" opacity="0.4"/>
      <path id="Vector-5" data-name="Vector" d="M8.208-.75a8.736,8.736,0,0,1,5.849,2.479,12.275,12.275,0,0,1,2.094,2.456.625.625,0,0,1-.534.949H11.85a.625.625,0,1,1,0-1.25h2.535a11.7,11.7,0,0,0-1.193-1.252A7.4,7.4,0,0,0,8.208.5,7.717,7.717,0,0,0,.5,8.208a.625.625,0,0,1-.625.625A.625.625,0,0,1-.75,8.208,8.968,8.968,0,0,1,8.208-.75Z" transform="translate(2.625 1.792)" fill="#8d98aa"/>
    </g>
  </g>
</svg>
