<svg id="vuesax_twotone_rotate-right" data-name="vuesax/twotone/rotate-right" xmlns="http://www.w3.org/2000/svg" width="20" height="20" viewBox="0 0 20 20">
  <g id="rotate-right">
    <path id="Vector" d="M7.091,15.021a7.768,7.768,0,0,1-5.545-2.309,7.921,7.921,0,0,1,0-11.154A7.771,7.771,0,0,1,7.091-.75a8.86,8.86,0,0,1,2.584.386A.628.628,0,0,1,10.1.417a.624.624,0,0,1-.777.422A7.635,7.635,0,0,0,7.091.5a6.63,6.63,0,1,0,6.593,6.635,6.645,6.645,0,0,0-1.11-3.685.629.629,0,0,1,.173-.87.622.622,0,0,1,.866.174,7.919,7.919,0,0,1-.976,9.954A7.771,7.771,0,0,1,7.091,15.021Z" transform="translate(2.909 3.934)" fill="#fff"/>
    <path id="Vector-2" data-name="Vector" d="M2.3,3.283a.626.626,0,0,1-.474-.216L-.6.289A.627.627,0,0,1-.535-.6a.627.627,0,0,1,.885.061L2.769,2.243A.627.627,0,0,1,2.3,3.283Z" transform="translate(11.149 1.796)" fill="#fff"/>
    <path id="Vector-3" data-name="Vector" d="M-.122,2.563a.627.627,0,0,1-.507-.258.627.627,0,0,1,.137-.877L2.327-.629A.627.627,0,0,1,3.2-.492a.627.627,0,0,1-.137.877L.247,2.442A.625.625,0,0,1-.122,2.563Z" transform="translate(10.748 4.555)" fill="#fff"/>
    <path id="Vector-4" data-name="Vector" d="M0,0H20V20H0Z" transform="translate(20 20) rotate(180)" fill="none" opacity="0"/>
  </g>
</svg>
