<svg id="truck" xmlns="http://www.w3.org/2000/svg" width="20" height="20" viewBox="0 0 20 20">
  <path id="Vector" d="M3.208-.75h7.5a.625.625,0,0,1,.625.625V8.208A2.294,2.294,0,0,1,9.042,10.5H-.125A.625.625,0,0,1-.75,9.875V3.208A3.963,3.963,0,0,1,3.208-.75ZM10.083.5H3.208A2.711,2.711,0,0,0,.5,3.208V9.25H9.042a1.043,1.043,0,0,0,1.042-1.042Z" transform="translate(1.792 1.792)" fill="#697485" opacity="0.4"/>
  <path id="Vector-2" data-name="Vector" d="M14.042,13h-.833a.625.625,0,0,1-.625-.625,1.042,1.042,0,1,0-2.083,0A.625.625,0,0,1,9.875,13H6.542a.625.625,0,0,1-.625-.625,1.042,1.042,0,1,0-2.083,0A.625.625,0,0,1,3.208,13H2.375A3.129,3.129,0,0,1-.75,9.875v-2.5A.625.625,0,0,1-.125,6.75H9.042a1.043,1.043,0,0,0,1.042-1.042V-.125a.625.625,0,0,1,.625-.625h1.533A2.312,2.312,0,0,1,14.232.4l1.427,2.5a.625.625,0,0,1-.543.935H14.042a.211.211,0,0,0-.208.208v2.5a.211.211,0,0,0,.208.208h2.5a.625.625,0,0,1,.625.625v2.5A3.129,3.129,0,0,1,14.042,13Zm-.295-1.25h.295a1.877,1.877,0,0,0,1.875-1.875V8H14.042a1.46,1.46,0,0,1-1.458-1.458v-2.5a1.46,1.46,0,0,1,1.456-1.458l-.89-1.556A1.057,1.057,0,0,0,12.242.5h-.908V5.708A2.294,2.294,0,0,1,9.042,8H.5V9.875A1.877,1.877,0,0,0,2.375,11.75H2.67a2.292,2.292,0,0,1,4.41,0H9.337a2.292,2.292,0,0,1,4.41,0Z" transform="translate(1.792 4.292)" fill="#697485"/>
  <path id="Vector-3" data-name="Vector" d="M1.542-.75A2.292,2.292,0,1,1-.75,1.542,2.294,2.294,0,0,1,1.542-.75Zm0,3.333A1.042,1.042,0,1,0,.5,1.542,1.043,1.043,0,0,0,1.542,2.583Z" transform="translate(5.125 15.125)" fill="#697485"/>
  <path id="Vector-4" data-name="Vector" d="M1.542-.75A2.292,2.292,0,1,1-.75,1.542,2.294,2.294,0,0,1,1.542-.75Zm0,3.333A1.042,1.042,0,1,0,.5,1.542,1.043,1.043,0,0,0,1.542,2.583Z" transform="translate(11.792 15.125)" fill="#697485"/>
  <path id="Vector-5" data-name="Vector" d="M3.208,4.667H.708A1.46,1.46,0,0,1-.75,3.208V.708A1.46,1.46,0,0,1,.708-.75H1.783a.625.625,0,0,1,.543.316l1.425,2.5a.625.625,0,0,1,.082.31V4.042A.625.625,0,0,1,3.208,4.667ZM.708.5A.211.211,0,0,0,.5.708v2.5a.211.211,0,0,0,.208.208H2.583V2.541L1.42.5Z" transform="translate(15.125 7.625)" fill="#697485"/>
  <path id="Vector-6" data-name="Vector" d="M0,0H20V20H0Z" fill="none" opacity="0"/>
</svg>
