<svg xmlns="http://www.w3.org/2000/svg" width="30" height="30" viewBox="0 0 30 30">
  <g id="vuesax_twotone_lovely" data-name="vuesax/twotone/lovely" transform="translate(-748 -252)">
    <g id="lovely" transform="translate(748 252)">
      <path id="Vector" d="M6.387-.75a7.053,7.053,0,0,1,4.965,2.007A7.072,7.072,0,0,1,16.312-.75,7.164,7.164,0,0,1,23.45,6.425a12.985,12.985,0,0,1-.108,1.644.937.937,0,0,1-1.3.741A3.705,3.705,0,0,0,17.59,9.985a.937.937,0,0,1-1.5.005,3.706,3.706,0,0,0-6.677,2.247,9.312,9.312,0,0,0,3.432,6.946.937.937,0,0,1-.137,1.508,1.5,1.5,0,0,1-.311.138l-.017.006-.019.007a3.265,3.265,0,0,1-2.011,0,18.788,18.788,0,0,1-6.809-4.48A14.115,14.115,0,0,1-.75,6.425,7.164,7.164,0,0,1,6.387-.75ZM11.35,3.612a.938.938,0,0,1-.752-.378,5.2,5.2,0,0,0-4.21-2.109,5.287,5.287,0,0,0-5.262,5.3c0,6.538,5.442,10.568,8.569,12.108a10.379,10.379,0,0,1-2.156-6.3,5.581,5.581,0,0,1,9.3-4.193,5.582,5.582,0,0,1,4.734-1.327q0-.148,0-.293a5.287,5.287,0,0,0-5.262-5.3A5.233,5.233,0,0,0,12.1,3.238.938.938,0,0,1,11.35,3.612Z" transform="translate(2.313 3.688)" fill="#697485" opacity="0.4"/>
      <g id="Group" transform="translate(9.85 10.312)">
        <path id="Vector-2" data-name="Vector" d="M4.825-.75A5.548,5.548,0,0,1,8.549.67,5.581,5.581,0,0,1,14.5-.285l.006,0a5.622,5.622,0,0,1,3.333,5.145,10.794,10.794,0,0,1-3.276,7.6,14.209,14.209,0,0,1-5.194,3.41,2.757,2.757,0,0,1-1.645,0,13.977,13.977,0,0,1-4.4-2.659A11.133,11.133,0,0,1-.75,4.862,5.6,5.6,0,0,1,4.825-.75ZM8.55,2.987A.937.937,0,0,1,7.8,2.615,3.706,3.706,0,0,0,1.125,4.862a9.312,9.312,0,0,0,3.432,6.946A11.983,11.983,0,0,0,8.325,14.1l.008,0a.979.979,0,0,0,.422,0l.006,0c1.868-.636,7.2-3.7,7.2-9.237a3.692,3.692,0,0,0-3.7-3.737A3.706,3.706,0,0,0,9.3,2.61.938.938,0,0,1,8.55,2.987Z" transform="translate(0.75 0.75)" fill="#697485"/>
      </g>
      <path id="Vector-3" data-name="Vector" d="M0,0H30V30H0Z" fill="none" opacity="0"/>
    </g>
  </g>
</svg>
