<svg xmlns="http://www.w3.org/2000/svg" width="30" height="30" viewBox="0 0 30 30">
  <g id="vuesax_twotone_box" data-name="vuesax/twotone/box" transform="translate(-556 -188)">
    <g id="box" transform="translate(556 188)">
      <path id="Vector" d="M0,0H30V30H0Z" fill="none" opacity="0"/>
      <g id="Layer_2" data-name="Layer 2" transform="translate(0.465 6.81)">
        <path id="Path_153695" data-name="Path 153695" d="M25.646,20.779l-1.563-.261a1.358,1.358,0,0,1-.959-.669l-2.159-3.785A4.094,4.094,0,0,0,17.417,14H9.828a4.094,4.094,0,0,0-3.548,2.063l-2.2,3.861a1.37,1.37,0,0,1-.853.647l-1.5.377A2.265,2.265,0,0,0,.111,22.463c0,.012-.005.026-.01.038a2.27,2.27,0,0,0-.1.655v3.129A2.275,2.275,0,0,0,2.27,28.56H3.944a3.169,3.169,0,0,0,5.735,0h9.7a3.169,3.169,0,0,0,5.735,0h1.673a2.275,2.275,0,0,0,2.27-2.275V24.818a4.08,4.08,0,0,0-3.415-4.039Zm2,2.32a3.177,3.177,0,0,1,.4.91H27.7a1.365,1.365,0,0,1-.962-.4,1.391,1.391,0,0,1-.322-.513ZM.913,23.1h.776l-.227.91H.908v-.854C.908,23.137.912,23.118.913,23.1Zm5.9,6.37a2.275,2.275,0,1,1,2.27-2.275A2.273,2.273,0,0,1,6.811,29.469Zm15.439,0a2.275,2.275,0,1,1,2.27-2.275A2.273,2.273,0,0,1,22.25,29.469Zm4.541-1.82h-1.4a3.179,3.179,0,1,0-6.284,0H9.953a3.179,3.179,0,1,0-6.284,0H2.27A1.364,1.364,0,0,1,.908,26.285V24.92h.908a.454.454,0,0,0,.44-.344l.454-1.82a.455.455,0,0,0-.44-.566H1.312a1.354,1.354,0,0,1,.628-.358l1.505-.377a2.283,2.283,0,0,0,1.42-1.078l2.2-3.861a3.185,3.185,0,0,1,2.76-1.6h7.589a3.185,3.185,0,0,1,2.76,1.6L22.336,20.3a2.261,2.261,0,0,0,1.6,1.116l1.563.261a3.181,3.181,0,0,1,1.275.512h-.89a.455.455,0,0,0-.454.455A2.27,2.27,0,0,0,27.7,24.92h.454v1.365A1.364,1.364,0,0,1,26.791,27.65Z" transform="translate(0 -14)" fill="#697485"/>
        <path id="Path_153696" data-name="Path 153696" d="M37.578,19.951a.455.455,0,1,0-.78.469l.678,1.131H31.91V17.91h2.609a1.372,1.372,0,0,1,1.171.663l.288.481a.455.455,0,0,0,.78-.469L36.47,18.1A2.285,2.285,0,0,0,34.519,17H31.455a.455.455,0,0,0-.455.455V22a.455.455,0,0,0,.455.455H38.28a.455.455,0,0,0,.39-.689Z" transform="translate(-16.934 -15.635)" fill="rgba(105,116,133,0.6)"/>
        <path id="Path_153697" data-name="Path 153697" d="M19.28,17H16.216a2.285,2.285,0,0,0-1.951,1.1l-2.2,3.666a.455.455,0,0,0,.39.689H19.28A.455.455,0,0,0,19.735,22v-4.55A.455.455,0,0,0,19.28,17Zm-.455,4.55H13.259l1.786-2.977a1.372,1.372,0,0,1,1.171-.663h2.609Z" transform="translate(-6.555 -15.635)" fill="rgba(105,116,133,0.6)"/>
        <path id="Path_153698" data-name="Path 153698" d="M32.365,30h-.91a.455.455,0,1,0,0,.91h.91a.455.455,0,1,0,0-.91Z" transform="translate(-16.925 -22.72)" fill="rgba(105,116,133,0.6)"/>
        <path id="Path_153699" data-name="Path 153699" d="M13.365,30h-.91a.455.455,0,1,0,0,.91h.91a.455.455,0,1,0,0-.91Z" transform="translate(-6.552 -22.72)" fill="rgba(105,116,133,0.6)"/>
        <path id="Path_153700" data-name="Path 153700" d="M47.365,40a1.365,1.365,0,1,0,1.365,1.365A1.365,1.365,0,0,0,47.365,40Zm0,1.82a.455.455,0,1,1,.455-.455A.455.455,0,0,1,47.365,41.82Z" transform="translate(-25.117 -28.17)" fill="#697485"/>
        <path id="Path_153701" data-name="Path 153701" d="M13.365,40a1.365,1.365,0,1,0,1.365,1.365A1.365,1.365,0,0,0,13.365,40Zm0,1.82a.455.455,0,1,1,.455-.455A.455.455,0,0,1,13.365,41.82Z" transform="translate(-6.552 -28.17)" fill="#697485"/>
      </g>
    </g>
  </g>
</svg>
