<svg xmlns="http://www.w3.org/2000/svg" width="20" height="20" viewBox="0 0 20 20">
  <g id="vuesax_twotone_setting-2" data-name="vuesax/twotone/setting-2" transform="translate(-300 -188)">
    <g id="setting-2" transform="translate(300 188)">
      <path id="Vector" d="M2.375-.75A3.125,3.125,0,1,1-.75,2.375,3.129,3.129,0,0,1,2.375-.75Zm0,5A1.875,1.875,0,1,0,.5,2.375,1.877,1.877,0,0,0,2.375,4.25Z" transform="translate(7.625 7.625)" fill="#8d98aa" opacity="0.4"/>
      <path id="Vector-2" data-name="Vector" d="M10.882,16.232a2.041,2.041,0,0,1-1.744-1l0-.006-.092-.158C8.8,14.644,8.5,14.4,8.216,14.4s-.587.244-.833.67l-.092.158,0,.006a2.041,2.041,0,0,1-1.744,1,1.981,1.981,0,0,1-1.008-.276L3.1,15.133a2.208,2.208,0,0,1-.814-3.013,1.11,1.11,0,0,0,.166-1.053,1.106,1.106,0,0,0-.992-.384A2.211,2.211,0,0,1-.75,8.474V7.007A2.211,2.211,0,0,1,1.458,4.8a1.106,1.106,0,0,0,.992-.384,1.109,1.109,0,0,0-.166-1.053A2.208,2.208,0,0,1,3.1.348L4.535-.474A1.981,1.981,0,0,1,5.543-.75a2.041,2.041,0,0,1,1.744,1l0,.006.092.158c.244.426.545.669.827.669S8.8.836,9.043.411L9.134.253l0-.006a2.041,2.041,0,0,1,1.744-1,1.981,1.981,0,0,1,1.008.276l1.437.822a2.208,2.208,0,0,1,.814,3.013,1.11,1.11,0,0,0-.166,1.053,1.106,1.106,0,0,0,.992.384,2.211,2.211,0,0,1,2.208,2.208V8.474a2.211,2.211,0,0,1-2.208,2.208,1.106,1.106,0,0,0-.992.384,1.109,1.109,0,0,0,.166,1.053,2.209,2.209,0,0,1-.814,3.014l-1.437.822A1.981,1.981,0,0,1,10.882,16.232ZM10.214,14.6a.785.785,0,0,0,.668.383.721.721,0,0,0,.373-.1l.009-.005,1.442-.825a.942.942,0,0,0,.445-.577.957.957,0,0,0-.094-.728,2.282,2.282,0,0,1-.166-2.3,2.282,2.282,0,0,1,2.075-1.01.959.959,0,0,0,.958-.958V7.007a.959.959,0,0,0-.958-.958,2.282,2.282,0,0,1-2.075-1.01,2.284,2.284,0,0,1,.167-2.3.958.958,0,0,0-.353-1.3L11.265.608,11.255.6a.721.721,0,0,0-.373-.1.785.785,0,0,0-.668.383l-.089.155A2.291,2.291,0,0,1,8.209,2.33a2.277,2.277,0,0,1-1.91-1.3L6.211.883A.785.785,0,0,0,5.543.5.721.721,0,0,0,5.17.6L5.16.608l-1.442.825a.958.958,0,0,0-.353,1.3,2.284,2.284,0,0,1,.167,2.3,2.282,2.282,0,0,1-2.075,1.01A.959.959,0,0,0,.5,7.007V8.474a.959.959,0,0,0,.958.958,2.282,2.282,0,0,1,2.075,1.01,2.284,2.284,0,0,1-.167,2.3.958.958,0,0,0,.353,1.3l1.442.825.009.005a.721.721,0,0,0,.373.1.785.785,0,0,0,.668-.383l.089-.155a2.291,2.291,0,0,1,1.915-1.293,2.277,2.277,0,0,1,1.91,1.3Z" transform="translate(1.792 2.259)" fill="#8d98aa"/>
      <path id="Vector-3" data-name="Vector" d="M0,0H20V20H0Z" fill="none" opacity="0"/>
    </g>
  </g>
</svg>
