<svg id="routing" xmlns="http://www.w3.org/2000/svg" width="18" height="18" viewBox="0 0 18 18">
  <path id="Vector" d="M2.44-.75a3.09,3.09,0,0,1,3.1,2.384A4.363,4.363,0,0,1,3.921,5.78a2.142,2.142,0,0,1-1.483.592A2.165,2.165,0,0,1,.949,5.784L.944,5.779A4.379,4.379,0,0,1-.661,1.632,3.1,3.1,0,0,1,2.44-.75Zm0,6a1.021,1.021,0,0,0,.707-.281A3.416,3.416,0,0,0,4.439,1.886a1.965,1.965,0,0,0-2-1.511,1.973,1.973,0,0,0-2,1.51,3.432,3.432,0,0,0,1.287,3.08A1.044,1.044,0,0,0,2.437,5.247Z" transform="translate(1.665 1.691)" fill="#697485" opacity="0.4"/>
  <path id="Vector-2" data-name="Vector" d="M2.452-.75A3.361,3.361,0,0,1,4.37-.161a2.968,2.968,0,0,1,1.2,1.793,4.347,4.347,0,0,1-1.624,4.15,2.145,2.145,0,0,1-1.485.59A2.17,2.17,0,0,1,.964,5.784,4.349,4.349,0,0,1-.661,1.632,2.968,2.968,0,0,1,.534-.161,3.361,3.361,0,0,1,2.452-.75Zm0,6a1.026,1.026,0,0,0,.711-.281,3.4,3.4,0,0,0,1.3-3.081A1.982,1.982,0,0,0,2.452.375,1.982,1.982,0,0,0,.435,1.885a3.4,3.4,0,0,0,1.3,3.08A1.048,1.048,0,0,0,2.456,5.247Z" transform="translate(11.416 10.691)" fill="#697485" opacity="0.4"/>
  <path id="Vector-3" data-name="Vector" d="M3.321,10.875H1.311A2.06,2.06,0,0,1-.041,7.263L5.95,2.022A.924.924,0,0,0,6.21.983.922.922,0,0,0,5.331.375H3.321a.563.563,0,0,1-.562-.562A.563.563,0,0,1,3.321-.75h2.01A2.048,2.048,0,0,1,7.263.586a2.05,2.05,0,0,1-.571,2.281L.7,8.111A.935.935,0,0,0,1.311,9.75h2.01a.563.563,0,0,1,0,1.125Z" transform="translate(5.679 3.938)" fill="#697485"/>
  <path id="Vector-4" data-name="Vector" d="M.395,1H.386a.75.75,0,1,1,0-1.5H.395a.75.75,0,0,1,0,1.5Z" transform="translate(3.729 3.875)" fill="#697485"/>
  <path id="Vector-5" data-name="Vector" d="M.395,1H.386a.75.75,0,1,1,0-1.5H.395a.75.75,0,0,1,0,1.5Z" transform="translate(13.479 12.875)" fill="#697485"/>
  <path id="Vector-6" data-name="Vector" d="M0,0H18V18H0Z" transform="translate(18 18) rotate(180)" fill="none" opacity="0"/>
</svg>
