<svg xmlns="http://www.w3.org/2000/svg" width="20" height="20" viewBox="0 0 20 20">
  <g id="vuesax_twotone_maximize-3" data-name="vuesax/twotone/maximize-3" transform="translate(-748 -316)">
    <g id="maximize-3" transform="translate(748 316)">
      <path id="Vector" d="M10.708,17.167h-5c-2.309,0-3.872-.488-4.921-1.537S-.75,13.017-.75,10.708v-5C-.75,3.4-.262,1.836.787.787S3.4-.75,5.708-.75h5c2.309,0,3.872.488,4.921,1.537S17.167,3.4,17.167,5.708v5c0,2.309-.488,3.872-1.537,4.921S13.017,17.167,10.708,17.167ZM5.708.5C3.753.5,2.47.872,1.671,1.671S.5,3.753.5,5.708v5c0,1.955.372,3.238,1.171,4.037s2.082,1.171,4.037,1.171h5c1.955,0,3.238-.372,4.037-1.171s1.171-2.082,1.171-4.037v-5c0-1.955-.372-3.238-1.171-4.037S12.664.5,10.708.5Z" transform="translate(1.792 1.792)" fill="#697485"/>
      <g id="Group_665" data-name="Group 665" transform="translate(4.375 4.375)" opacity="0.4">
        <path id="Vector-2" data-name="Vector" d="M-.125,10.5a.623.623,0,0,1-.442-.183.625.625,0,0,1,0-.884l10-10a.625.625,0,0,1,.884,0,.625.625,0,0,1,0,.884l-10,10A.623.623,0,0,1-.125,10.5Z" transform="translate(0.75 0.75)" fill="#697485"/>
        <path id="Vector-3" data-name="Vector" d="M3.208,3.833a.625.625,0,0,1-.625-.625V.5H-.125A.625.625,0,0,1-.75-.125.625.625,0,0,1-.125-.75H3.208a.625.625,0,0,1,.625.625V3.208A.625.625,0,0,1,3.208,3.833Z" transform="translate(7.417 0.75)" fill="#697485"/>
        <path id="Vector-4" data-name="Vector" d="M3.208,3.833H-.125A.625.625,0,0,1-.75,3.208V-.125A.625.625,0,0,1-.125-.75.625.625,0,0,1,.5-.125V2.583H3.208a.625.625,0,0,1,0,1.25Z" transform="translate(0.75 7.417)" fill="#697485"/>
      </g>
      <path id="Vector-5" data-name="Vector" d="M0,0H20V20H0Z" fill="none" opacity="0"/>
    </g>
  </g>
</svg>
