<svg xmlns="http://www.w3.org/2000/svg" width="19" height="19" viewBox="0 0 19 19">
  <g id="vuesax_twotone_star" data-name="vuesax/twotone/star" transform="translate(-428 -188)">
    <g id="star" transform="translate(428 188)">
      <g id="Group" transform="translate(4.172 2.622)">
        <path id="Vector" d="M6.163-.75A1.855,1.855,0,0,1,7.792.485L8.908,2.719l0,.005a.821.821,0,0,0,.465.34l2.011.331a1.839,1.839,0,0,1,1.631,1.172,1.849,1.849,0,0,1-.641,1.914L10.8,8.06a.79.79,0,0,0-.166.593l.452,1.949a2.161,2.161,0,0,1-.245,1.915,1.358,1.358,0,0,1-1.091.5,2.724,2.724,0,0,1-1.367-.443L6.491,11.451l0,0a.771.771,0,0,0-.636,0l0,0L3.954,12.576a2.74,2.74,0,0,1-1.366.439,1.359,1.359,0,0,1-1.092-.5A2.157,2.157,0,0,1,1.252,10.6L1.7,8.654v0a.808.808,0,0,0-.171-.594L-.038,6.484a1.842,1.842,0,0,1-.645-1.9A1.846,1.846,0,0,1,.946,3.4h0l2.019-.332a.793.793,0,0,0,.457-.339l0-.005L4.544.489A1.832,1.832,0,0,1,6.163-.75Zm1.682,4L6.73,1.018C6.515.59,6.29.437,6.163.437s-.345.151-.553.576l0,0L4.492,3.248a1.967,1.967,0,0,1-1.331.988l-2.016.332c-.372.064-.645.21-.7.373-.041.129.03.381.353.7L2.377,7.22l.006.006a1.982,1.982,0,0,1,.477,1.7l-.451,1.946a1.229,1.229,0,0,0,.017.9c.013.016.043.054.163.054a1.578,1.578,0,0,0,.761-.273l1.889-1.123a1.933,1.933,0,0,1,1.86,0l1.891,1.123a1.567,1.567,0,0,0,.76.276c.119,0,.148-.038.161-.054a1.232,1.232,0,0,0,.018-.908L9.477,8.922a1.965,1.965,0,0,1,.483-1.7l1.575-1.575c.324-.327.393-.587.353-.711-.052-.161-.325-.3-.7-.366L9.175,4.236l-.012,0A1.974,1.974,0,0,1,7.845,3.248Z" transform="translate(0.75 0.75)" fill="#697485"/>
      </g>
      <path id="Vector-2" data-name="Vector" d="M4.594.438H-.156A.594.594,0,0,1-.75-.156.594.594,0,0,1-.156-.75h4.75a.594.594,0,0,1,.594.594A.594.594,0,0,1,4.594.438Z" transform="translate(1.74 4.115)" fill="#697485" opacity="0.4"/>
      <path id="Vector-3" data-name="Vector" d="M2.219.438H-.156A.594.594,0,0,1-.75-.156.594.594,0,0,1-.156-.75H2.219a.594.594,0,0,1,.594.594A.594.594,0,0,1,2.219.438Z" transform="translate(1.74 15.198)" fill="#697485" opacity="0.4"/>
      <path id="Vector-4" data-name="Vector" d="M.635.438H-.156A.594.594,0,0,1-.75-.156.594.594,0,0,1-.156-.75H.635a.594.594,0,0,1,.594.594A.594.594,0,0,1,.635.438Z" transform="translate(1.74 9.656)" fill="#697485" opacity="0.4"/>
      <path id="Vector-5" data-name="Vector" d="M0,0H19V19H0Z" fill="none" opacity="0"/>
    </g>
  </g>
</svg>
