<svg xmlns="http://www.w3.org/2000/svg" width="19" height="19" viewBox="0 0 19 19">
  <g id="vuesax_twotone_task-square" data-name="vuesax/twotone/task-square" transform="translate(-492 -316)">
    <g id="task-square" transform="translate(492 316)">
      <path id="Vector" d="M4,.438H-.156A.594.594,0,0,1-.75-.156.594.594,0,0,1-.156-.75H4a.594.594,0,0,1,.594.594A.594.594,0,0,1,4,.438Z" transform="translate(9.949 7.186)" fill="#697485" opacity="0.4"/>
      <path id="Vector-2" data-name="Vector" d="M.438,2.219a.592.592,0,0,1-.42-.174l-.594-.594a.594.594,0,0,1,0-.84.594.594,0,0,1,.84,0L.438.785,1.8-.576a.594.594,0,0,1,.84,0,.594.594,0,0,1,0,.84L.857,2.045A.592.592,0,0,1,.438,2.219Z" transform="translate(5.207 5.999)" fill="#697485" opacity="0.4"/>
      <path id="Vector-3" data-name="Vector" d="M4,.438H-.156A.594.594,0,0,1-.75-.156.594.594,0,0,1-.156-.75H4a.594.594,0,0,1,.594.594A.594.594,0,0,1,4,.438Z" transform="translate(9.949 12.728)" fill="#697485" opacity="0.4"/>
      <path id="Vector-4" data-name="Vector" d="M.438,2.219a.592.592,0,0,1-.42-.174l-.594-.594a.594.594,0,0,1,0-.84.594.594,0,0,1,.84,0L.438.785,1.8-.576a.594.594,0,0,1,.84,0,.594.594,0,0,1,0,.84L.857,2.045A.592.592,0,0,1,.438,2.219Z" transform="translate(5.207 11.54)" fill="#697485" opacity="0.4"/>
      <path id="Vector-5" data-name="Vector" d="M10.135,16.271H5.385c-2.193,0-3.679-.464-4.675-1.46S-.75,12.329-.75,10.135V5.385C-.75,3.192-.286,1.707.71.71S3.192-.75,5.385-.75h4.75c2.193,0,3.679.464,4.675,1.46s1.46,2.482,1.46,4.675v4.75c0,2.193-.464,3.679-1.46,4.675S12.329,16.271,10.135,16.271ZM5.385.438C3.528.438,2.309.791,1.55,1.55S.438,3.528.438,5.385v4.75c0,1.858.354,3.076,1.113,3.835s1.978,1.113,3.835,1.113h4.75c1.858,0,3.076-.354,3.835-1.113s1.113-1.978,1.113-3.835V5.385c0-1.858-.354-3.076-1.113-3.835S11.993.438,10.135.438Z" transform="translate(1.74 1.74)" fill="#697485"/>
      <path id="Vector-6" data-name="Vector" d="M0,0H19V19H0Z" fill="none" opacity="0"/>
    </g>
  </g>
</svg>
