<svg xmlns="http://www.w3.org/2000/svg" width="54" height="54" viewBox="0 0 54 54">
  <g id="Group_154609" data-name="Group 154609" transform="translate(-18 -728)">
    <rect id="Rectangle_111428" data-name="Rectangle 111428" width="54" height="54" rx="12" transform="translate(18 728)" fill="#edf0f5" opacity="0.4"/>
    <path id="tiktok" d="M0-11.162v-4.1H-.007A5.664,5.664,0,0,1-3.141-16.2a5.731,5.731,0,0,1-2.528-3.762,5.641,5.641,0,0,1-.092-.991q0-.024,0-.048h-4.12V-4.623a3.5,3.5,0,0,1-3.5,3.5,3.5,3.5,0,0,1-3.5-3.5,3.5,3.5,0,0,1,3.5-3.5,3.493,3.493,0,0,1,1.05.161v-4.214a7.561,7.561,0,0,0-1.047-.072A7.625,7.625,0,0,0-21-4.626,7.625,7.625,0,0,0-13.377,3,7.625,7.625,0,0,0-5.761-4.623V-13a9.831,9.831,0,0,0,5.737,1.84Z" transform="translate(55.499 764.004)" fill="#245389"/>
  </g>
</svg>
