<svg xmlns="http://www.w3.org/2000/svg" xmlns:xlink="http://www.w3.org/1999/xlink" width="30" height="30" viewBox="0 0 30 30">
    <defs>
        <clipPath id="clip-path">
            <rect id="Rectangle_20" data-name="Rectangle 20" width="30" height="30" transform="translate(150 844)" fill="rgba(226,229,234,0.59)" stroke="#707070" stroke-width="1"/>
        </clipPath>
    </defs>
    <g id="Mask_Group_8" data-name="Mask Group 8" transform="translate(-150 -844)" clip-path="url(#clip-path)">
        <g id="style_fill" data-name="style=fill" transform="translate(151.705 844)">
            <g id="timer" transform="translate(0)">
                <path id="Subtract" d="M16.057,4.3a13.3,13.3,0,1,0,13.3,13.3A13.3,13.3,0,0,0,16.057,4.3Zm1.023,6.477a1.023,1.023,0,1,0-2.045,0v6.818a1.023,1.023,0,1,0,2.045,0Z" transform="translate(-2.761 -0.886)" fill="rgba(226,229,234,0.59)" fill-rule="evenodd"/>
                <path id="line_Stroke_" data-name="line (Stroke)" d="M10.125,2.25a1.023,1.023,0,0,0,1.023,1.023H19.33a1.023,1.023,0,0,0,0-2.045H11.148A1.023,1.023,0,0,0,10.125,2.25Z" transform="translate(-1.943 -1.227)" fill="#bac1cc" fill-rule="evenodd"/>
            </g>
        </g>
    </g>
</svg>
