<svg xmlns="http://www.w3.org/2000/svg" width="54" height="54" viewBox="0 0 54 54">
  <g id="Group_138578" data-name="Group 138578" transform="translate(-90 -728)">
    <rect id="Rectangle_111431" data-name="Rectangle 111431" width="54" height="54" rx="12" transform="translate(90 728)" fill="#edf0f5" opacity="0.4"/>
    <path id="Path_147413" data-name="Path 147413" d="M10.908-10.905a10.266,10.266,0,0,0,2.4-2.469,9.575,9.575,0,0,1-2.75.739,4.763,4.763,0,0,0,2.1-2.632,9.4,9.4,0,0,1-3.031,1.153,4.765,4.765,0,0,0-3.49-1.508,4.774,4.774,0,0,0-4.776,4.776,5.391,5.391,0,0,0,.118,1.094,13.576,13.576,0,0,1-9.848-5,4.74,4.74,0,0,0-.651,2.41A4.773,4.773,0,0,0-6.895-8.362a4.81,4.81,0,0,1-2.159-.606v.059a4.777,4.777,0,0,0,3.83,4.687,5.05,5.05,0,0,1-1.257.163,6.019,6.019,0,0,1-.9-.074A4.784,4.784,0,0,0-2.917-.821,9.565,9.565,0,0,1-8.847,1.22,9.884,9.884,0,0,1-10,1.16,13.5,13.5,0,0,0-2.666,3.3,13.5,13.5,0,0,0,10.923-10.284C10.923-10.491,10.923-10.7,10.908-10.905Z" transform="translate(115 761.622)" fill="#F29030"/>
  </g>
</svg>
