<svg xmlns="http://www.w3.org/2000/svg" width="53" height="53" viewBox="0 0 53 53">
  <g id="Group_139455" data-name="Group 139455" transform="translate(-287.014 -365.014)">
    <path id="تنزيل" d="M189.39,162.89c-21.2,0-26.5,5.3-26.5,26.5s5.3,26.5,26.5,26.5,26.5-5.3,26.5-26.5S210.59,162.89,189.39,162.89Z" transform="translate(124.124 202.124)" fill="#fff" fill-rule="evenodd"/>
    <g id="talka_logo_gray" data-name="talka logo gray" transform="translate(-10476.145 -14716.474)">
      <rect id="Rectangle_111892" data-name="Rectangle 111892" width="40" height="19" transform="translate(10769.158 15098.487)" fill="#fff" opacity="0"/>
      <g id="Group_154667" data-name="Group 154667" transform="translate(10769.377 15099.264)">
        <g id="Group_140095" data-name="Group 140095" transform="translate(0 0)">
          <path id="Path_154824" data-name="Path 154824" d="M778.12,182.149h-.007c-.013,0-.023,0-.034,0s-1.35,0-1.35,0h-6.508l.418-3.3H768.19l.274.673-.421,3.4s-.007.025-.007.029l0,.049-.63,4.327h-1.974l1.122-8.475h-2.455l.277.69-1.028,7.785h-1.837l.231-1.518v-.011c0-.018,0-.042.007-.059l.3-2.076c0-.007,0-.007,0-.011a1.472,1.472,0,0,0-.3-.938V182.7a2.9,2.9,0,0,0-.274-.225,1.784,1.784,0,0,0-.411-.234,1.3,1.3,0,0,0-.389-.092c-.122-.011-.248-.014-.374-.014h-5.39l-.456,3.076s-.2,1.36-.2,1.385l-.112.726H752.3l.276-1.876V185.4l.333-2.283c.007-.023,0-.042.007-.063l.14-.967H742.608a.394.394,0,0,0,0,.789h1.278a.306.306,0,0,1,.306.308.31.31,0,0,1-.312.3c-.483.011-.965,0-1.448,0s-.953,0-1.428,0a.911.911,0,0,0-.241.021.352.352,0,0,0-.254.342.358.358,0,0,0,.306.351.215.215,0,0,0,.049.011h4.155a.247.247,0,0,1,.077.014.032.032,0,0,0,.014.009.291.291,0,0,1,.077.04.251.251,0,0,1,.066.063.316.316,0,0,1,.07.2v.014a.316.316,0,0,1-.284.315h-5.334a.373.373,0,0,0-.375.374.367.367,0,0,0,.33.362c.007,0,.011,0,.018,0h.011s.007,0,.016,0h4.59a.7.7,0,0,1,.122.007c.169.034.3.126.306.315a.322.322,0,0,1-.27.311,1.5,1.5,0,0,1-.315.018c-.807,0,.1,0-.44,0h-2.273a.344.344,0,0,0-.346.344.348.348,0,0,0,.213.322.293.293,0,0,0,.11.027.055.055,0,0,0,.023,0h3.184l-.052.355-.205,1.428h33.581l.643-4.387.2-1.4A.711.711,0,0,0,778.12,182.149Zm-27.556,2.388h-.011l-.407,2.777v.007h-3.409l.2-1.37h0l.078-.537h.007l.175-1.172a.831.831,0,0,1,.825-.708h2.685Zm9.067.674-.185,1.315-.011.07-.007.007-.108.718h-2.984l.2-1.381h0l.108-.729.133-.926.112-.744h2.01a1.342,1.342,0,0,1,.659.3.836.836,0,0,1,.176.443.329.329,0,0,1,.024.094Zm16.344,2.11H770.29a1.132,1.132,0,0,1-.22-.092.6.6,0,0,1-.225-.175.631.631,0,0,1-.112-.225,1.674,1.674,0,0,1-.052-.3l.434-2.935h6.4Z" transform="translate(-739.332 -178.846)" fill="#bac1cc"/>
          <path id="Path_154825" data-name="Path 154825" d="M767.59,237.057h-2.069l-.452,4.572H763.76l.448-4.572h-2.072l.123-1.218h5.454Zm6.539,4.572H772.82l.147-1.488h-3.095l-.147,1.488h-1.313l.452-4.586a1.614,1.614,0,0,1,.238-.462,2.542,2.542,0,0,1,.333-.385,1.65,1.65,0,0,1,.357-.263.68.68,0,0,1,.3-.095h4.6Zm6.343,0h-3.679a.637.637,0,0,1-.368-.147,1.8,1.8,0,0,1-.36-.382,2.174,2.174,0,0,1-.266-.508,1.158,1.158,0,0,1-.081-.518l.417-4.236h1.309l-.392,4.019a.659.659,0,0,0,.522.539H780.6Zm8,0h-2.129l-3.06-2.342-.227,2.342h-1.309l.567-5.79h1.309l-.227,2.338,3.028-2.338h2.132l-3.784,2.9Zm6.91,0h-1.309l.143-1.488h-3.094l-.144,1.488h-1.313l.452-4.586a1.6,1.6,0,0,1,.234-.462,2.793,2.793,0,0,1,.336-.385,1.661,1.661,0,0,1,.357-.263.657.657,0,0,1,.3-.095h4.6Z" transform="translate(-757.426 -224.066)" fill="none"/>
          <g id="Group_154698" data-name="Group 154698" transform="translate(4.71 11.771)">
            <path id="Path_155458" data-name="Path 155458" d="M767.713,235.839l-.122,1.218h-2.069l-.452,4.572h-1.309l.448-4.572h-2.072l.122-1.218Z" transform="translate(-762.136 -235.839)" fill="#bac1cc"/>
            <path id="Path_155459" data-name="Path 155459" d="M794.207,235.839a.679.679,0,0,0-.3.095,1.653,1.653,0,0,0-.357.263,2.552,2.552,0,0,0-.332.385,1.614,1.614,0,0,0-.238.462l-.452,4.586h1.313l.147-1.488h3.095l-.147,1.488h1.309l.567-5.79Zm2.99,3.07H794.1l.108-1.11a1.25,1.25,0,0,1,.231-.466,1.053,1.053,0,0,1,.472-.266h2.465Z" transform="translate(-786.247 -235.839)" fill="#bac1cc"/>
            <path id="Path_155460" data-name="Path 155460" d="M832.755,240.4l-.122,1.232h-3.679a.637.637,0,0,1-.368-.147,1.8,1.8,0,0,1-.36-.382,2.178,2.178,0,0,1-.266-.508,1.16,1.16,0,0,1-.081-.518l.417-4.236H829.6l-.392,4.019a.659.659,0,0,0,.522.539Z" transform="translate(-814.295 -235.839)" fill="#bac1cc"/>
            <path id="Path_155461" data-name="Path 155461" d="M860.1,238.734l3.7,2.9h-2.128l-3.06-2.342-.228,2.342h-1.309l.567-5.79h1.309l-.228,2.338,3.028-2.338h2.132Z" transform="translate(-837.465 -235.839)" fill="#bac1cc"/>
            <path id="Path_155462" data-name="Path 155462" d="M897.1,235.839a.656.656,0,0,0-.3.095,1.663,1.663,0,0,0-.357.263,2.8,2.8,0,0,0-.336.385,1.6,1.6,0,0,0-.234.462l-.452,4.586h1.313l.144-1.488h3.094l-.143,1.488h1.309l.567-5.79Zm2.99,3.07h-3.095l.108-1.11a1.249,1.249,0,0,1,.231-.466,1.055,1.055,0,0,1,.473-.266h2.464Z" transform="translate(-867.882 -235.839)" fill="#bac1cc"/>
          </g>
        </g>
        <path id="Path_154826" data-name="Path 154826" d="M762.259,235.839h5.454l-.122,1.218h-2.069l-.452,4.572h-1.309l.448-4.572h-2.072Z" transform="translate(-757.426 -224.067)" fill="none"/>
        <path id="Path_154827" data-name="Path 154827" d="M794.207,235.839h4.6l-.567,5.79H796.93l.147-1.488h-3.095l-.147,1.488h-1.313l.452-4.586a1.614,1.614,0,0,1,.238-.462,2.552,2.552,0,0,1,.332-.385,1.653,1.653,0,0,1,.357-.263A.679.679,0,0,1,794.207,235.839Z" transform="translate(-781.536 -224.066)" fill="none"/>
        <path id="Path_154828" data-name="Path 154828" d="M829.734,240.4h3.021l-.122,1.232h-3.679a.637.637,0,0,1-.368-.147,1.8,1.8,0,0,1-.36-.382,2.178,2.178,0,0,1-.266-.508,1.16,1.16,0,0,1-.081-.518l.417-4.236H829.6l-.392,4.019A.659.659,0,0,0,829.734,240.4Z" transform="translate(-809.585 -224.066)" fill="none"/>
        <path id="Path_154829" data-name="Path 154829" d="M863.885,235.839l-3.784,2.9,3.7,2.9h-2.128l-3.06-2.342-.228,2.342h-1.309l.567-5.79h1.309l-.228,2.338,3.028-2.338Z" transform="translate(-832.755 -224.067)" fill="none"/>
        <path id="Path_154830" data-name="Path 154830" d="M901.7,235.839l-.567,5.79h-1.309l.143-1.488h-3.094l-.144,1.488h-1.313l.452-4.586a1.6,1.6,0,0,1,.234-.462,2.8,2.8,0,0,1,.336-.385,1.663,1.663,0,0,1,.357-.263.656.656,0,0,1,.3-.095Z" transform="translate(-863.172 -224.066)" fill="none"/>
        <g id="Group_140096" data-name="Group 140096" transform="translate(9.11)">
          <path id="Path_154831" data-name="Path 154831" d="M816.988,180.677h2.139l.266-1.828.016,0H816.95l.266.266Z" transform="translate(-810.027 -178.846)" fill="#bac1cc"/>
          <path id="Path_154832" data-name="Path 154832" d="M831.065,180.677H833.2l.266-1.831h-2.508l.322.322Z" transform="translate(-821.145 -178.846)" fill="#bac1cc"/>
          <path id="Path_154833" data-name="Path 154833" d="M783.489,180.677h2.139l.266-1.831h-2.459l.28.28Z" transform="translate(-783.435 -178.846)" fill="#bac1cc"/>
          <path id="Path_154834" data-name="Path 154834" d="M797.367,180.677h2.139l.265-1.826h.005v0H797.34l.256.256Z" transform="translate(-794.468 -178.846)" fill="#bac1cc"/>
        </g>
      </g>
    </g>
  </g>
</svg>
