<svg id="user" xmlns="http://www.w3.org/2000/svg" width="20" height="20" viewBox="0 0 20 20">
  <path id="Vector" d="M4.042-.75A4.792,4.792,0,1,1-.75,4.042,4.8,4.8,0,0,1,4.042-.75Zm0,8.333A3.542,3.542,0,1,0,.5,4.042,3.546,3.546,0,0,0,4.042,7.583Z" transform="translate(5.958 1.792)" fill="#fff"/>
  <path id="Vector-2" data-name="Vector" d="M14.192,6.333a.625.625,0,0,1-.625-.625C13.567,2.836,10.636.5,7.033.5S.5,2.836.5,5.708a.625.625,0,0,1-.625.625A.625.625,0,0,1-.75,5.708,5.926,5.926,0,0,1,1.578,1.1,8.631,8.631,0,0,1,7.033-.75,8.631,8.631,0,0,1,12.488,1.1a5.926,5.926,0,0,1,2.328,4.611A.625.625,0,0,1,14.192,6.333Z" transform="translate(2.967 12.625)" fill="#fff" opacity="0.4"/>
  <path id="Vector-3" data-name="Vector" d="M0,0H20V20H0Z" fill="none" opacity="0"/>
</svg>
