<svg xmlns="http://www.w3.org/2000/svg" width="24" height="24" viewBox="0 0 24 24">
  <g id="vuesax_twotone_wallet-money" data-name="vuesax/twotone/wallet-money" transform="translate(-108 -380)">
    <g id="wallet-money">
      <g id="Group_100" data-name="Group 100" opacity="0.4">
        <path id="Vector" d="M0-.75A.75.75,0,0,1,.75,0c0,1.249,1.217,2.19,2.83,2.19S6.4,1.249,6.4,0a.75.75,0,0,1,.75-.75A.75.75,0,0,1,7.9,0V2.03A4.114,4.114,0,0,1,3.58,5.89,4.12,4.12,0,0,1-.75,2.03V0A.75.75,0,0,1,0-.75ZM3.58,4.39a2.891,2.891,0,0,0,2.575-1.4,4.9,4.9,0,0,1-2.575.7A4.937,4.937,0,0,1,1,3,2.9,2.9,0,0,0,3.58,4.39Z" transform="translate(111.6 396.86)" fill="#07e"/>
        <path id="Vector-2" data-name="Vector" d="M3.58,6.79A4.456,4.456,0,0,1-.259,4.853l0-.007A3.4,3.4,0,0,1-.75,3.1,3.637,3.637,0,0,1,.546.346,4.568,4.568,0,0,1,3.57-.75,4.616,4.616,0,0,1,6.585.338,3.609,3.609,0,0,1,7.91,3.1a3.4,3.4,0,0,1-.487,1.746A4.44,4.44,0,0,1,3.58,6.79ZM1.021,4.071A2.961,2.961,0,0,0,3.58,5.29,2.946,2.946,0,0,0,6.139,4.07,1.866,1.866,0,0,0,6.41,3.1a2.087,2.087,0,0,0-.79-1.614L5.61,1.478A3.116,3.116,0,0,0,3.57.75a3.071,3.071,0,0,0-2.035.724A2.16,2.16,0,0,0,.75,3.1,1.869,1.869,0,0,0,1.021,4.071Z" transform="translate(111.59 391.01)" fill="#07e"/>
        <path id="Vector-3" data-name="Vector" d="M3.58-.75A4.615,4.615,0,0,1,6.6.342l0,0A3.648,3.648,0,0,1,7.9,3.11V5.86a3.422,3.422,0,0,1-1.326,2.7A4.772,4.772,0,0,1,3.58,9.55a4.784,4.784,0,0,1-3-.994A3.418,3.418,0,0,1-.75,5.86V3.11A4.12,4.12,0,0,1,3.58-.75ZM5.619,1.476A3.116,3.116,0,0,0,3.58.75,2.63,2.63,0,0,0,.75,3.11V5.86c0,1.248,1.217,2.19,2.83,2.19S6.4,7.108,6.4,5.86V3.11A2.169,2.169,0,0,0,5.619,1.476Z" transform="translate(111.6 391)" fill="#07e"/>
      </g>
      <path id="Vector-4" data-name="Vector" d="M2.049-.75H4.156A1.772,1.772,0,0,1,5.879,1.02V3.08A1.772,1.772,0,0,1,4.156,4.849H2.169A2.878,2.878,0,0,1-.738,2.3,2.75,2.75,0,0,1,.078.07,2.735,2.735,0,0,1,2.049-.75ZM4.112.75H2.049a1.246,1.246,0,0,0-.9.373l-.013.013A1.257,1.257,0,0,0,.756,2.159v.009A1.389,1.389,0,0,0,2.169,3.35H4.112a.277.277,0,0,0,.267-.27V1.02A.277.277,0,0,0,4.112.75Z" transform="translate(124.871 389.95)" fill="#07e"/>
      <path id="Vector-5" data-name="Vector" d="M14,17.75H11.5a.75.75,0,0,1,0-1.5H14A3.983,3.983,0,0,0,18.25,12v-.7H17.04a2.878,2.878,0,0,1-2.907-2.552A2.81,2.81,0,0,1,16.92,5.7h1.33V5A3.925,3.925,0,0,0,14.663.795L14.627.79A3.816,3.816,0,0,0,14,.75H5A4.594,4.594,0,0,0,4.3.8L4.283.8A3.922,3.922,0,0,0,.75,5V7A.75.75,0,0,1,0,7.75.75.75,0,0,1-.75,7V5A5.4,5.4,0,0,1,4.087-.683,6.1,6.1,0,0,1,5-.75h9a5.4,5.4,0,0,1,.855.057A5.4,5.4,0,0,1,19.75,5V6.45A.75.75,0,0,1,19,7.2H16.92a1.246,1.246,0,0,0-.9.373L16,7.587a1.257,1.257,0,0,0-.377,1.022v.009A1.389,1.389,0,0,0,17.04,9.8H19a.75.75,0,0,1,.75.75V12a5.719,5.719,0,0,1-1.595,4.155A5.719,5.719,0,0,1,14,17.75Z" transform="translate(110 383.5)" fill="#07e"/>
      <path id="Vector-6" data-name="Vector" d="M0,0H24V24H0Z" transform="translate(132 404) rotate(180)" fill="none" opacity="0"/>
    </g>
  </g>
</svg>
