<svg xmlns="http://www.w3.org/2000/svg" width="13" height="13" viewBox="0 0 13 13">
  <g id="vuesax_twotone_wallet-minus" data-name="vuesax/twotone/wallet-minus" transform="translate(-748 -508)">
    <g id="wallet-minus" transform="translate(748 508)">
      <path id="Vector" d="M2.365.063H-.344A.406.406,0,0,1-.75-.344.406.406,0,0,1-.344-.75H2.365a.406.406,0,0,1,.406.406A.406.406,0,0,1,2.365.063Z" transform="translate(5.361 9.009)" fill="#8d98aa" opacity="0.4"/>
      <path id="Vector-2" data-name="Vector" d="M2.578-.75a3.966,3.966,0,0,1,1.394.307A.406.406,0,0,1,4.2-.221.406.406,0,0,1,4.2.1L4.184.135,2.613,3.781a.406.406,0,0,1-.373.245H.7a2.247,2.247,0,0,0-.882.179A.406.406,0,0,1-.63,4.119a.406.406,0,0,1-.088-.445L.249,1.362.254,1.35l.031-.07a.833.833,0,0,1,.053-.126,3.974,3.974,0,0,1,.9-1.391A1.9,1.9,0,0,1,2.578-.75Zm.7.93a2.536,2.536,0,0,0-.7-.117c-.53,0-.989.244-1.5,1.433q-.008.018-.017.035l-.008.025q-.006.017-.013.034L1,1.67l-.019.048,0,.006L.347,3.234A3.092,3.092,0,0,1,.7,3.214H1.973Z" transform="translate(3.03 1.427)" fill="#8d98aa"/>
      <path id="Vector-3" data-name="Vector" d="M4.163,3.854a.406.406,0,0,1-.121-.018,2.169,2.169,0,0,0-.643-.09H-.344a.406.406,0,0,1-.339-.183.406.406,0,0,1-.034-.384L.87-.5a.406.406,0,0,1,.5-.225c.068.023.129.049.183.073l.077.033.007,0,1.2.5A3.869,3.869,0,0,1,4.406.909a1.554,1.554,0,0,1,.172.247,1.238,1.238,0,0,1,.142.3,1.293,1.293,0,0,1,.056.165A2.92,2.92,0,0,1,4.54,3.6.406.406,0,0,1,4.163,3.854ZM.274,2.933H3.4a3.215,3.215,0,0,1,.506.039A1.846,1.846,0,0,0,4,1.861q0-.013-.007-.026a.47.47,0,0,0-.026-.074.406.406,0,0,1-.021-.06.437.437,0,0,0-.058-.118L3.87,1.555a.749.749,0,0,0-.09-.128l0,0A3.143,3.143,0,0,0,2.523.633L1.458.185Z" transform="translate(5.614 1.708)" fill="#8d98aa"/>
      <path id="Vector-4" data-name="Vector" d="M2.3-.75H7.586a3.1,3.1,0,0,1,.879.125h0A3.086,3.086,0,0,1,10.016.463,3.029,3.029,0,0,1,10.63,2.3V3.356c0,.118-.006.234-.011.345C10.5,5.815,9.27,6.931,7.05,6.931H2.825A3.338,3.338,0,0,1,2.4,6.9,3.052,3.052,0,0,1-.721,3.78,3.338,3.338,0,0,1-.75,3.356V2.3A3.054,3.054,0,0,1,1.1-.506l0,0A3.1,3.1,0,0,1,2.3-.75Zm5.933.9A2.321,2.321,0,0,0,7.586.063H2.3a2.288,2.288,0,0,0-.882.179A2.242,2.242,0,0,0,.063,2.3V3.356a2.56,2.56,0,0,0,.024.332q0,.013,0,.026A2.253,2.253,0,0,0,2.467,6.092l.026,0a2.56,2.56,0,0,0,.332.024H7.05c1.79,0,2.666-.782,2.758-2.46.005-.1.01-.2.01-.3V2.3A2.262,2.262,0,0,0,8.233.154Z" transform="translate(1.433 5.391)" fill="#8d98aa"/>
      <path id="Vector-5" data-name="Vector" d="M2.208-.75A.406.406,0,0,1,2.522-.6a.406.406,0,0,1,.06.414L1.634,2.077a.406.406,0,0,1-.214.216A2.242,2.242,0,0,0,.063,4.352a.406.406,0,0,1-.406.406A.406.406,0,0,1-.75,4.352V2.765A3.58,3.58,0,0,1,2.129-.742.406.406,0,0,1,2.208-.75ZM.946,1.618,1.475.354A2.775,2.775,0,0,0,.116,2.223,3.06,3.06,0,0,1,.946,1.618Z" transform="translate(1.427 3.338)" fill="#8d98aa" opacity="0.4"/>
      <path id="Vector-6" data-name="Vector" d="M1.53,4.45a.406.406,0,0,1-.406-.406A2.245,2.245,0,0,0-.46,1.9.406.406,0,0,1-.71,1.691a.406.406,0,0,1-.011-.327A2.283,2.283,0,0,0-.506-.088q0-.013-.007-.026A.213.213,0,0,0-.528-.162.406.406,0,0,1-.45-.633.406.406,0,0,1,.021-.7,3.533,3.533,0,0,1,1.406.583a3.568,3.568,0,0,1,.53,1.873V4.044A.406.406,0,0,1,1.53,4.45ZM.174,1.278a3.072,3.072,0,0,1,.9.635A2.793,2.793,0,0,0,.34.531,3.728,3.728,0,0,1,.174,1.278Z" transform="translate(10.125 3.647)" fill="#8d98aa" opacity="0.4"/>
      <path id="Vector-7" data-name="Vector" d="M0,0H13V13H0Z" fill="none" opacity="0"/>
    </g>
  </g>
</svg>
