

<svg xmlns="http://www.w3.org/2000/svg" width="30" height="30" viewBox="0 0 30 30">
  <g id="vuesax_twotone_danger" data-name="vuesax/twotone/danger" transform="translate(-428 -252)">
    <g id="danger" transform="translate(428 252)">
      <path id="Vector" d="M.188,7.375A.938.938,0,0,1-.75,6.438V.188a.938.938,0,0,1,1.875,0v6.25A.938.938,0,0,1,.188,7.375Z" transform="translate(14.813 11.063)" fill="#ef5350" opacity="0.34"/>
      <path id="Vector-2" data-name="Vector" d="M20.263,24.659H12.688a.944.944,0,0,1-.153-.013H5.113c-2.44,0-4.3-.881-5.244-2.481s-.811-3.661.374-5.8l3.9-7.025,3.676-6.6C9.067.49,10.8-.75,12.688-.75s3.621,1.24,4.87,3.492l3.675,6.612,3.9,7.025c1.184,2.135,1.316,4.193.372,5.8S22.7,24.659,20.263,24.659Zm-7.422-1.875h7.422c1.745,0,3.033-.554,3.626-1.56s.453-2.405-.4-3.935l-3.9-7.025L15.918,3.652c-.9-1.63-2.051-2.527-3.231-2.527s-2.327.9-3.23,2.527l-3.676,6.6-3.9,7.024c-.85,1.532-.991,2.931-.4,3.938s1.88,1.557,3.629,1.557h7.575A.944.944,0,0,1,12.841,22.784Z" transform="translate(2.312 3.053)" fill="#ef5350"/>
      <path id="Vector-3" data-name="Vector" d="M.261,1.5H.25A1.25,1.25,0,1,1,.25-1H.261a1.25,1.25,0,0,1,0,2.5Z" transform="translate(14.743 21)" fill="#ef5350" opacity="0.34"/>
      <path id="Vector-4" data-name="Vector" d="M0,0H30V30H0Z" fill="none" opacity="0"/>
    </g>
  </g>
</svg>
