<svg xmlns="http://www.w3.org/2000/svg" width="54" height="54" viewBox="0 0 54 54">
  <g id="Group_138581" data-name="Group 138581" transform="translate(-303 -728)">
    <rect id="Rectangle_111427" data-name="Rectangle 111427" width="54" height="54" rx="12" transform="translate(303 728)" fill="#edf0f5" opacity="0.4"/>
    <path id="Path_153672" data-name="Path 153672" d="M-2.656-16.365A10.611,10.611,0,0,0-10.217-19.5,10.7,10.7,0,0,0-20.908-8.809a10.7,10.7,0,0,0,1.425,5.346L-21,2.075-15.332.587a10.658,10.658,0,0,0,5.11,1.3h0A10.794,10.794,0,0,0,.575-8.8,10.733,10.733,0,0,0-2.656-16.365ZM-10.217.086a8.871,8.871,0,0,1-4.527-1.238l-.323-.193-3.361.881.9-3.28-.212-.337A8.857,8.857,0,0,1-19.1-8.809a8.9,8.9,0,0,1,8.89-8.885,8.808,8.808,0,0,1,6.28,2.605A8.921,8.921,0,0,1-1.231-8.8,8.985,8.985,0,0,1-10.217.086Zm4.874-6.656c-.265-.135-1.58-.78-1.825-.867s-.424-.135-.6.135-.689.867-.848,1.05-.313.2-.578.067a7.272,7.272,0,0,1-3.636-3.178c-.274-.472.275-.438.785-1.459a.5.5,0,0,0-.024-.467c-.067-.135-.6-1.45-.824-1.984s-.438-.448-.6-.458-.332-.01-.51-.01a.99.99,0,0,0-.713.332,3,3,0,0,0-.934,2.23,5.234,5.234,0,0,0,1.088,2.764A11.938,11.938,0,0,0-10-4.378a5.228,5.228,0,0,0,3.207.669,2.736,2.736,0,0,0,1.8-1.271,2.234,2.234,0,0,0,.154-1.271C-4.9-6.372-5.079-6.439-5.344-6.569Z" transform="translate(340 764)" fill="#F29030"/>
  </g>
</svg>
