<svg id="whatsapp" xmlns="http://www.w3.org/2000/svg" width="20" height="20" viewBox="0 0 20 20">
  <path id="BG_126" data-name="BG 126" d="M0,0H20V20H0Z" fill="none" opacity="0.58"/>
  <path id="Vector" d="M-.125,17.167a.625.625,0,0,1-.44-.181.625.625,0,0,1-.164-.606L.322,12.458a8.936,8.936,0,1,1,3.587,3.613L.042,17.144A.625.625,0,0,1-.125,17.167Zm4.117-2.392a.625.625,0,0,1,.317.086,7.722,7.722,0,1,0-2.776-2.8.625.625,0,0,1,.063.475l-.834,3.11L3.825,14.8A.625.625,0,0,1,3.992,14.775Z" transform="translate(1.792 1.792)" fill="#fff"/>
  <path id="Vector-2" data-name="Vector" d="M6.317,8.858A4.009,4.009,0,0,1,4.707,8.5a8.19,8.19,0,0,1-1.547-.89A12.615,12.615,0,0,1,1.721,6.38l0,0A12.471,12.471,0,0,1,.489,4.937l0-.006A7.986,7.986,0,0,1-.4,3.384,4.153,4.153,0,0,1-.75,1.775,2.789,2.789,0,0,1-.557.738,2.491,2.491,0,0,1,.075-.184a1.832,1.832,0,0,1,1.3-.566,1.45,1.45,0,0,1,.6.133,1.305,1.305,0,0,1,.533.442l.969,1.37a1.979,1.979,0,0,1,.231.41,1.186,1.186,0,0,1-.072,1.11,2.076,2.076,0,0,1-.325.421L3.2,3.259q.078.1.2.249c.164.186.368.415.578.625s.416.4.63.583c.1.084.182.147.25.195l.119-.119a1.978,1.978,0,0,1,.435-.336,1.188,1.188,0,0,1,.607-.172,1.226,1.226,0,0,1,.517.114,2.151,2.151,0,0,1,.4.23l1.375.977a1.324,1.324,0,0,1,.433.5l.066.132v.148c0,.012,0,.046.007.071a1.986,1.986,0,0,1,.018.245,1.658,1.658,0,0,1-.174.738,2.6,2.6,0,0,1-.372.557l-.012.013a2.535,2.535,0,0,1-.9.644A2.666,2.666,0,0,1,6.317,8.858ZM2.6,5.489a11.374,11.374,0,0,0,1.293,1.1,6.962,6.962,0,0,0,1.314.757,2.779,2.779,0,0,0,1.111.257A1.424,1.424,0,0,0,6.885,7.5L6.9,7.495a1.274,1.274,0,0,0,.451-.329,1.368,1.368,0,0,0,.189-.286A.4.4,0,0,0,7.583,6.7a.789.789,0,0,0-.007-.082L6.192,5.633a.873.873,0,0,0-.163-.092l-.013.007a.728.728,0,0,0-.157.127l-.317.317a.9.9,0,0,1-.964.194c-.025-.01-.047-.02-.063-.028l-.02-.007-.046-.024A3.8,3.8,0,0,1,3.8,5.669c-.242-.206-.472-.419-.7-.652s-.418-.441-.635-.686l-.009-.01a3.762,3.762,0,0,1-.467-.645L1.957,3.63l-.019-.057L1.91,3.518l-.017-.067A1,1,0,0,1,1.858,3.2.831.831,0,0,1,2.1,2.6l.324-.34a.849.849,0,0,0,.134-.17l-.013-.032a.94.94,0,0,0-.091-.147L1.486.539A.084.084,0,0,0,1.455.517.189.189,0,0,0,1.375.5.577.577,0,0,0,.95.709L.933.725a1.238,1.238,0,0,0-.325.467l0,.006A1.545,1.545,0,0,0,.5,1.775,2.917,2.917,0,0,0,.751,2.9,6.736,6.736,0,0,0,1.5,4.2,11.235,11.235,0,0,0,2.6,5.489Z" transform="translate(5.958 5.942)" fill="#fff" opacity="0.4"/>
  <path id="Vector-3" data-name="Vector" d="M0,0H20V20H0Z" fill="none" opacity="0"/>
</svg>
