<svg xmlns="http://www.w3.org/2000/svg" width="54" height="54" viewBox="0 0 54 54">
  <g id="Group_154610" data-name="Group 154610" transform="translate(-18 -728)">
    <rect id="Rectangle_111428" data-name="Rectangle 111428" width="54" height="54" rx="12" transform="translate(18 728)" fill="#edf0f5" opacity="0.4"/>
    <path id="yout" d="M-1.013-12.453a2.638,2.638,0,0,0-1.856-1.87c-1.638-.44-8.2-.44-8.2-.44s-6.566,0-8.2.442a2.639,2.639,0,0,0-1.856,1.87,27.676,27.676,0,0,0-.439,5.086,27.676,27.676,0,0,0,.439,5.086A2.6,2.6,0,0,0-19.276-.442c1.638.442,8.2.442,8.2.442s6.566,0,8.2-.442A2.6,2.6,0,0,0-1.013-2.28,27.676,27.676,0,0,0-.574-7.367a27.676,27.676,0,0,0-.439-5.086Zm-12.2,8.208v-6.244l5.488,3.122Z" transform="translate(56.072 762.382)" fill="#245389"/>
  </g>
</svg>
