<svg id="vuesax_twotone_youtube" data-name="vuesax/twotone/youtube" xmlns="http://www.w3.org/2000/svg" width="20" height="20" viewBox="0 0 20 20">
  <g id="youtube">
    <path id="BG_127" data-name="BG 127" d="M0,0H20V20H0Z" fill="none" opacity="0.58"/>
    <path id="Vector" d="M12.5,14.083H4.167A4.888,4.888,0,0,1,.616,12.718,4.888,4.888,0,0,1-.75,9.167v-5A4.888,4.888,0,0,1,.616.616,4.888,4.888,0,0,1,4.167-.75H12.5A4.888,4.888,0,0,1,16.051.616a4.888,4.888,0,0,1,1.365,3.551v5a4.888,4.888,0,0,1-1.365,3.551A4.888,4.888,0,0,1,12.5,14.083ZM4.167.75A3.2,3.2,0,0,0,.75,4.167v5a3.2,3.2,0,0,0,3.417,3.417H12.5a3.2,3.2,0,0,0,3.417-3.417v-5A3.2,3.2,0,0,0,12.5.75Z" transform="translate(1.667 3.333)" fill="#fff"/>
    <path id="Vector-2" data-name="Vector" d="M.826-.75A2.092,2.092,0,0,1,1.9-.424L3.961.81a1.786,1.786,0,0,1,.952,1.5,1.784,1.784,0,0,1-.949,1.5L1.9,5.046a2.09,2.09,0,0,1-1.076.326A1.641,1.641,0,0,1-.75,3.545V1.07A1.636,1.636,0,0,1,.826-.75Zm0,4.622a.637.637,0,0,0,.3-.113L3.19,2.526c.175-.106.221-.2.223-.216s-.048-.108-.226-.216L1.131.863A.64.64,0,0,0,.826.75H.814A.592.592,0,0,0,.75,1.07V3.545a.606.606,0,0,0,.065.327Z" transform="translate(8 7.689)" fill="#fff" opacity="0.4"/>
    <path id="Vector-3" data-name="Vector" d="M0,0H20V20H0Z" fill="none" opacity="0"/>
  </g>
</svg>
